<svg width="1244" height="497" viewBox="0 0 1244 497" fill="none" xmlns="http://www.w3.org/2000/svg">
<path d="M919.019 131.924C924.12 131.924 928.6 130.993 932.46 129.132C936.389 127.202 939.387 124.583 941.455 121.275H973.402C969.887 131.682 963.201 140.264 953.344 147.018C943.557 153.773 932.115 157.15 919.019 157.15C900.754 157.15 886.418 151.981 876.01 141.642C865.671 131.303 860.502 117.759 860.502 101.01C860.502 84.5372 865.809 71.1312 876.423 60.7924C887.107 50.4535 900.789 45.2841 917.469 45.2841C934.218 45.2841 947.865 50.3846 958.41 60.5856C968.956 70.7866 974.229 84.3994 974.229 101.424V111.763H894.62C897.308 125.203 905.441 131.924 919.019 131.924ZM917.882 69.477C911.196 69.477 905.889 71.2691 901.96 74.8532C898.032 78.4373 895.585 83.6067 894.62 90.3615H941.041C940.214 83.8824 937.767 78.782 933.701 75.06C929.703 71.338 924.43 69.477 917.882 69.477Z" fill="#0B1215"/>
<path d="M806.74 154.566V0H841.478V154.566H806.74Z" fill="#0B1215"/>
<path d="M733.644 45.2841C749.015 45.2841 761.731 50.6258 771.794 61.3093C781.926 71.9928 786.993 85.2954 786.993 101.217C786.993 117.139 781.926 130.442 771.794 141.125C761.731 151.809 749.015 157.15 733.644 157.15C725.924 157.15 719.032 155.427 712.966 151.981C706.97 148.466 702.421 144.02 699.319 138.644V154.566H665.925V0H700.663V63.6872C703.145 58.1732 707.28 53.7275 713.07 50.3501C718.928 46.9728 725.787 45.2841 733.644 45.2841ZM726.717 128.305C734.161 128.305 740.261 125.755 745.017 120.654C749.842 115.485 752.254 109.006 752.254 101.217C752.254 93.4286 749.842 86.9841 745.017 81.8836C740.261 76.7142 734.161 74.1295 726.717 74.1295C719.135 74.1295 712.897 76.6797 708.004 81.7802C703.11 86.8118 700.663 93.2908 700.663 101.217C700.663 109.144 703.11 115.657 708.004 120.758C712.897 125.789 719.135 128.305 726.717 128.305Z" fill="#0B1215"/>
<path d="M505.259 154.566H470.521V47.8688H504.225V63.6872C506.775 58.38 510.842 54.0032 516.425 50.5569C522.008 47.0417 528.384 45.2841 535.552 45.2841C551.267 45.2841 562.123 51.4185 568.119 63.6872C571.497 58.1043 576.252 53.6586 582.387 50.3501C588.521 46.9728 595.621 45.2841 603.685 45.2841C616.16 45.2841 625.603 49.1784 632.013 56.967C638.423 64.6867 641.628 75.1289 641.628 88.2937V154.566H606.89V93.98C606.89 81.5734 601.445 75.3701 590.555 75.3701C585.316 75.3701 581.146 76.921 578.045 80.0226C574.943 83.1243 573.392 87.3632 573.392 92.7394V154.566H538.654V93.98C538.654 81.5734 533.243 75.3701 522.422 75.3701C516.976 75.3701 512.738 76.9554 509.705 80.126C506.741 83.2966 505.259 87.8457 505.259 93.7733V154.566Z" fill="#0B1215"/>
<path d="M395.254 131.924C400.354 131.924 404.835 130.993 408.694 129.132C412.623 127.202 415.621 124.583 417.689 121.275H449.636C446.121 131.682 439.435 140.264 429.579 147.018C419.791 153.773 408.35 157.15 395.254 157.15C376.989 157.15 362.652 151.981 352.244 141.642C341.905 131.303 336.736 117.759 336.736 101.01C336.736 84.5372 342.043 71.1312 352.658 60.7924C363.341 50.4535 377.023 45.2841 393.703 45.2841C410.452 45.2841 424.099 50.3846 434.645 60.5856C445.19 70.7866 450.463 84.3994 450.463 101.424V111.763H370.854C373.542 125.203 381.676 131.924 395.254 131.924ZM394.117 69.477C387.431 69.477 382.124 71.2691 378.195 74.8532C374.266 78.4373 371.819 83.6067 370.854 90.3615H417.276C416.448 83.8824 414.002 78.782 409.935 75.06C405.937 71.338 400.665 69.477 394.117 69.477Z" fill="#0B1215"/>
<path d="M266.329 121.275C266.673 125.203 268.086 128.271 270.567 130.476C273.049 132.682 276.564 133.785 281.113 133.785C284.973 133.785 288.04 132.854 290.315 130.993C292.658 129.132 293.83 126.754 293.83 123.859C293.83 119.241 290.935 116.209 285.145 114.761L270.567 110.936C260.229 108.385 252.681 104.595 247.925 99.563C243.238 94.4625 240.895 87.5355 240.895 78.782C240.895 68.581 244.72 60.4477 252.371 54.3823C260.091 48.3168 269.602 45.2841 280.906 45.2841C292.486 45.2841 301.653 48.3168 308.408 54.3823C315.231 60.4477 319.126 68.512 320.09 78.5752H291.555C291.417 75.8182 290.521 73.4747 288.867 71.5448C287.213 69.6148 284.766 68.6499 281.527 68.6499C278.494 68.6499 276.15 69.3736 274.496 70.821C272.842 72.1996 272.015 74.1295 272.015 76.6108C272.015 81.022 274.772 83.848 280.286 85.0886L299.103 90.1547C316.334 94.6348 324.95 104.732 324.95 120.447C324.95 127.547 322.882 133.957 318.746 139.678C314.68 145.33 309.338 149.672 302.721 152.705C296.173 155.668 289.108 157.15 281.527 157.15C273.531 157.15 266.466 155.979 260.332 153.635C254.267 151.292 249.166 147.397 245.031 141.952C240.895 136.438 238.448 129.546 237.69 121.275H266.329Z" fill="#0B1215"/>
<path d="M168.316 121.275C168.661 125.203 170.074 128.271 172.555 130.476C175.037 132.682 178.552 133.785 183.101 133.785C186.961 133.785 190.028 132.854 192.302 130.993C194.646 129.132 195.818 126.754 195.818 123.859C195.818 119.241 192.923 116.209 187.133 114.761L172.555 110.936C162.216 108.385 154.669 104.595 149.913 99.563C145.226 94.4625 142.883 87.5355 142.883 78.782C142.883 68.581 146.708 60.4477 154.359 54.3823C162.079 48.3168 171.59 45.2841 182.894 45.2841C194.474 45.2841 203.641 48.3168 210.395 54.3823C217.219 60.4477 221.113 68.512 222.078 78.5752H193.543C193.405 75.8182 192.509 73.4747 190.855 71.5448C189.201 69.6148 186.754 68.6499 183.514 68.6499C180.482 68.6499 178.138 69.3736 176.484 70.821C174.83 72.1996 174.003 74.1295 174.003 76.6108C174.003 81.022 176.76 83.848 182.274 85.0886L201.09 90.1547C218.322 94.6348 226.938 104.732 226.938 120.447C226.938 127.547 224.87 133.957 220.734 139.678C216.668 145.33 211.326 149.672 204.709 152.705C198.161 155.668 191.096 157.15 183.514 157.15C175.519 157.15 168.454 155.979 162.32 153.635C156.254 151.292 151.154 147.397 147.018 141.952C142.883 136.438 140.436 129.546 139.678 121.275H168.316Z" fill="#0B1215"/>
<path d="M53.3484 45.2841C61.2749 45.2841 68.2363 46.9728 74.2329 50.3501C80.2294 53.7275 84.4683 58.1732 86.9496 63.6872V47.8688H121.068V154.566H87.57V138.644C84.3994 144.02 79.8158 148.466 73.8193 151.981C67.8917 155.427 61.0681 157.15 53.3484 157.15C37.978 157.15 25.2268 151.809 15.0947 141.125C5.03157 130.442 0 117.139 0 101.217C0 85.2954 5.03157 71.9928 15.0947 61.3093C25.2268 50.6258 37.978 45.2841 53.3484 45.2841ZM60.2754 128.305C67.8573 128.305 74.095 125.789 78.9887 120.758C83.8825 115.657 86.3293 109.144 86.3293 101.217C86.3293 93.2908 83.8825 86.8118 78.9887 81.7802C74.095 76.6797 67.8573 74.1295 60.2754 74.1295C52.8315 74.1295 46.6971 76.7142 41.8723 81.8836C37.0475 86.9841 34.6351 93.4286 34.6351 101.217C34.6351 109.006 37.0475 115.485 41.8723 120.654C46.6971 125.755 52.8315 128.305 60.2754 128.305Z" fill="#0B1215"/>
<path d="M792.787 460.198C793.132 464.127 794.545 467.194 797.026 469.4C799.508 471.605 803.023 472.708 807.572 472.708C811.432 472.708 814.499 471.778 816.774 469.917C819.117 468.056 820.289 465.678 820.289 462.783C820.289 458.165 817.394 455.132 811.604 453.685L797.026 449.859C786.688 447.309 779.14 443.518 774.384 438.487C769.697 433.386 767.354 426.459 767.354 417.705C767.354 407.505 771.179 399.371 778.83 393.306C786.55 387.24 796.061 384.208 807.365 384.208C818.945 384.208 828.112 387.24 834.866 393.306C841.69 399.371 845.584 407.436 846.549 417.499H818.014C817.876 414.742 816.98 412.398 815.326 410.468C813.672 408.538 811.225 407.573 807.986 407.573C804.953 407.573 802.609 408.297 800.955 409.745C799.301 411.123 798.474 413.053 798.474 415.534C798.474 419.946 801.231 422.772 806.745 424.012L825.562 429.078C842.793 433.558 851.409 443.656 851.409 459.371C851.409 466.47 849.341 472.88 845.205 478.601C841.139 484.253 835.797 488.595 829.18 491.628C822.632 494.592 815.567 496.074 807.986 496.074C799.99 496.074 792.925 494.902 786.791 492.559C780.725 490.215 775.625 486.321 771.489 480.876C767.354 475.362 764.907 468.469 764.149 460.198H792.787Z" fill="#0B1215"/>
<path d="M710.904 386.792H745.642V493.489H711.938V477.567C709.387 482.875 705.252 487.286 699.531 490.801C693.879 494.316 687.435 496.074 680.197 496.074C667.791 496.074 658.382 492.214 651.972 484.494C645.562 476.706 642.357 466.229 642.357 453.064V386.792H677.096V447.792C677.096 460.198 682.575 466.401 693.535 466.401C699.049 466.401 703.322 464.816 706.355 461.646C709.387 458.406 710.904 453.857 710.904 447.998V386.792Z" fill="#0B1215"/>
<path d="M498.647 493.489H463.909V338.924H498.647V401.577C501.129 396.339 505.161 392.134 510.744 388.964C516.327 385.793 522.668 384.208 529.767 384.208C542.174 384.208 551.651 388.102 558.199 395.891C564.747 403.679 568.021 414.121 568.021 427.217V493.489H533.386V432.904C533.386 427.183 531.973 422.668 529.147 419.36C526.39 415.982 522.151 414.294 516.43 414.294C511.123 414.294 506.815 415.913 503.507 419.153C500.267 422.324 498.647 426.838 498.647 432.697V493.489Z" fill="#0B1215"/>
<path d="M433.513 467.229C437.235 467.229 440.922 466.677 444.575 465.574V493.076C442.714 493.834 439.716 494.523 435.58 495.143C431.445 495.764 427.585 496.074 424.001 496.074C411.525 496.074 402.186 492.662 395.983 485.838C389.848 479.015 386.781 469.503 386.781 457.303V415.328H368.275V386.792H386.781V354.845H421.416V386.792H445.609V415.328H421.416V455.132C421.416 463.196 425.448 467.229 433.513 467.229Z" fill="#0B1215"/>
<path d="M318.338 493.489V386.792H353.077V493.489H318.338ZM355.661 355.052C355.661 360.635 353.731 365.322 349.872 369.113C346.081 372.835 341.359 374.696 335.707 374.696C330.193 374.696 325.506 372.835 321.646 369.113C317.787 365.322 315.857 360.635 315.857 355.052C315.857 349.607 317.787 344.989 321.646 341.198C325.506 337.407 330.193 335.512 335.707 335.512C341.359 335.512 346.081 337.407 349.872 341.198C353.731 344.92 355.661 349.538 355.661 355.052Z" fill="#0B1215"/>
<path d="M254.858 452.237L271.71 386.792H305.414L271.71 493.489H242.141L216.707 427.838L191.274 493.489H161.601L128 386.792H161.601L178.557 452.237L202.543 386.792H230.871L254.858 452.237Z" fill="#0B1215"/>
<path d="M1107.56 318.915H1072.82V212.218H1106.53V228.037C1109.08 222.73 1113.15 218.353 1118.73 214.907C1124.31 211.391 1130.69 209.634 1137.86 209.634C1153.57 209.634 1164.43 215.768 1170.42 228.037C1173.8 222.454 1178.56 218.008 1184.69 214.7C1190.82 211.322 1197.92 209.634 1205.99 209.634C1218.46 209.634 1227.91 213.528 1234.32 221.317C1240.73 229.036 1243.93 239.479 1243.93 252.643V318.915H1209.19V258.33C1209.19 245.923 1203.75 239.72 1192.86 239.72C1187.62 239.72 1183.45 241.271 1180.35 244.372C1177.25 247.474 1175.7 251.713 1175.7 257.089V318.915H1140.96V258.33C1140.96 245.923 1135.55 239.72 1124.72 239.72C1119.28 239.72 1115.04 241.305 1112.01 244.476C1109.04 247.646 1107.56 252.195 1107.56 258.123V318.915Z" fill="#0B1215"/>
<path d="M979.671 209.634C987.597 209.634 994.559 211.322 1000.56 214.7C1006.55 218.077 1010.79 222.523 1013.27 228.037V212.218H1047.39V318.915H1013.89V302.994C1010.72 308.37 1006.14 312.815 1000.14 316.331C994.214 319.777 987.391 321.5 979.671 321.5C964.3 321.5 951.549 316.158 941.417 305.475C931.354 294.791 926.322 281.489 926.322 265.567C926.322 249.645 931.354 236.342 941.417 225.659C951.549 214.976 964.3 209.634 979.671 209.634ZM986.598 292.655C994.18 292.655 1000.42 290.139 1005.31 285.107C1010.2 280.007 1012.65 273.493 1012.65 265.567C1012.65 257.64 1010.2 251.161 1005.31 246.13C1000.42 241.029 994.18 238.479 986.598 238.479C979.154 238.479 973.02 241.064 968.195 246.233C963.37 251.334 960.958 257.778 960.958 265.567C960.958 273.355 963.37 279.835 968.195 285.004C973.02 290.104 979.154 292.655 986.598 292.655Z" fill="#0B1215"/>
<path d="M856.742 296.273C861.843 296.273 866.323 295.343 870.183 293.482C874.111 291.552 877.11 288.933 879.177 285.624H911.124C907.609 296.032 900.923 304.613 891.067 311.368C881.28 318.123 869.838 321.5 856.742 321.5C838.477 321.5 824.14 316.331 813.732 305.992C803.394 295.653 798.224 282.109 798.224 265.36C798.224 248.887 803.531 235.481 814.146 225.142C824.829 214.803 838.511 209.634 855.191 209.634C871.94 209.634 885.587 214.734 896.133 224.935C906.679 235.136 911.951 248.749 911.951 265.774V276.113H832.342C835.03 289.553 843.164 296.273 856.742 296.273ZM855.605 233.827C848.919 233.827 843.612 235.619 839.683 239.203C835.754 242.787 833.307 247.956 832.342 254.711H878.764C877.937 248.232 875.49 243.132 871.423 239.41C867.425 235.688 862.153 233.827 855.605 233.827Z" fill="#0B1215"/>
<path d="M774.238 292.655C777.96 292.655 781.648 292.103 785.301 291V318.502C783.44 319.26 780.441 319.949 776.306 320.57C772.17 321.19 768.31 321.5 764.726 321.5C752.251 321.5 742.911 318.088 736.708 311.265C730.574 304.441 727.507 294.929 727.507 282.729V240.754H709V212.218H727.507V180.271H762.142V212.218H786.335V240.754H762.142V280.558C762.142 288.623 766.174 292.655 774.238 292.655Z" fill="#0B1215"/>
<path d="M682.105 230.848C679.968 230.296 677.074 230.02 673.421 230.02C663.082 230.02 654.466 233.639 647.573 240.876C640.681 248.044 635.959 258.108 633.409 271.066L623.587 319.968H607.149L627.826 215.753H643.748L638.062 243.978C640.888 234.742 645.678 227.505 652.433 222.266C659.256 216.959 667.079 214.305 675.902 214.305C679.555 214.305 682.588 214.719 685 215.546L682.105 230.848Z" fill="#0B1215"/>
<path d="M577.579 215.753H594.122L573.341 319.968H557.419L561.451 299.601C558.28 306.631 553.456 312.214 546.976 316.35C540.566 320.485 532.847 322.553 523.817 322.553C512.72 322.553 503.898 318.797 497.35 311.284C490.802 303.702 487.528 294.328 487.528 283.162C487.528 280.336 487.907 276.717 488.665 272.306L499.831 215.753H516.374L505.311 271.066C504.484 275.132 504.07 278.958 504.07 282.542C504.07 290.468 506.173 296.637 510.377 301.048C514.581 305.459 521.026 307.665 529.711 307.665C538.74 307.665 546.563 304.288 553.18 297.533C559.866 290.778 564.242 282.232 566.31 271.893L577.579 215.753Z" fill="#0B1215"/>
<path d="M404.301 322.553C389.344 322.553 376.937 317.866 367.081 308.492C357.293 299.049 352.4 287.194 352.4 272.927C352.4 262.105 354.915 252.146 359.947 243.047C365.047 233.949 372.216 226.712 381.452 221.336C390.688 215.96 400.992 213.271 412.365 213.271C427.184 213.271 439.59 217.958 449.585 227.332C459.648 236.706 464.679 248.389 464.679 262.381C464.679 272.789 462.095 282.576 456.925 291.743C451.756 300.91 444.484 308.354 435.11 314.075C425.805 319.727 415.535 322.553 404.301 322.553ZM448.758 263.208C448.758 253.145 445.311 244.598 438.419 237.568C431.526 230.537 422.635 227.022 411.744 227.022C399.131 227.022 388.723 231.33 380.521 239.946C372.388 248.561 368.321 259.348 368.321 272.306C368.321 282.921 371.699 291.64 378.453 298.464C385.208 305.287 394.031 308.699 404.921 308.699C417.396 308.699 427.804 304.219 436.144 295.258C444.553 286.298 448.758 275.615 448.758 263.208Z" fill="#0B1215"/>
<path d="M336.478 215.753H354.054L290.987 318.728L263.382 364.012H246.943L275.479 316.763L253.043 215.753H269.172L286.748 300.945L336.478 215.753Z" fill="#0B1215"/>
</svg>
