<svg width="1434" height="583" viewBox="0 0 1434 583" fill="none" xmlns="http://www.w3.org/2000/svg">
<path d="M1060.83 152.281C1066.72 152.281 1071.89 151.206 1076.35 149.058C1080.88 146.831 1084.34 143.807 1086.73 139.988H1123.61C1119.55 152.002 1111.83 161.907 1100.45 169.704C1089.16 177.501 1075.95 181.4 1060.83 181.4C1039.75 181.4 1023.2 175.433 1011.19 163.499C999.251 151.564 993.284 135.931 993.284 116.597C993.284 97.5821 999.411 82.1074 1011.66 70.1732C1024 58.2389 1039.79 52.2718 1059.04 52.2718C1078.38 52.2718 1094.13 58.1594 1106.3 69.9345C1118.47 81.7096 1124.56 97.4229 1124.56 117.075V129.009H1032.67C1035.77 144.523 1045.16 152.281 1060.83 152.281ZM1059.52 80.1979C1051.8 80.1979 1045.68 82.2665 1041.14 86.4037C1036.61 90.5409 1033.78 96.508 1032.67 104.305H1086.25C1085.3 96.8262 1082.47 90.9387 1077.78 86.6424C1073.16 82.3461 1067.08 80.1979 1059.52 80.1979Z" fill="#0B1215"/>
<path d="M931.226 178.416V0H971.325V178.416H931.226Z" fill="#0B1215"/>
<path d="M846.852 52.2718C864.594 52.2718 879.273 58.4379 890.889 70.7699C902.584 83.1019 908.432 98.4572 908.432 116.836C908.432 135.215 902.584 150.57 890.889 162.902C879.273 175.234 864.594 181.4 846.852 181.4C837.941 181.4 829.985 179.411 822.983 175.433C816.061 171.375 810.81 166.244 807.23 160.038V178.416H768.683V0H808.781V73.5147C811.646 67.1498 816.419 62.0181 823.103 58.1196C829.865 54.2211 837.782 52.2718 846.852 52.2718ZM838.856 148.104C847.448 148.104 854.489 145.16 859.979 139.272C865.549 133.305 868.333 125.826 868.333 116.836C868.333 107.845 865.549 100.406 859.979 94.5189C854.489 88.5518 847.448 85.5683 838.856 85.5683C830.104 85.5683 822.904 88.5121 817.255 94.3996C811.606 100.208 808.781 107.686 808.781 116.836C808.781 125.985 811.606 133.504 817.255 139.392C822.904 145.2 830.104 148.104 838.856 148.104Z" fill="#0B1215"/>
<path d="M583.225 178.416H543.126V55.2554H582.031V73.5147C584.975 67.3885 589.669 62.3364 596.114 58.3583C602.558 54.3007 609.918 52.2718 618.192 52.2718C636.332 52.2718 648.863 59.3528 655.785 73.5147C659.683 67.0703 665.173 61.9386 672.254 58.1196C679.335 54.2211 687.53 52.2718 696.839 52.2718C711.239 52.2718 722.139 56.7671 729.538 65.7575C736.938 74.6684 740.637 86.7219 740.637 101.918V178.416H700.538V108.482C700.538 94.1609 694.253 87.0004 681.682 87.0004C675.635 87.0004 670.822 88.7905 667.242 92.3708C663.661 95.9511 661.871 100.844 661.871 107.05V178.416H621.772V108.482C621.772 94.1609 615.527 87.0004 603.036 87.0004C596.75 87.0004 591.857 88.8303 588.357 92.4901C584.935 96.15 583.225 101.401 583.225 108.243V178.416Z" fill="#0B1215"/>
<path d="M456.245 152.281C462.132 152.281 467.304 151.206 471.759 149.058C476.294 146.831 479.755 143.807 482.142 139.988H519.019C514.961 152.002 507.244 161.907 495.866 169.704C484.569 177.501 471.362 181.4 456.245 181.4C435.161 181.4 418.612 175.433 406.599 163.499C394.664 151.564 388.697 135.931 388.697 116.597C388.697 97.5821 394.823 82.1074 407.076 70.1732C419.408 58.2389 435.201 52.2718 454.455 52.2718C473.788 52.2718 489.541 58.1594 501.714 69.9345C513.887 81.7096 519.974 97.4229 519.974 117.075V129.009H428.08C431.183 144.523 440.571 152.281 456.245 152.281ZM454.932 80.1979C447.215 80.1979 441.088 82.2665 436.553 86.4037C432.018 90.5409 429.194 96.508 428.08 104.305H481.665C480.71 96.8262 477.886 90.9387 473.191 86.6424C468.577 82.3461 462.49 80.1979 454.932 80.1979Z" fill="#0B1215"/>
<path d="M307.425 139.988C307.823 144.523 309.454 148.064 312.318 150.61C315.183 153.156 319.24 154.429 324.491 154.429C328.947 154.429 332.487 153.355 335.113 151.206C337.818 149.058 339.17 146.313 339.17 142.972C339.17 137.641 335.829 134.141 329.146 132.47L312.318 128.054C300.384 125.11 291.672 120.734 286.182 114.926C280.772 109.039 278.067 101.043 278.067 90.9387C278.067 79.1636 282.483 69.7754 291.314 62.7739C300.225 55.7725 311.204 52.2718 324.253 52.2718C337.619 52.2718 348.2 55.7725 355.998 62.7739C363.874 69.7754 368.369 79.084 369.483 90.7H336.545C336.386 87.5175 335.351 84.8125 333.442 82.5847C331.532 80.357 328.708 79.2432 324.969 79.2432C321.468 79.2432 318.763 80.0786 316.853 81.7493C314.944 83.3406 313.989 85.5683 313.989 88.4325C313.989 93.5244 317.172 96.7864 323.536 98.2186L345.257 104.066C365.147 109.238 375.092 120.894 375.092 139.034C375.092 147.228 372.705 154.628 367.932 161.231C363.238 167.755 357.072 172.768 349.434 176.268C341.875 179.689 333.72 181.4 324.969 181.4C315.739 181.4 307.584 180.047 300.503 177.342C293.502 174.637 287.614 170.142 282.841 163.857C278.067 157.492 275.243 149.536 274.368 139.988H307.425Z" fill="#0B1215"/>
<path d="M194.289 139.988C194.687 144.523 196.318 148.064 199.182 150.61C202.046 153.156 206.104 154.429 211.355 154.429C215.81 154.429 219.351 153.355 221.976 151.206C224.681 149.058 226.034 146.313 226.034 142.972C226.034 137.641 222.692 134.141 216.009 132.47L199.182 128.054C187.248 125.11 178.536 120.734 173.046 114.926C167.636 109.039 164.931 101.043 164.931 90.9387C164.931 79.1636 169.346 69.7754 178.178 62.7739C187.089 55.7725 198.068 52.2718 211.116 52.2718C224.483 52.2718 235.064 55.7725 242.861 62.7739C250.738 69.7754 255.233 79.084 256.347 90.7H223.408C223.249 87.5175 222.215 84.8125 220.306 82.5847C218.396 80.357 215.572 79.2432 211.832 79.2432C208.332 79.2432 205.626 80.0786 203.717 81.7493C201.808 83.3406 200.853 85.5683 200.853 88.4325C200.853 93.5244 204.035 96.7864 210.4 98.2186L232.12 104.066C252.011 109.238 261.956 120.894 261.956 139.034C261.956 147.228 259.569 154.628 254.795 161.231C250.101 167.755 243.935 172.768 236.297 176.268C228.739 179.689 220.584 181.4 211.832 181.4C202.603 181.4 194.448 180.047 187.367 177.342C180.366 174.637 174.478 170.142 169.704 163.857C164.931 157.492 162.106 149.536 161.231 139.988H194.289Z" fill="#0B1215"/>
<path d="M61.5805 52.2718C70.7301 52.2718 78.7658 54.2211 85.6876 58.1196C92.6095 62.0181 97.5025 67.1498 100.367 73.5147V55.2554H139.75V178.416H101.083V160.038C97.4229 166.244 92.1321 171.375 85.2103 175.433C78.368 179.411 70.4914 181.4 61.5805 181.4C43.8383 181.4 29.1195 175.234 17.4239 162.902C5.80798 150.57 0 135.215 0 116.836C0 98.4572 5.80798 83.1019 17.4239 70.7699C29.1195 58.4379 43.8383 52.2718 61.5805 52.2718ZM69.5764 148.104C78.3282 148.104 85.5285 145.2 91.1774 139.392C96.8262 133.504 99.6507 125.985 99.6507 116.836C99.6507 107.686 96.8262 100.208 91.1774 94.3996C85.5285 88.5121 78.3282 85.5683 69.5764 85.5683C60.9838 85.5683 53.9029 88.5518 48.3336 94.5189C42.7643 100.406 39.9796 107.845 39.9796 116.836C39.9796 125.826 42.7643 133.305 48.3336 139.272C53.9029 145.16 60.9838 148.104 69.5764 148.104Z" fill="#0B1215"/>
<path d="M1276.06 373.038H1235.96V249.877H1274.87V268.136C1277.81 262.01 1282.51 256.958 1288.95 252.98C1295.4 248.922 1302.76 246.893 1311.03 246.893C1329.17 246.893 1341.7 253.974 1348.62 268.136C1352.52 261.692 1358.01 256.56 1365.09 252.741C1372.17 248.842 1380.37 246.893 1389.68 246.893C1404.08 246.893 1414.98 251.388 1422.38 260.379C1429.78 269.29 1433.48 281.343 1433.48 296.539V373.038H1393.38V303.103C1393.38 288.782 1387.09 281.622 1374.52 281.622C1368.47 281.622 1363.66 283.412 1360.08 286.992C1356.5 290.572 1354.71 295.465 1354.71 301.671V373.038H1314.61V303.103C1314.61 288.782 1308.37 281.622 1295.87 281.622C1289.59 281.622 1284.7 283.452 1281.2 287.111C1277.77 290.771 1276.06 296.022 1276.06 302.865V373.038Z" fill="#0B1215"/>
<path d="M1128.44 246.893C1137.59 246.893 1145.62 248.842 1152.54 252.741C1159.47 256.639 1164.36 261.771 1167.22 268.136V249.877H1206.61V373.038H1167.94V354.659C1164.28 360.865 1158.99 365.997 1152.07 370.054C1145.23 374.032 1137.35 376.021 1128.44 376.021C1110.7 376.021 1095.98 369.855 1084.28 357.523C1072.67 345.191 1066.86 329.836 1066.86 311.457C1066.86 293.079 1072.67 277.723 1084.28 265.391C1095.98 253.059 1110.7 246.893 1128.44 246.893ZM1136.43 342.725C1145.19 342.725 1152.39 339.821 1158.03 334.013C1163.68 328.125 1166.51 320.607 1166.51 311.457C1166.51 302.308 1163.68 294.829 1158.03 289.021C1152.39 283.133 1145.19 280.19 1136.43 280.19C1127.84 280.19 1120.76 283.173 1115.19 289.14C1109.62 295.028 1106.84 302.467 1106.84 311.457C1106.84 320.448 1109.62 327.926 1115.19 333.894C1120.76 339.781 1127.84 342.725 1136.43 342.725Z" fill="#0B1215"/>
<path d="M986.54 346.902C992.427 346.902 997.599 345.828 1002.05 343.68C1006.59 341.452 1010.05 338.429 1012.44 334.61H1049.31C1045.26 346.623 1037.54 356.529 1026.16 364.326C1014.86 372.123 1001.66 376.021 986.54 376.021C965.456 376.021 948.907 370.054 936.894 358.12C924.959 346.186 918.992 330.552 918.992 311.219C918.992 292.203 925.118 276.729 937.371 264.794C949.703 252.86 965.496 246.893 984.75 246.893C1004.08 246.893 1019.84 252.781 1032.01 264.556C1044.18 276.331 1050.27 292.044 1050.27 311.696V323.63H958.375C961.478 339.145 970.866 346.902 986.54 346.902ZM985.227 274.819C977.51 274.819 971.383 276.888 966.848 281.025C962.313 285.162 959.489 291.129 958.375 298.926H1011.96C1011.01 291.448 1008.18 285.56 1003.49 281.264C998.872 276.967 992.785 274.819 985.227 274.819Z" fill="#0B1215"/>
<path d="M891.305 342.725C895.601 342.725 899.858 342.088 904.074 340.815V372.56C901.926 373.436 898.465 374.231 893.692 374.947C888.918 375.663 884.463 376.021 880.325 376.021C865.925 376.021 855.144 372.083 847.984 364.206C840.903 356.33 837.362 345.35 837.362 331.268V282.815H816V249.877H837.362V213H877.342V249.877H905.268V282.815H877.342V328.762C877.342 338.071 881.996 342.725 891.305 342.725Z" fill="#0B1215"/>
<path d="M907.37 540.927C907.768 545.462 909.399 549.002 912.263 551.548C915.127 554.094 919.185 555.367 924.436 555.367C928.891 555.367 932.432 554.293 935.057 552.145C937.762 549.997 939.115 547.252 939.115 543.91C939.115 538.58 935.773 535.079 929.09 533.408L912.263 528.992C900.329 526.049 891.617 521.673 886.127 515.865C880.717 509.977 878.012 501.981 878.012 491.877C878.012 480.102 882.427 470.714 891.259 463.712C900.169 456.711 911.149 453.21 924.197 453.21C937.563 453.21 948.145 456.711 955.942 463.712C963.819 470.714 968.314 480.022 969.428 491.638H936.489C936.33 488.456 935.296 485.751 933.386 483.523C931.477 481.295 928.652 480.181 924.913 480.181C921.412 480.181 918.707 481.017 916.798 482.688C914.888 484.279 913.934 486.507 913.934 489.371C913.934 494.463 917.116 497.725 923.481 499.157L945.201 505.005C965.092 510.176 975.037 521.832 975.037 539.972C975.037 548.167 972.65 555.566 967.876 562.169C963.182 568.694 957.016 573.706 949.378 577.207C941.82 580.628 933.665 582.338 924.913 582.338C915.684 582.338 907.529 580.986 900.448 578.281C893.447 575.576 887.559 571.08 882.785 564.795C878.012 558.43 875.187 550.474 874.312 540.927H907.37Z" fill="#0B1215"/>
<path d="M812.851 456.194H852.95V579.355H814.044V560.976C811.1 567.102 806.327 572.194 799.723 576.252C793.199 580.309 785.76 582.338 777.406 582.338C763.085 582.338 752.225 577.883 744.826 568.972C737.427 559.982 733.727 547.888 733.727 532.692V456.194H773.826V526.606C773.826 540.927 780.151 548.087 792.801 548.087C799.166 548.087 804.099 546.257 807.6 542.597C811.1 538.858 812.851 533.607 812.851 526.844V456.194Z" fill="#0B1215"/>
<path d="M567.841 579.355H527.743V400.938H567.841V473.26C570.706 467.213 575.36 462.36 581.804 458.7C588.249 455.04 595.569 453.21 603.763 453.21C618.084 453.21 629.024 457.705 636.583 466.696C644.141 475.686 647.92 487.74 647.92 502.856V579.355H607.94V509.42C607.94 502.817 606.309 497.605 603.047 493.786C599.865 489.888 594.972 487.939 588.368 487.939C582.242 487.939 577.269 489.808 573.451 493.548C569.711 497.208 567.841 502.419 567.841 509.182V579.355Z" fill="#0B1215"/>
<path d="M492.656 549.042C496.952 549.042 501.209 548.405 505.426 547.132V578.877C503.277 579.753 499.816 580.548 495.043 581.264C490.269 581.98 485.814 582.338 481.676 582.338C467.276 582.338 456.495 578.4 449.335 570.523C442.254 562.647 438.713 551.667 438.713 537.585V489.132H417.351V456.194H438.713V419.317H478.693V456.194H506.619V489.132H478.693V535.079C478.693 544.388 483.347 549.042 492.656 549.042Z" fill="#0B1215"/>
<path d="M359.709 579.355V456.194H399.808V579.355H359.709ZM402.791 419.556C402.791 426 400.564 431.41 396.108 435.786C391.732 440.083 386.282 442.231 379.758 442.231C373.393 442.231 367.983 440.083 363.528 435.786C359.072 431.41 356.845 426 356.845 419.556C356.845 413.27 359.072 407.94 363.528 403.564C367.983 399.188 373.393 397 379.758 397C386.282 397 391.732 399.188 396.108 403.564C400.564 407.86 402.791 413.191 402.791 419.556Z" fill="#0B1215"/>
<path d="M286.433 531.737L305.886 456.194H344.791L305.886 579.355H271.754L242.396 503.573L213.037 579.355H178.786L140 456.194H178.786L198.358 531.737L226.046 456.194H258.745L286.433 531.737Z" fill="#0B1215"/>
<path d="M780.659 270.288C778.192 269.652 774.851 269.333 770.634 269.333C758.7 269.333 748.754 273.51 740.798 281.864C732.842 290.139 727.392 301.755 724.448 316.712L713.111 373.161H694.136L718.004 252.864H736.383L729.819 285.445C733.081 274.783 738.61 266.429 746.407 260.383C754.284 254.257 763.314 251.193 773.498 251.193C777.715 251.193 781.216 251.671 784 252.626L780.659 270.288Z" fill="#0B1215"/>
<path d="M660.004 252.864H679.098L655.111 373.161H636.732L641.386 349.651C637.727 357.766 632.157 364.21 624.678 368.984C617.279 373.758 608.368 376.145 597.946 376.145C585.136 376.145 574.953 371.808 567.394 363.136C559.836 354.385 556.057 343.564 556.057 330.675C556.057 327.413 556.494 323.236 557.37 318.144L570.258 252.864H589.353L576.584 316.712C575.629 321.406 575.151 325.822 575.151 329.959C575.151 339.109 577.578 346.23 582.431 351.321C587.285 356.413 594.724 358.959 604.748 358.959C615.171 358.959 624.201 355.061 631.839 347.264C639.556 339.467 644.609 329.601 646.995 317.667L660.004 252.864Z" fill="#0B1215"/>
<path d="M459.986 376.145C442.722 376.145 428.4 370.734 417.023 359.914C405.725 349.014 400.077 335.33 400.077 318.86C400.077 306.369 402.981 294.873 408.789 284.371C414.676 273.868 422.951 265.514 433.612 259.309C444.273 253.103 456.167 250 469.295 250C486.401 250 500.722 255.41 512.258 266.231C523.874 277.051 529.682 290.537 529.682 306.687C529.682 318.701 526.699 329.999 520.731 340.581C514.764 351.162 506.371 359.755 495.55 366.359C484.81 372.883 472.955 376.145 459.986 376.145ZM511.303 307.642C511.303 296.026 507.325 286.161 499.369 278.045C491.413 269.93 481.15 265.872 468.579 265.872C454.019 265.872 442.005 270.845 432.538 280.79C423.149 290.735 418.455 303.187 418.455 318.144C418.455 330.397 422.354 340.461 430.151 348.338C437.948 356.214 448.132 360.153 460.702 360.153C475.103 360.153 487.117 354.981 496.744 344.638C506.45 334.295 511.303 321.963 511.303 307.642Z" fill="#0B1215"/>
<path d="M381.698 252.864H401.986L329.187 371.729L297.323 424.001H278.348L311.286 369.461L285.389 252.864H304.006L324.294 351.202L381.698 252.864Z" fill="#0B1215"/>
</svg>
