<svg width="1477" height="582" viewBox="0 0 1477 582" fill="none" xmlns="http://www.w3.org/2000/svg">
<path d="M827.637 270.093C825.172 269.457 821.832 269.139 817.618 269.139C805.69 269.139 795.751 273.313 787.799 281.662C779.848 289.932 774.401 301.541 771.459 316.49L760.128 372.906H741.164L765.018 252.679H783.386L776.826 285.241C780.086 274.585 785.613 266.236 793.405 260.193C801.277 254.07 810.302 251.009 820.48 251.009C824.694 251.009 828.193 251.486 830.976 252.44L827.637 270.093Z" fill="#0B1215"/>
<path d="M707.051 252.679H726.135L702.161 372.906H683.793L688.445 349.409C684.787 357.52 679.221 363.961 671.747 368.732C664.352 373.503 655.446 375.888 645.029 375.888C632.227 375.888 622.05 371.554 614.496 362.887C606.942 354.141 603.165 343.326 603.165 330.445C603.165 327.185 603.602 323.01 604.477 317.921L617.358 252.679H636.442L623.68 316.49C622.725 321.181 622.248 325.595 622.248 329.729C622.248 338.874 624.674 345.99 629.524 351.079C634.374 356.168 641.809 358.713 651.828 358.713C662.245 358.713 671.27 354.816 678.903 347.024C686.616 339.231 691.665 329.372 694.051 317.444L707.051 252.679Z" fill="#0B1215"/>
<path d="M507.15 375.888C489.895 375.888 475.582 370.481 464.212 359.667C452.92 348.773 447.275 335.097 447.275 318.637C447.275 306.153 450.177 294.663 455.982 284.167C461.866 273.671 470.135 265.322 480.79 259.12C491.446 252.918 503.333 249.816 516.453 249.816C533.549 249.816 547.862 255.223 559.391 266.038C571.001 276.852 576.805 290.329 576.805 306.471C576.805 318.478 573.823 329.769 567.86 340.345C561.896 350.92 553.507 359.508 542.693 366.108C531.959 372.628 520.111 375.888 507.15 375.888ZM558.437 307.425C558.437 295.816 554.461 285.956 546.51 277.846C538.558 269.735 528.301 265.68 515.737 265.68C501.186 265.68 489.179 270.649 479.717 280.589C470.334 290.528 465.643 302.972 465.643 317.921C465.643 330.167 469.539 340.225 477.332 348.097C485.124 355.969 495.302 359.905 507.865 359.905C522.258 359.905 534.265 354.737 543.886 344.4C553.587 334.063 558.437 321.738 558.437 307.425Z" fill="#0B1215"/>
<path d="M428.907 252.679H449.183L376.427 371.475L344.581 423.717H325.616L358.536 369.209L332.653 252.679H351.26L371.536 350.96L428.907 252.679Z" fill="#0B1215"/>
<path d="M1060.22 152.192C1066.1 152.192 1071.27 151.119 1075.72 148.972C1080.26 146.746 1083.72 143.724 1086.1 139.907H1122.96C1118.9 151.914 1111.19 161.814 1099.82 169.606C1088.53 177.399 1075.33 181.295 1060.22 181.295C1039.15 181.295 1022.61 175.331 1010.6 163.404C998.673 151.477 992.71 135.852 992.71 116.53C992.71 97.5256 998.832 82.0599 1011.08 70.1326C1023.4 58.2053 1039.19 52.2416 1058.43 52.2416C1077.75 52.2416 1093.5 58.1257 1105.66 69.894C1117.83 81.6623 1123.91 97.3666 1123.91 117.007V128.934H1032.07C1035.17 144.44 1044.55 152.192 1060.22 152.192ZM1058.91 80.1515C1051.19 80.1515 1045.07 82.2189 1040.54 86.3537C1036.01 90.4885 1033.18 96.4522 1032.07 104.245H1085.62C1084.67 96.7702 1081.85 90.8861 1077.16 86.5922C1072.54 82.2984 1066.46 80.1515 1058.91 80.1515Z" fill="#0B1215"/>
<path d="M930.688 178.313V0H970.763V178.313H930.688Z" fill="#0B1215"/>
<path d="M846.362 52.2416C864.094 52.2416 878.764 58.404 890.373 70.7289C902.062 83.0538 907.907 98.4003 907.907 116.768C907.907 135.136 902.062 150.483 890.373 162.808C878.764 175.133 864.094 181.295 846.362 181.295C837.456 181.295 829.504 179.307 822.507 175.331C815.589 171.276 810.341 166.147 806.763 159.945V178.313H768.238V0H808.314V73.4722C811.176 67.111 815.947 61.9822 822.626 58.086C829.385 54.1897 837.297 52.2416 846.362 52.2416ZM838.37 148.018C846.958 148.018 853.995 145.076 859.482 139.192C865.048 133.228 867.831 125.754 867.831 116.768C867.831 107.783 865.048 100.348 859.482 94.4643C853.995 88.5006 846.958 85.5188 838.37 85.5188C829.624 85.5188 822.428 88.4609 816.782 94.345C811.136 100.15 808.314 107.624 808.314 116.768C808.314 125.913 811.136 133.427 816.782 139.311C822.428 145.116 829.624 148.018 838.37 148.018Z" fill="#0B1215"/>
<path d="M582.887 178.313H542.812V55.2234H581.695V73.4722C584.637 67.3495 589.328 62.3003 595.769 58.3245C602.21 54.2692 609.565 52.2416 617.834 52.2416C635.964 52.2416 648.488 59.3185 655.405 73.4722C659.302 67.0315 664.788 61.9027 671.865 58.086C678.942 54.1897 687.132 52.2416 696.435 52.2416C710.828 52.2416 721.721 56.7342 729.116 65.7195C736.511 74.6252 740.209 86.6718 740.209 101.859V178.313H700.133V108.419C700.133 94.1064 693.851 86.9501 681.288 86.9501C675.245 86.9501 670.434 88.7392 666.856 92.3174C663.278 95.8955 661.488 100.786 661.488 106.988V178.313H621.413V108.419C621.413 94.1064 615.171 86.9501 602.687 86.9501C596.405 86.9501 591.515 88.7789 588.016 92.4366C584.597 96.0943 582.887 101.342 582.887 108.181V178.313Z" fill="#0B1215"/>
<path d="M455.981 152.192C461.865 152.192 467.034 151.119 471.486 148.972C476.019 146.746 479.478 143.724 481.863 139.907H518.719C514.663 151.914 506.95 161.814 495.58 169.606C484.288 177.399 471.089 181.295 455.981 181.295C434.909 181.295 418.37 175.331 406.363 163.404C394.436 151.477 388.472 135.852 388.472 116.53C388.472 97.5256 394.595 82.0599 406.84 70.1326C419.165 58.2053 434.949 52.2416 454.192 52.2416C473.514 52.2416 489.258 58.1257 501.424 69.894C513.59 81.6623 519.673 97.3666 519.673 117.007V128.934H427.832C430.934 144.44 440.316 152.192 455.981 152.192ZM454.669 80.1515C446.956 80.1515 440.833 82.2189 436.301 86.3537C431.768 90.4885 428.946 96.4522 427.832 104.245H481.386C480.432 96.7702 477.609 90.8861 472.918 86.5922C468.306 82.2984 462.223 80.1515 454.669 80.1515Z" fill="#0B1215"/>
<path d="M307.247 139.907C307.645 144.44 309.275 147.978 312.138 150.523C315 153.067 319.055 154.339 324.303 154.339C328.756 154.339 332.295 153.266 334.919 151.119C337.622 148.972 338.974 146.229 338.974 142.889C338.974 137.562 335.634 134.063 328.955 132.393L312.138 127.98C300.21 125.038 291.503 120.665 286.017 114.86C280.61 108.976 277.906 100.985 277.906 90.8861C277.906 79.1178 282.319 69.735 291.146 62.7376C300.051 55.7403 311.024 52.2416 324.065 52.2416C337.423 52.2416 347.999 55.7403 355.792 62.7376C363.664 69.735 368.156 79.0383 369.269 90.6475H336.35C336.191 87.4669 335.157 84.7634 333.249 82.537C331.341 80.3105 328.518 79.1973 324.781 79.1973C321.282 79.1973 318.578 80.0322 316.67 81.702C314.762 83.2924 313.807 85.5188 313.807 88.3813C313.807 93.4703 316.988 96.7305 323.349 98.1617L345.057 104.006C364.936 109.175 374.875 120.824 374.875 138.953C374.875 147.143 372.49 154.538 367.719 161.138C363.027 167.658 356.865 172.668 349.232 176.166C341.678 179.585 333.527 181.295 324.781 181.295C315.557 181.295 307.406 179.943 300.33 177.24C293.332 174.536 287.448 170.044 282.677 163.762C277.906 157.401 275.083 149.449 274.209 139.907H307.247Z" fill="#0B1215"/>
<path d="M194.177 139.907C194.574 144.44 196.204 147.978 199.067 150.523C201.929 153.067 205.985 154.339 211.233 154.339C215.685 154.339 219.224 153.266 221.848 151.119C224.551 148.972 225.903 146.229 225.903 142.889C225.903 137.562 222.564 134.063 215.884 132.393L199.067 127.98C187.139 125.038 178.432 120.665 172.946 114.86C167.539 108.976 164.835 100.985 164.835 90.8861C164.835 79.1178 169.248 69.735 178.075 62.7376C186.98 55.7403 197.954 52.2416 210.994 52.2416C224.353 52.2416 234.928 55.7403 242.721 62.7376C250.593 69.735 255.085 79.0383 256.199 90.6475H223.279C223.12 87.4669 222.086 84.7634 220.178 82.537C218.27 80.3105 215.447 79.1973 211.71 79.1973C208.211 79.1973 205.507 80.0322 203.599 81.702C201.691 83.2924 200.737 85.5188 200.737 88.3813C200.737 93.4703 203.917 96.7305 210.278 98.1617L231.986 104.006C251.865 109.175 261.804 120.824 261.804 138.953C261.804 147.143 259.419 154.538 254.648 161.138C249.957 167.658 243.794 172.668 236.161 176.166C228.607 179.585 220.456 181.295 211.71 181.295C202.486 181.295 194.336 179.943 187.259 177.24C180.261 174.536 174.377 170.044 169.606 163.762C164.835 157.401 162.013 149.449 161.138 139.907H194.177Z" fill="#0B1215"/>
<path d="M61.5449 52.2416C70.6892 52.2416 78.7202 54.1897 85.6381 58.086C92.5559 61.9822 97.4461 67.111 100.309 73.4722V55.2234H139.669V178.313H101.024V159.945C97.3666 166.147 92.0788 171.276 85.161 175.331C78.3226 179.307 70.4506 181.295 61.5449 181.295C43.813 181.295 29.1026 175.133 17.4139 162.808C5.80462 150.483 0 135.136 0 116.768C0 98.4003 5.80462 83.0538 17.4139 70.7289C29.1026 58.404 43.813 52.2416 61.5449 52.2416ZM69.5362 148.018C78.2829 148.018 85.479 145.116 91.1246 139.311C96.7702 133.427 99.593 125.913 99.593 116.768C99.593 107.624 96.7702 100.15 91.1246 94.345C85.479 88.4609 78.2829 85.5188 69.5362 85.5188C60.9485 85.5188 53.8717 88.5006 48.3056 94.4643C42.7395 100.348 39.9565 107.783 39.9565 116.768C39.9565 125.754 42.7395 133.228 48.3056 139.192C53.8717 145.076 60.9485 148.018 69.5362 148.018Z" fill="#0B1215"/>
<path d="M1318.8 372.776H1278.72V249.686H1317.6V267.935C1320.55 261.813 1325.24 256.763 1331.68 252.788C1338.12 248.732 1345.48 246.705 1353.74 246.705C1371.87 246.705 1384.4 253.781 1391.32 267.935C1395.21 261.494 1400.7 256.366 1407.78 252.549C1414.85 248.653 1423.04 246.705 1432.35 246.705C1446.74 246.705 1457.63 251.197 1465.03 260.182C1472.42 269.088 1476.12 281.135 1476.12 296.322V372.776H1436.04V302.882C1436.04 288.569 1429.76 281.413 1417.2 281.413C1411.15 281.413 1406.34 283.202 1402.77 286.78C1399.19 290.359 1397.4 295.249 1397.4 301.451V372.776H1357.32V302.882C1357.32 288.569 1351.08 281.413 1338.6 281.413C1332.32 281.413 1327.43 283.242 1323.93 286.9C1320.51 290.557 1318.8 295.805 1318.8 302.644V372.776Z" fill="#0B1215"/>
<path d="M1171.26 246.705C1180.4 246.705 1188.43 248.653 1195.35 252.549C1202.27 256.445 1207.16 261.574 1210.02 267.935V249.686H1249.38V372.776H1210.74V354.408C1207.08 360.61 1201.79 365.739 1194.87 369.794C1188.03 373.77 1180.16 375.758 1171.26 375.758C1153.52 375.758 1138.81 369.596 1127.13 357.271C1115.52 344.946 1109.71 329.599 1109.71 311.231C1109.71 292.863 1115.52 277.517 1127.13 265.192C1138.81 252.867 1153.52 246.705 1171.26 246.705ZM1179.25 342.481C1187.99 342.481 1195.19 339.579 1200.84 333.774C1206.48 327.89 1209.3 320.376 1209.3 311.231C1209.3 302.087 1206.48 294.613 1200.84 288.808C1195.19 282.924 1187.99 279.982 1179.25 279.982C1170.66 279.982 1163.58 282.964 1158.02 288.927C1152.45 294.811 1149.67 302.246 1149.67 311.231C1149.67 320.217 1152.45 327.691 1158.02 333.655C1163.58 339.539 1170.66 342.481 1179.25 342.481Z" fill="#0B1215"/>
<path d="M1029.44 346.655C1035.33 346.655 1040.49 345.582 1044.95 343.435C1049.48 341.209 1052.94 338.187 1055.32 334.37H1092.18C1088.12 346.377 1080.41 356.277 1069.04 364.069C1057.75 371.862 1044.55 375.758 1029.44 375.758C1008.37 375.758 991.83 369.794 979.824 357.867C967.896 345.94 961.933 330.315 961.933 310.993C961.933 291.989 968.055 276.523 980.301 264.596C992.626 252.668 1008.41 246.705 1027.65 246.705C1046.97 246.705 1062.72 252.589 1074.88 264.357C1087.05 276.125 1093.13 291.83 1093.13 311.47V323.397H1001.29C1004.39 338.903 1013.78 346.655 1029.44 346.655ZM1028.13 274.615C1020.42 274.615 1014.29 276.682 1009.76 280.817C1005.23 284.951 1002.41 290.915 1001.29 298.708H1054.85C1053.89 291.233 1051.07 285.349 1046.38 281.055C1041.77 276.761 1035.68 274.615 1028.13 274.615Z" fill="#0B1215"/>
<path d="M934.261 342.481C938.555 342.481 942.809 341.845 947.024 340.573V372.299C944.877 373.174 941.418 373.969 936.647 374.685C931.876 375.4 927.423 375.758 923.288 375.758C908.896 375.758 898.122 371.822 890.965 363.95C883.888 356.078 880.35 345.105 880.35 331.031V282.606H859V249.686H880.35V212.831H920.306V249.686H948.216V282.606H920.306V328.526C920.306 337.829 924.958 342.481 934.261 342.481Z" fill="#0B1215"/>
<path d="M940.926 540.394C941.323 544.926 942.953 548.465 945.816 551.009C948.679 553.554 952.734 554.826 957.982 554.826C962.435 554.826 965.973 553.753 968.597 551.606C971.301 549.459 972.652 546.716 972.652 543.376C972.652 538.048 969.313 534.55 962.633 532.88L945.816 528.467C933.889 525.525 925.182 521.151 919.695 515.347C914.288 509.463 911.585 501.471 911.585 491.373C911.585 479.605 915.998 470.222 924.824 463.224C933.73 456.227 944.703 452.728 957.743 452.728C971.102 452.728 981.677 456.227 989.47 463.224C997.342 470.222 1001.83 479.525 1002.95 491.134H970.028C969.869 487.954 968.836 485.25 966.927 483.024C965.019 480.797 962.196 479.684 958.459 479.684C954.96 479.684 952.257 480.519 950.348 482.189C948.44 483.779 947.486 486.006 947.486 488.868C947.486 493.957 950.666 497.217 957.028 498.649L978.735 504.493C998.614 509.661 1008.55 521.31 1008.55 539.44C1008.55 547.63 1006.17 555.025 1001.4 561.625C996.706 568.145 990.543 573.154 982.91 576.653C975.356 580.072 967.206 581.782 958.459 581.782C949.235 581.782 941.085 580.43 934.008 577.727C927.011 575.023 921.126 570.53 916.356 564.249C911.585 557.887 908.762 549.936 907.887 540.394H940.926Z" fill="#0B1215"/>
<path d="M846.462 455.71H886.537V578.8H847.654V560.432C844.712 566.555 839.941 571.644 833.341 575.699C826.821 579.754 819.387 581.782 811.037 581.782C796.725 581.782 785.871 577.329 778.476 568.423C771.081 559.438 767.383 547.352 767.383 532.164V455.71H807.459V526.081C807.459 540.394 813.781 547.55 826.424 547.55C832.785 547.55 837.715 545.722 841.214 542.064C844.712 538.327 846.462 533.079 846.462 526.32V455.71Z" fill="#0B1215"/>
<path d="M601.594 578.8H561.518V400.487H601.594V472.766C604.456 466.723 609.108 461.873 615.549 458.215C621.99 454.557 629.305 452.728 637.495 452.728C651.808 452.728 662.741 457.221 670.295 466.206C677.849 475.191 681.626 487.238 681.626 502.346V578.8H641.67V508.906C641.67 502.306 640.04 497.098 636.779 493.281C633.599 489.385 628.709 487.437 622.109 487.437C615.986 487.437 611.016 489.305 607.2 493.043C603.463 496.7 601.594 501.909 601.594 508.667V578.8Z" fill="#0B1215"/>
<path d="M526.452 548.505C530.746 548.505 535 547.869 539.214 546.596V578.323C537.067 579.198 533.608 579.993 528.837 580.708C524.066 581.424 519.614 581.782 515.479 581.782C501.086 581.782 490.312 577.846 483.156 569.974C476.079 562.102 472.54 551.129 472.54 537.054V488.63H451.191V455.71H472.54V418.855H512.497V455.71H540.407V488.63H512.497V534.55C512.497 543.853 517.149 548.505 526.452 548.505Z" fill="#0B1215"/>
<path d="M393.582 578.8V455.71H433.657V578.8H393.582ZM436.639 419.093C436.639 425.534 434.413 430.941 429.96 435.315C425.587 439.608 420.14 441.755 413.62 441.755C407.258 441.755 401.851 439.608 397.398 435.315C392.946 430.941 390.719 425.534 390.719 419.093C390.719 412.812 392.946 407.484 397.398 403.111C401.851 398.737 407.258 396.551 413.62 396.551C420.14 396.551 425.587 398.737 429.96 403.111C434.413 407.405 436.639 412.732 436.639 419.093Z" fill="#0B1215"/>
<path d="M320.348 531.21L339.79 455.71H378.673L339.79 578.8H305.677L276.336 503.062L246.995 578.8H212.764L174 455.71H212.764L232.325 531.21L259.996 455.71H292.677L320.348 531.21Z" fill="#0B1215"/>
</svg>
