<svg width="1185" height="475" viewBox="0 0 1185 475" fill="none" xmlns="http://www.w3.org/2000/svg">
<path d="M747.93 440.773C748.255 444.484 749.59 447.382 751.934 449.465C754.277 451.548 757.598 452.59 761.895 452.59C765.54 452.59 768.438 451.711 770.586 449.953C772.799 448.195 773.906 445.949 773.906 443.215C773.906 438.853 771.172 435.988 765.703 434.621L751.934 431.008C742.168 428.599 735.039 425.018 730.547 420.266C726.12 415.448 723.906 408.905 723.906 400.637C723.906 391.001 727.52 383.319 734.746 377.59C742.038 371.861 751.022 368.996 761.699 368.996C772.637 368.996 781.296 371.861 787.676 377.59C794.121 383.319 797.799 390.936 798.711 400.441H771.758C771.628 397.837 770.781 395.624 769.219 393.801C767.656 391.978 765.345 391.066 762.285 391.066C759.421 391.066 757.207 391.75 755.645 393.117C754.082 394.419 753.301 396.242 753.301 398.586C753.301 402.753 755.905 405.422 761.113 406.594L778.887 411.379C795.163 415.611 803.301 425.148 803.301 439.992C803.301 446.698 801.348 452.753 797.441 458.156C793.6 463.495 788.555 467.596 782.305 470.461C776.12 473.26 769.447 474.66 762.285 474.66C754.733 474.66 748.06 473.553 742.266 471.34C736.536 469.126 731.719 465.448 727.812 460.305C723.906 455.096 721.595 448.586 720.879 440.773H747.93Z" fill="#0B1215"/>
<path d="M670.586 371.438H703.398V472.219H671.562V457.18C669.154 462.193 665.247 466.359 659.844 469.68C654.505 473 648.418 474.66 641.582 474.66C629.863 474.66 620.977 471.014 614.922 463.723C608.867 456.366 605.84 446.47 605.84 434.035V371.438H638.652V429.055C638.652 440.773 643.828 446.633 654.18 446.633C659.388 446.633 663.424 445.135 666.289 442.141C669.154 439.081 670.586 434.784 670.586 429.25V371.438Z" fill="#0B1215"/>
<path d="M470.098 472.219H437.285V326.223H470.098V385.402C472.441 380.454 476.25 376.483 481.523 373.488C486.797 370.493 492.786 368.996 499.492 368.996C511.211 368.996 520.163 372.674 526.348 380.031C532.533 387.388 535.625 397.251 535.625 409.621V472.219H502.91V414.992C502.91 409.589 501.576 405.324 498.906 402.199C496.302 399.009 492.298 397.414 486.895 397.414C481.882 397.414 477.812 398.944 474.688 402.004C471.628 404.999 470.098 409.263 470.098 414.797V472.219Z" fill="#0B1215"/>
<path d="M408.574 447.414C412.09 447.414 415.573 446.893 419.023 445.852V471.828C417.266 472.544 414.434 473.195 410.527 473.781C406.621 474.367 402.975 474.66 399.59 474.66C387.806 474.66 378.984 471.438 373.125 464.992C367.331 458.547 364.434 449.562 364.434 438.039V398.391H346.953V371.438H364.434V341.262H397.148V371.438H420V398.391H397.148V435.988C397.148 443.605 400.957 447.414 408.574 447.414Z" fill="#0B1215"/>
<path d="M299.785 472.219V371.438H332.598V472.219H299.785ZM335.039 341.457C335.039 346.73 333.216 351.158 329.57 354.738C325.99 358.254 321.53 360.012 316.191 360.012C310.983 360.012 306.556 358.254 302.91 354.738C299.264 351.158 297.441 346.73 297.441 341.457C297.441 336.314 299.264 331.952 302.91 328.371C306.556 324.79 310.983 323 316.191 323C321.53 323 325.99 324.79 329.57 328.371C333.216 331.887 335.039 336.249 335.039 341.457Z" fill="#0B1215"/>
<path d="M239.824 433.254L255.742 371.438H287.578L255.742 472.219H227.812L203.789 410.207L179.766 472.219H151.738L120 371.438H151.738L167.754 433.254L190.41 371.438H217.168L239.824 433.254Z" fill="#0B1215"/>
<path d="M1055.46 303.957H1022.65V203.176H1054.49V218.117C1056.9 213.104 1060.74 208.97 1066.01 205.715C1071.29 202.395 1077.31 200.734 1084.08 200.734C1098.92 200.734 1109.18 206.529 1114.84 218.117C1118.03 212.844 1122.52 208.645 1128.32 205.52C1134.11 202.329 1140.82 200.734 1148.43 200.734C1160.22 200.734 1169.14 204.413 1175.19 211.77C1181.25 219.061 1184.27 228.924 1184.27 241.359V303.957H1151.46V246.73C1151.46 235.012 1146.32 229.152 1136.03 229.152C1131.08 229.152 1127.14 230.617 1124.21 233.547C1121.29 236.477 1119.82 240.48 1119.82 245.559V303.957H1087.01V246.73C1087.01 235.012 1081.9 229.152 1071.68 229.152C1066.53 229.152 1062.53 230.65 1059.66 233.645C1056.86 236.639 1055.46 240.936 1055.46 246.535V303.957Z" fill="#0B1215"/>
<path d="M934.664 200.734C942.151 200.734 948.727 202.329 954.391 205.52C960.055 208.71 964.059 212.909 966.402 218.117V203.176H998.629V303.957H966.988V288.918C963.993 293.996 959.664 298.195 954 301.516C948.401 304.771 941.956 306.398 934.664 306.398C920.146 306.398 908.102 301.353 898.531 291.262C889.026 281.171 884.273 268.605 884.273 253.566C884.273 238.527 889.026 225.962 898.531 215.871C908.102 205.78 920.146 200.734 934.664 200.734ZM941.207 279.152C948.368 279.152 954.26 276.776 958.883 272.023C963.505 267.206 965.816 261.053 965.816 253.566C965.816 246.079 963.505 239.96 958.883 235.207C954.26 230.389 948.368 227.98 941.207 227.98C934.176 227.98 928.382 230.422 923.824 235.305C919.267 240.122 916.988 246.21 916.988 253.566C916.988 260.923 919.267 267.043 923.824 271.926C928.382 276.743 934.176 279.152 941.207 279.152Z" fill="#0B1215"/>
<path d="M818.551 282.57C823.368 282.57 827.6 281.691 831.246 279.934C834.957 278.111 837.789 275.637 839.742 272.512H869.918C866.598 282.342 860.283 290.448 850.973 296.828C841.728 303.208 830.921 306.398 818.551 306.398C801.298 306.398 787.757 301.516 777.926 291.75C768.16 281.984 763.277 269.191 763.277 253.371C763.277 237.811 768.29 225.148 778.316 215.383C788.408 205.617 801.331 200.734 817.086 200.734C832.906 200.734 845.797 205.552 855.758 215.188C865.719 224.823 870.699 237.681 870.699 253.762V263.527H795.504C798.043 276.223 805.725 282.57 818.551 282.57ZM817.477 223.586C811.161 223.586 806.148 225.279 802.438 228.664C798.727 232.049 796.415 236.932 795.504 243.312H839.352C838.57 237.193 836.259 232.375 832.418 228.859C828.642 225.344 823.661 223.586 817.477 223.586Z" fill="#0B1215"/>
<path d="M740.621 279.152C744.137 279.152 747.62 278.632 751.07 277.59V303.566C749.312 304.283 746.48 304.934 742.574 305.52C738.668 306.105 735.022 306.398 731.637 306.398C719.853 306.398 711.031 303.176 705.172 296.73C699.378 290.285 696.48 281.301 696.48 269.777V230.129H679V203.176H696.48V173H729.195V203.176H752.047V230.129H729.195V267.727C729.195 275.344 733.004 279.152 740.621 279.152Z" fill="#0B1215"/>
<path d="M868.066 124.609C872.884 124.609 877.116 123.73 880.762 121.973C884.473 120.15 887.305 117.676 889.258 114.551H919.434C916.113 124.382 909.798 132.487 900.488 138.867C891.243 145.247 880.436 148.438 868.066 148.438C850.814 148.438 837.272 143.555 827.441 133.789C817.676 124.023 812.793 111.23 812.793 95.4102C812.793 79.8503 817.806 67.1875 827.832 57.4219C837.923 47.6562 850.846 42.7734 866.602 42.7734C882.422 42.7734 895.312 47.5911 905.273 57.2266C915.234 66.862 920.215 79.7201 920.215 95.8008V105.566H845.02C847.559 118.262 855.241 124.609 868.066 124.609ZM866.992 65.625C860.677 65.625 855.664 67.3177 851.953 70.7031C848.242 74.0885 845.931 78.9714 845.02 85.3516H888.867C888.086 79.2318 885.775 74.4141 881.934 70.8984C878.158 67.3828 873.177 65.625 866.992 65.625Z" fill="#0B1215"/>
<path d="M762.012 145.996V0H794.824V145.996H762.012Z" fill="#0B1215"/>
<path d="M692.969 42.7734C707.487 42.7734 719.499 47.819 729.004 57.9102C738.574 68.0013 743.359 80.5664 743.359 95.6055C743.359 110.645 738.574 123.21 729.004 133.301C719.499 143.392 707.487 148.438 692.969 148.438C685.677 148.438 679.167 146.81 673.438 143.555C667.773 140.234 663.477 136.035 660.547 130.957V145.996H629.004V0H661.816V60.1562C664.16 54.9479 668.066 50.7487 673.535 47.5586C679.069 44.3685 685.547 42.7734 692.969 42.7734ZM686.426 121.191C693.457 121.191 699.219 118.783 703.711 113.965C708.268 109.082 710.547 102.962 710.547 95.6055C710.547 88.2487 708.268 82.1615 703.711 77.3438C699.219 72.4609 693.457 70.0195 686.426 70.0195C679.264 70.0195 673.372 72.4284 668.75 77.2461C664.128 81.9987 661.816 88.1185 661.816 95.6055C661.816 103.092 664.128 109.245 668.75 114.062C673.372 118.815 679.264 121.191 686.426 121.191Z" fill="#0B1215"/>
<path d="M477.246 145.996H444.434V45.2148H476.27V60.1562C478.678 55.1432 482.52 51.0091 487.793 47.7539C493.066 44.4336 499.089 42.7734 505.859 42.7734C520.703 42.7734 530.957 48.5677 536.621 60.1562C539.811 54.8828 544.303 50.6836 550.098 47.5586C555.892 44.3685 562.598 42.7734 570.215 42.7734C581.999 42.7734 590.918 46.4518 596.973 53.8086C603.027 61.1003 606.055 70.9635 606.055 83.3984V145.996H573.242V88.7695C573.242 77.0508 568.099 71.1914 557.812 71.1914C552.865 71.1914 548.926 72.6562 545.996 75.5859C543.066 78.5156 541.602 82.5195 541.602 87.5977V145.996H508.789V88.7695C508.789 77.0508 503.678 71.1914 493.457 71.1914C488.314 71.1914 484.31 72.6888 481.445 75.6836C478.646 78.6784 477.246 82.9753 477.246 88.5742V145.996Z" fill="#0B1215"/>
<path d="M373.34 124.609C378.158 124.609 382.389 123.73 386.035 121.973C389.746 120.15 392.578 117.676 394.531 114.551H424.707C421.387 124.382 415.072 132.487 405.762 138.867C396.517 145.247 385.71 148.438 373.34 148.438C356.087 148.438 342.546 143.555 332.715 133.789C322.949 124.023 318.066 111.23 318.066 95.4102C318.066 79.8503 323.079 67.1875 333.105 57.4219C343.197 47.6562 356.12 42.7734 371.875 42.7734C387.695 42.7734 400.586 47.5911 410.547 57.2266C420.508 66.862 425.488 79.7201 425.488 95.8008V105.566H350.293C352.832 118.262 360.514 124.609 373.34 124.609ZM372.266 65.625C365.951 65.625 360.938 67.3177 357.227 70.7031C353.516 74.0885 351.204 78.9714 350.293 85.3516H394.141C393.359 79.2318 391.048 74.4141 387.207 70.8984C383.431 67.3828 378.451 65.625 372.266 65.625Z" fill="#0B1215"/>
<path d="M251.562 114.551C251.888 118.262 253.223 121.159 255.566 123.242C257.91 125.326 261.23 126.367 265.527 126.367C269.173 126.367 272.07 125.488 274.219 123.73C276.432 121.973 277.539 119.727 277.539 116.992C277.539 112.63 274.805 109.766 269.336 108.398L255.566 104.785C245.801 102.376 238.672 98.7956 234.18 94.043C229.753 89.2253 227.539 82.6823 227.539 74.4141C227.539 64.7786 231.152 57.0964 238.379 51.3672C245.671 45.638 254.655 42.7734 265.332 42.7734C276.27 42.7734 284.928 45.638 291.309 51.3672C297.754 57.0964 301.432 64.7135 302.344 74.2188H275.391C275.26 71.6146 274.414 69.401 272.852 67.5781C271.289 65.7552 268.978 64.8438 265.918 64.8438C263.053 64.8438 260.84 65.5273 259.277 66.8945C257.715 68.1966 256.934 70.0195 256.934 72.3633C256.934 76.5299 259.538 79.1992 264.746 80.3711L282.52 85.1562C298.796 89.388 306.934 98.9258 306.934 113.77C306.934 120.475 304.98 126.53 301.074 131.934C297.233 137.272 292.188 141.374 285.938 144.238C279.753 147.038 273.079 148.438 265.918 148.438C258.366 148.438 251.693 147.331 245.898 145.117C240.169 142.904 235.352 139.225 231.445 134.082C227.539 128.874 225.228 122.363 224.512 114.551H251.562Z" fill="#0B1215"/>
<path d="M158.984 114.551C159.31 118.262 160.645 121.159 162.988 123.242C165.332 125.326 168.652 126.367 172.949 126.367C176.595 126.367 179.492 125.488 181.641 123.73C183.854 121.973 184.961 119.727 184.961 116.992C184.961 112.63 182.227 109.766 176.758 108.398L162.988 104.785C153.223 102.376 146.094 98.7956 141.602 94.043C137.174 89.2253 134.961 82.6823 134.961 74.4141C134.961 64.7786 138.574 57.0964 145.801 51.3672C153.092 45.638 162.077 42.7734 172.754 42.7734C183.691 42.7734 192.35 45.638 198.73 51.3672C205.176 57.0964 208.854 64.7135 209.766 74.2188H182.812C182.682 71.6146 181.836 69.401 180.273 67.5781C178.711 65.7552 176.4 64.8438 173.34 64.8438C170.475 64.8438 168.262 65.5273 166.699 66.8945C165.137 68.1966 164.355 70.0195 164.355 72.3633C164.355 76.5299 166.96 79.1992 172.168 80.3711L189.941 85.1562C206.217 89.388 214.355 98.9258 214.355 113.77C214.355 120.475 212.402 126.53 208.496 131.934C204.655 137.272 199.609 141.374 193.359 144.238C187.174 147.038 180.501 148.438 173.34 148.438C165.788 148.438 159.115 147.331 153.32 145.117C147.591 142.904 142.773 139.225 138.867 134.082C134.961 128.874 132.65 122.363 131.934 114.551H158.984Z" fill="#0B1215"/>
<path d="M50.3906 42.7734C57.8776 42.7734 64.4531 44.3685 70.1172 47.5586C75.7812 50.7487 79.7852 54.9479 82.1289 60.1562V45.2148H114.355V145.996H82.7148V130.957C79.7201 136.035 75.3906 140.234 69.7266 143.555C64.1276 146.81 57.6823 148.438 50.3906 148.438C35.8724 148.438 23.8281 143.392 14.2578 133.301C4.7526 123.21 0 110.645 0 95.6055C0 80.5664 4.7526 68.0013 14.2578 57.9102C23.8281 47.819 35.8724 42.7734 50.3906 42.7734ZM56.9336 121.191C64.0951 121.191 69.987 118.815 74.6094 114.062C79.2318 109.245 81.543 103.092 81.543 95.6055C81.543 88.1185 79.2318 81.9987 74.6094 77.2461C69.987 72.4284 64.0951 70.0195 56.9336 70.0195C49.9023 70.0195 44.1081 72.4609 39.5508 77.3438C34.9935 82.1615 32.7148 88.2487 32.7148 95.6055C32.7148 102.962 34.9935 109.082 39.5508 113.965C44.1081 118.783 49.9023 121.191 56.9336 121.191Z" fill="#0B1215"/>
<path d="M652.266 220.602C650.247 220.081 647.513 219.82 644.062 219.82C634.297 219.82 626.159 223.238 619.648 230.074C613.138 236.845 608.678 246.35 606.27 258.59L596.992 304.781H581.465L600.996 206.344H616.035L610.664 233.004C613.333 224.28 617.858 217.444 624.238 212.496C630.684 207.483 638.073 204.977 646.406 204.977C649.857 204.977 652.721 205.367 655 206.148L652.266 220.602Z" fill="#0B1215"/>
<path d="M553.535 206.344H569.16L549.531 304.781H534.492L538.301 285.543C535.306 292.184 530.749 297.457 524.629 301.363C518.574 305.27 511.283 307.223 502.754 307.223C492.272 307.223 483.939 303.674 477.754 296.578C471.569 289.417 468.477 280.562 468.477 270.016C468.477 267.346 468.835 263.928 469.551 259.762L480.098 206.344H495.723L485.273 258.59C484.492 262.431 484.102 266.044 484.102 269.43C484.102 276.917 486.087 282.743 490.059 286.91C494.03 291.077 500.117 293.16 508.32 293.16C516.849 293.16 524.238 289.97 530.488 283.59C536.803 277.21 540.938 269.137 542.891 259.371L553.535 206.344Z" fill="#0B1215"/>
<path d="M389.863 307.223C375.736 307.223 364.017 302.796 354.707 293.941C345.462 285.022 340.84 273.824 340.84 260.348C340.84 250.126 343.216 240.719 347.969 232.125C352.786 223.531 359.557 216.695 368.281 211.617C377.005 206.539 386.738 204 397.48 204C411.478 204 423.197 208.427 432.637 217.281C442.142 226.135 446.895 237.171 446.895 250.387C446.895 260.217 444.453 269.462 439.57 278.121C434.688 286.78 427.819 293.811 418.965 299.215C410.176 304.553 400.475 307.223 389.863 307.223ZM431.855 251.168C431.855 241.663 428.6 233.59 422.09 226.949C415.579 220.309 407.181 216.988 396.895 216.988C384.98 216.988 375.15 221.057 367.402 229.195C359.72 237.333 355.879 247.522 355.879 259.762C355.879 269.788 359.069 278.023 365.449 284.469C371.829 290.914 380.163 294.137 390.449 294.137C402.233 294.137 412.064 289.905 419.941 281.441C427.884 272.978 431.855 262.887 431.855 251.168Z" fill="#0B1215"/>
<path d="M325.801 206.344H342.402L282.832 303.609L256.758 346.383H241.23L268.184 301.754L246.992 206.344H262.227L278.828 286.812L325.801 206.344Z" fill="#0B1215"/>
</svg>
