<svg width="1866" height="749" viewBox="0 0 1866 749" fill="none" xmlns="http://www.w3.org/2000/svg">
<path d="M1663.32 479.697H1611.78V321.398H1661.79V344.866C1665.57 336.992 1671.6 330.499 1679.89 325.386C1688.17 320.171 1697.63 317.563 1708.26 317.563C1731.58 317.563 1747.69 326.664 1756.58 344.866C1761.59 336.583 1768.65 329.988 1777.75 325.079C1786.85 320.068 1797.38 317.563 1809.35 317.563C1827.86 317.563 1841.87 323.341 1851.38 334.896C1860.89 346.349 1865.64 361.842 1865.64 381.373V479.697H1814.1V389.81C1814.1 371.403 1806.02 362.2 1789.87 362.2C1782.1 362.2 1775.91 364.5 1771.31 369.102C1766.71 373.704 1764.4 379.993 1764.4 387.969V479.697H1712.87V389.81C1712.87 371.403 1704.84 362.2 1688.78 362.2C1680.7 362.2 1674.42 364.552 1669.92 369.256C1665.52 373.959 1663.32 380.709 1663.32 389.503V479.697Z" fill="#0B1215"/>
<path d="M1473.58 317.563C1485.34 317.563 1495.66 320.068 1504.56 325.079C1513.46 330.09 1519.75 336.686 1523.43 344.866V321.398H1574.05V479.697H1524.35V456.075C1519.64 464.051 1512.84 470.647 1503.95 475.862C1495.15 480.975 1485.03 483.531 1473.58 483.531C1450.77 483.531 1431.85 475.606 1416.82 459.756C1401.89 443.906 1394.43 424.169 1394.43 400.547C1394.43 376.925 1401.89 357.189 1416.82 341.338C1431.85 325.488 1450.77 317.563 1473.58 317.563ZM1483.85 440.736C1495.1 440.736 1504.36 437.003 1511.62 429.538C1518.88 421.971 1522.51 412.307 1522.51 400.547C1522.51 388.787 1518.88 379.175 1511.62 371.71C1504.36 364.142 1495.1 360.359 1483.85 360.359C1472.81 360.359 1463.71 364.194 1456.55 371.863C1449.39 379.43 1445.81 388.992 1445.81 400.547C1445.81 412.103 1449.39 421.715 1456.55 429.385C1463.71 436.952 1472.81 440.736 1483.85 440.736Z" fill="#0B1215"/>
<path d="M1291.2 446.104C1298.76 446.104 1305.41 444.724 1311.14 441.963C1316.96 439.099 1321.41 435.213 1324.48 430.305H1371.88C1366.66 445.746 1356.74 458.478 1342.12 468.499C1327.6 478.521 1310.62 483.531 1291.2 483.531C1264.1 483.531 1242.83 475.862 1227.38 460.523C1212.05 445.184 1204.38 425.09 1204.38 400.24C1204.38 375.8 1212.25 355.911 1228 340.571C1243.85 325.232 1264.15 317.563 1288.89 317.563C1313.74 317.563 1333.99 325.13 1349.64 340.265C1365.28 355.399 1373.11 375.596 1373.11 400.854V416.193H1254.99C1258.98 436.134 1271.05 446.104 1291.2 446.104ZM1289.51 353.456C1279.59 353.456 1271.71 356.115 1265.89 361.433C1260.06 366.75 1256.43 374.42 1254.99 384.441H1323.87C1322.64 374.829 1319.01 367.261 1312.98 361.739C1307.05 356.217 1299.22 353.456 1289.51 353.456Z" fill="#0B1215"/>
<path d="M1168.79 440.736C1174.31 440.736 1179.78 439.917 1185.2 438.281V479.083C1182.44 480.208 1177.99 481.231 1171.86 482.151C1165.72 483.071 1160 483.531 1154.68 483.531C1136.17 483.531 1122.31 478.47 1113.11 468.346C1104.01 458.222 1099.46 444.11 1099.46 426.01V363.733H1072V321.398H1099.46V274H1150.84V321.398H1186.74V363.733H1150.84V422.789C1150.84 434.753 1156.82 440.736 1168.79 440.736Z" fill="#0B1215"/>
<path d="M1164.3 694.989C1164.81 700.818 1166.91 705.368 1170.59 708.641C1174.27 711.913 1179.49 713.549 1186.24 713.549C1191.96 713.549 1196.51 712.169 1199.89 709.408C1203.36 706.647 1205.1 703.119 1205.1 698.824C1205.1 691.972 1200.81 687.473 1192.22 685.325L1170.59 679.65C1155.25 675.866 1144.05 670.242 1137 662.777C1130.04 655.21 1126.57 644.933 1126.57 631.945C1126.57 616.811 1132.24 604.744 1143.59 595.745C1155.05 586.746 1169.16 582.247 1185.93 582.247C1203.11 582.247 1216.71 586.746 1226.73 595.745C1236.85 604.744 1242.63 616.709 1244.06 631.639H1201.73C1201.52 627.548 1200.19 624.071 1197.74 621.208C1195.29 618.345 1191.66 616.913 1186.85 616.913C1182.35 616.913 1178.87 617.987 1176.42 620.134C1173.96 622.18 1172.74 625.043 1172.74 628.724C1172.74 635.269 1176.83 639.462 1185.01 641.302L1212.93 648.818C1238.49 655.465 1251.27 670.447 1251.27 693.762C1251.27 704.295 1248.21 713.805 1242.07 722.293C1236.04 730.678 1228.11 737.12 1218.29 741.62C1208.58 746.017 1198.1 748.216 1186.85 748.216C1174.99 748.216 1164.51 746.477 1155.4 743C1146.41 739.523 1138.84 733.746 1132.7 725.667C1126.57 717.486 1122.94 707.26 1121.81 694.989H1164.3Z" fill="#0B1215"/>
<path d="M1042.82 586.082H1094.36V744.381H1044.35V720.759C1040.57 728.633 1034.43 735.177 1025.94 740.393C1017.56 745.608 1008 748.216 997.259 748.216C978.852 748.216 964.893 742.489 955.383 731.036C945.873 719.48 941.118 703.937 941.118 684.405V586.082H992.657V676.582C992.657 694.989 1000.79 704.192 1017.05 704.192C1025.23 704.192 1031.57 701.84 1036.07 697.136C1040.57 692.33 1042.82 685.581 1042.82 676.889V586.082Z" fill="#0B1215"/>
<path d="M727.905 744.381H676.366V515.062H727.905V608.017C731.586 600.245 737.569 594.007 745.852 589.303C754.135 584.599 763.543 582.247 774.076 582.247C792.482 582.247 806.543 588.025 816.258 599.58C825.973 611.135 830.83 626.628 830.83 646.057V744.381H779.444V654.494C779.444 646.006 777.348 639.308 773.155 634.4C769.065 629.389 762.776 626.884 754.288 626.884C746.414 626.884 740.023 629.287 735.114 634.093C730.308 638.797 727.905 645.495 727.905 654.187V744.381Z" fill="#0B1215"/>
<path d="M631.269 705.42C636.791 705.42 642.262 704.601 647.682 702.965V743.767C644.921 744.892 640.472 745.915 634.337 746.835C628.201 747.755 622.475 748.216 617.157 748.216C598.648 748.216 584.792 743.154 575.588 733.03C566.487 722.906 561.936 708.794 561.936 690.694V628.417H534.48V586.082H561.936V538.684H613.322V586.082H649.216V628.417H613.322V687.473C613.322 699.437 619.305 705.42 631.269 705.42Z" fill="#0B1215"/>
<path d="M460.392 744.381V586.082H511.931V744.381H460.392ZM515.766 538.991C515.766 547.274 512.903 554.228 507.176 559.852C501.552 565.374 494.547 568.135 486.162 568.135C477.981 568.135 471.027 565.374 465.3 559.852C459.574 554.228 456.711 547.274 456.711 538.991C456.711 530.912 459.574 524.061 465.3 518.436C471.027 512.812 477.981 510 486.162 510C494.547 510 501.552 512.812 507.176 518.436C512.903 523.959 515.766 530.81 515.766 538.991Z" fill="#0B1215"/>
<path d="M366.21 683.178L391.213 586.082H441.218L391.213 744.381H347.343L309.609 646.978L271.875 744.381H227.852L178 586.082H227.852L253.008 683.178L288.595 586.082H330.624L366.21 683.178Z" fill="#0B1215"/>
<path d="M1363.49 195.726C1371.06 195.726 1377.7 194.346 1383.43 191.585C1389.26 188.721 1393.71 184.836 1396.77 179.927H1444.17C1438.96 195.368 1429.04 208.1 1414.41 218.121C1399.89 228.143 1382.92 233.154 1363.49 233.154C1336.39 233.154 1315.12 225.484 1299.68 210.145C1284.34 194.806 1276.67 174.712 1276.67 149.863C1276.67 125.422 1284.54 105.533 1300.29 90.1936C1316.14 74.8546 1336.44 67.1851 1361.19 67.1851C1386.04 67.1851 1406.28 74.7523 1421.93 89.8869C1437.58 105.021 1445.4 125.218 1445.4 150.476V165.815H1327.29C1331.28 185.756 1343.34 195.726 1363.49 195.726ZM1361.8 103.078C1351.88 103.078 1344.01 105.737 1338.18 111.055C1332.35 116.372 1328.72 124.042 1327.29 134.063H1396.16C1394.93 124.451 1391.3 116.884 1385.27 111.362C1379.34 105.839 1371.52 103.078 1361.8 103.078Z" fill="#0B1215"/>
<path d="M1196.91 229.319V0H1248.45V229.319H1196.91Z" fill="#0B1215"/>
<path d="M1088.46 67.1851C1111.26 67.1851 1130.13 75.1102 1145.06 90.9606C1160.09 106.811 1167.61 126.547 1167.61 150.169C1167.61 173.791 1160.09 193.528 1145.06 209.378C1130.13 225.228 1111.26 233.154 1088.46 233.154C1077.01 233.154 1066.78 230.597 1057.78 225.484C1048.88 220.269 1042.14 213.673 1037.53 205.697V229.319H987.989V0H1039.53V94.4886C1043.21 86.3077 1049.34 79.712 1057.93 74.7012C1066.63 69.6904 1076.8 67.1851 1088.46 67.1851ZM1078.18 190.358C1089.23 190.358 1098.28 186.574 1105.33 179.007C1112.49 171.337 1116.07 161.725 1116.07 150.169C1116.07 138.614 1112.49 129.053 1105.33 121.485C1098.28 113.816 1089.23 109.981 1078.18 109.981C1066.93 109.981 1057.68 113.765 1050.42 121.332C1043.16 128.797 1039.53 138.409 1039.53 150.169C1039.53 161.929 1043.16 171.593 1050.42 179.16C1057.68 186.625 1066.93 190.358 1078.18 190.358Z" fill="#0B1215"/>
<path d="M749.62 229.319H698.08V71.0198H748.086V94.4886C751.869 86.6145 757.903 80.121 766.186 75.008C774.469 69.7927 783.928 67.1851 794.563 67.1851C817.878 67.1851 833.984 76.2862 842.881 94.4886C847.892 86.2055 854.948 79.6097 864.049 74.7012C873.15 69.6904 883.683 67.1851 895.647 67.1851C914.157 67.1851 928.166 72.9628 937.676 84.5182C947.187 95.9713 951.942 111.464 951.942 130.996V229.319H900.403V139.432C900.403 121.025 892.324 111.822 876.167 111.822C868.395 111.822 862.208 114.123 857.607 118.724C853.005 123.326 850.704 129.615 850.704 137.591V229.319H799.165V139.432C799.165 121.025 791.137 111.822 775.082 111.822C767.004 111.822 760.715 114.174 756.215 118.878C751.818 123.582 749.62 130.331 749.62 139.125V229.319Z" fill="#0B1215"/>
<path d="M586.412 195.726C593.979 195.726 600.626 194.346 606.353 191.585C612.182 188.721 616.63 184.836 619.698 179.927H667.096C661.88 195.368 651.961 208.1 637.338 218.121C622.817 228.143 605.842 233.154 586.412 233.154C559.313 233.154 538.043 225.484 522.602 210.145C507.263 194.806 499.593 174.712 499.593 149.863C499.593 125.422 507.467 105.533 523.215 90.1936C539.066 74.8546 559.364 67.1851 584.111 67.1851C608.96 67.1851 629.208 74.7523 644.854 89.8869C660.5 105.021 668.323 125.218 668.323 150.476V165.815H550.212C554.2 185.756 566.267 195.726 586.412 195.726ZM584.725 103.078C574.806 103.078 566.931 105.737 561.103 111.055C555.274 116.372 551.644 124.042 550.212 134.063H619.084C617.857 124.451 614.227 116.884 608.194 111.362C602.262 105.839 594.44 103.078 584.725 103.078Z" fill="#0B1215"/>
<path d="M395.134 179.927C395.645 185.756 397.742 190.307 401.423 193.579C405.104 196.851 410.32 198.487 417.069 198.487C422.795 198.487 427.346 197.107 430.721 194.346C434.198 191.585 435.936 188.057 435.936 183.762C435.936 176.91 431.641 172.411 423.051 170.263L401.423 164.588C386.084 160.804 374.887 155.18 367.831 147.715C360.877 140.148 357.4 129.871 357.4 116.884C357.4 101.749 363.075 89.6823 374.426 80.6834C385.879 71.6845 399.991 67.1851 416.762 67.1851C433.942 67.1851 447.542 71.6845 457.564 80.6834C467.688 89.6823 473.466 101.647 474.897 116.577H432.561C432.357 112.486 431.027 109.01 428.573 106.146C426.119 103.283 422.489 101.851 417.682 101.851C413.183 101.851 409.706 102.925 407.252 105.073C404.798 107.118 403.571 109.981 403.571 113.662C403.571 120.207 407.661 124.4 415.842 126.24L443.759 133.757C469.324 140.403 482.107 155.385 482.107 178.7C482.107 189.233 479.039 198.743 472.903 207.231C466.87 215.616 458.945 222.058 449.128 226.558C439.413 230.955 428.931 233.154 417.682 233.154C405.82 233.154 395.339 231.415 386.237 227.938C377.238 224.461 369.671 218.684 363.536 210.605C357.4 202.424 353.77 192.198 352.645 179.927H395.134Z" fill="#0B1215"/>
<path d="M249.72 179.927C250.231 185.756 252.327 190.307 256.009 193.579C259.69 196.851 264.905 198.487 271.655 198.487C277.381 198.487 281.932 197.107 285.306 194.346C288.783 191.585 290.522 188.057 290.522 183.762C290.522 176.91 286.227 172.411 277.637 170.263L256.009 164.588C240.67 160.804 229.472 155.18 222.416 147.715C215.463 140.148 211.986 129.871 211.986 116.884C211.986 101.749 217.661 89.6823 229.012 80.6834C240.465 71.6845 254.577 67.1851 271.348 67.1851C288.528 67.1851 302.128 71.6845 312.15 80.6834C322.274 89.6823 328.051 101.647 329.483 116.577H287.147C286.943 112.486 285.613 109.01 283.159 106.146C280.705 103.283 277.074 101.851 272.268 101.851C267.769 101.851 264.292 102.925 261.838 105.073C259.383 107.118 258.156 109.981 258.156 113.662C258.156 120.207 262.247 124.4 270.428 126.24L298.345 133.757C323.91 140.403 336.692 155.385 336.692 178.7C336.692 189.233 333.624 198.743 327.489 207.231C321.455 215.616 313.53 222.058 303.713 226.558C293.999 230.955 283.517 233.154 272.268 233.154C260.406 233.154 249.924 231.415 240.823 227.938C231.824 224.461 224.257 218.684 218.121 210.605C211.986 202.424 208.355 192.198 207.231 179.927H249.72Z" fill="#0B1215"/>
<path d="M79.1495 67.1851C90.9095 67.1851 101.238 69.6904 110.134 74.7012C119.031 79.712 125.32 86.3077 129.001 94.4886V71.0198H179.62V229.319H129.922V205.697C125.218 213.673 118.418 220.269 109.521 225.484C100.726 230.597 90.6027 233.154 79.1495 233.154C56.3455 233.154 37.4273 225.228 22.395 209.378C7.46501 193.528 0 173.791 0 150.169C0 126.547 7.46501 106.811 22.395 90.9606C37.4273 75.1102 56.3455 67.1851 79.1495 67.1851ZM89.4267 190.358C100.675 190.358 109.93 186.625 117.19 179.16C124.451 171.593 128.081 161.929 128.081 150.169C128.081 138.409 124.451 128.797 117.19 121.332C109.93 113.765 100.675 109.981 89.4267 109.981C78.3826 109.981 69.2814 113.816 62.1232 121.485C54.9649 129.053 51.3858 138.614 51.3858 150.169C51.3858 161.725 54.9649 171.337 62.1232 179.007C69.2814 186.574 78.3826 190.358 89.4267 190.358Z" fill="#0B1215"/>
<path d="M1031.7 349.076C1028.53 348.258 1024.24 347.849 1018.82 347.849C1003.48 347.849 990.698 353.218 980.472 363.955C970.246 374.59 963.241 389.52 959.458 408.745L944.886 481.299H920.497L951.175 326.681H974.797L966.36 368.557C970.553 354.854 977.66 344.117 987.682 336.345C997.805 328.471 1009.41 324.534 1022.5 324.534C1027.92 324.534 1032.42 325.147 1036 326.375L1031.7 349.076Z" fill="#0B1215"/>
<path d="M876.627 326.681H901.169L870.338 481.299H846.716L852.698 451.081C847.994 461.512 840.836 469.795 831.223 475.93C821.713 482.066 810.26 485.134 796.864 485.134C780.4 485.134 767.311 479.561 757.596 468.414C747.881 457.166 743.024 443.258 743.024 426.692C743.024 422.499 743.586 417.131 744.711 410.586L761.277 326.681H785.82L769.407 408.745C768.18 414.779 767.566 420.454 767.566 425.772C767.566 437.532 770.685 446.684 776.923 453.229C783.161 459.773 792.722 463.046 805.607 463.046C819.003 463.046 830.61 458.035 840.427 448.013C850.346 437.992 856.84 425.311 859.907 409.972L876.627 326.681Z" fill="#0B1215"/>
<path d="M619.544 485.134C597.354 485.134 578.947 478.18 564.324 464.273C549.803 450.263 542.542 432.674 542.542 411.506C542.542 395.451 546.275 380.675 553.74 367.176C561.307 353.678 571.942 342.941 585.645 334.964C599.348 326.988 614.636 323 631.509 323C653.495 323 671.902 329.954 686.729 343.861C701.659 357.769 709.124 375.102 709.124 395.861C709.124 411.302 705.29 425.823 697.62 439.423C689.951 453.024 679.162 464.068 665.255 472.556C651.45 480.941 636.213 485.134 619.544 485.134ZM685.502 397.088C685.502 382.158 680.389 369.477 670.163 359.047C659.937 348.616 646.746 343.401 630.589 343.401C611.875 343.401 596.434 349.792 584.265 362.575C572.198 375.357 566.164 391.361 566.164 410.586C566.164 426.334 571.175 439.27 581.197 449.394C591.218 459.518 604.308 464.579 620.465 464.579C638.974 464.579 654.415 457.933 666.789 444.639C679.264 431.345 685.502 415.494 685.502 397.088Z" fill="#0B1215"/>
<path d="M518.92 326.681H544.997L451.428 479.458L410.473 546.643H386.084L428.42 476.544L395.134 326.681H419.063L445.139 453.075L518.92 326.681Z" fill="#0B1215"/>
</svg>
