<svg width="56" height="56" viewBox="0 0 56 56" fill="none" xmlns="http://www.w3.org/2000/svg">
<rect width="56" height="56" rx="28" fill="#0033FF"/>
<path d="M26 44C26 45.1046 26.8954 46 28 46C29.1046 46 30 45.1046 30 44H28H26ZM29.4142 10.5858C28.6332 9.80474 27.3668 9.80474 26.5858 10.5858L13.8579 23.3137C13.0768 24.0948 13.0768 25.3611 13.8579 26.1421C14.6389 26.9232 15.9052 26.9232 16.6863 26.1421L28 14.8284L39.3137 26.1421C40.0948 26.9232 41.3611 26.9232 42.1421 26.1421C42.9232 25.3611 42.9232 24.0948 42.1421 23.3137L29.4142 10.5858ZM28 44H30V12H28H26L26 44H28Z" fill="#F2F0EF"/>
</svg>
