<svg width="18" height="18" viewBox="0 0 18 18" fill="none" xmlns="http://www.w3.org/2000/svg">
<path d="M9 0C13.9706 0 18 4.02944 18 9C18 13.9706 13.9706 18 9 18C4.02944 18 0 13.9706 0 9C0 4.02944 4.02944 0 9 0ZM7.8584 6.79688V14.5713H10.3896V6.79688H7.8584ZM9.12402 3.06055C8.72239 3.06063 8.38078 3.19846 8.09961 3.47461C7.81837 3.75083 7.67773 4.08762 7.67773 4.48438C7.67776 4.89108 7.81847 5.23261 8.09961 5.50879C8.38078 5.77992 8.72239 5.91594 9.12402 5.91602C9.53581 5.91602 9.88004 5.77994 10.1562 5.50879C10.4375 5.23258 10.5781 4.89114 10.5781 4.48438C10.5781 4.08259 10.4375 3.74581 10.1562 3.47461C9.88005 3.19851 9.53576 3.06055 9.12402 3.06055Z" fill="#0033FF"/>
</svg>
