<svg width="360" height="387" viewBox="0 0 360 387" fill="none" xmlns="http://www.w3.org/2000/svg">
<rect x="162" y="356.764" width="195" height="30" rx="15" transform="rotate(-7 162 356.764)" fill="#9AC2E4"/>
<path d="M186.268 372.926L184.267 373.172L183.294 365.247L185.233 365.009L185.398 366.358C185.522 365.865 185.804 365.45 186.245 365.113C186.687 364.775 187.22 364.568 187.845 364.491C188.781 364.376 189.548 364.597 190.146 365.153C190.745 365.709 191.106 366.491 191.23 367.5L191.812 372.245L189.812 372.491L189.27 368.079C189.197 367.484 188.999 367.028 188.677 366.711C188.354 366.389 187.906 366.263 187.332 366.333C186.784 366.4 186.361 366.636 186.065 367.04C185.768 367.443 185.654 367.93 185.724 368.498L186.268 372.926ZM195.006 368.516C195.145 369.128 195.432 369.589 195.869 369.897C196.305 370.206 196.868 370.318 197.555 370.233C198.031 370.175 198.438 370.033 198.778 369.808C199.117 369.577 199.365 369.29 199.522 368.945L201.383 368.717C201.183 369.481 200.756 370.145 200.101 370.708C199.45 371.265 198.662 371.601 197.737 371.714C196.414 371.877 195.321 371.615 194.461 370.928C193.605 370.241 193.102 369.29 192.953 368.075C192.806 366.876 193.075 365.838 193.759 364.961C194.443 364.08 195.396 363.564 196.616 363.414C197.846 363.263 198.894 363.531 199.76 364.217C200.631 364.902 201.142 365.857 201.293 367.083L201.373 367.734L195.006 368.516ZM196.83 364.844C196.205 364.921 195.716 365.17 195.364 365.591C195.016 366.006 194.838 366.542 194.829 367.199L199.303 366.65C199.164 366.032 198.875 365.558 198.436 365.229C197.996 364.895 197.461 364.767 196.83 364.844ZM207.139 362.319L209.232 362.062L206.924 366.344L210.291 369.976L208.174 370.236L206.063 367.984L204.568 370.679L202.459 370.938L204.846 366.599L201.563 363.004L203.665 362.746L205.692 364.96L207.139 362.319ZM211.028 359.441L213.028 359.195L213.319 361.56L215.366 361.309L215.569 362.96L213.522 363.212L213.964 366.818C214.015 367.231 214.138 367.523 214.332 367.693C214.531 367.863 214.822 367.924 215.204 367.877C215.442 367.848 215.728 367.763 216.062 367.623L216.259 369.228C216.137 369.3 215.942 369.374 215.673 369.449C215.404 369.524 215.143 369.577 214.889 369.608C213.985 369.719 213.297 369.547 212.827 369.09C212.361 368.633 212.07 367.926 211.952 366.97L211.521 363.457L210.048 363.638L209.845 361.987L211.318 361.806L211.028 359.441ZM216.936 363.58L221.86 362.975L222.077 364.743L217.153 365.348L216.936 363.58ZM226.966 359.688C227.633 359.606 228.235 359.684 228.773 359.922C229.316 360.155 229.714 360.492 229.968 360.933L229.797 359.537L231.766 359.295L232.726 367.111C232.851 368.13 232.542 369.036 231.8 369.83C231.063 370.624 230.08 371.096 228.849 371.247C227.8 371.376 226.875 371.256 226.074 370.888C225.278 370.518 224.673 369.905 224.258 369.048L226.243 368.805C226.743 369.541 227.543 369.841 228.645 369.706C229.353 369.619 229.897 369.369 230.276 368.955C230.656 368.541 230.805 368.008 230.725 367.357L230.536 365.814C230.345 366.268 230.021 366.662 229.563 366.996C229.111 367.33 228.569 367.535 227.939 367.613C227.174 367.707 226.467 367.615 225.819 367.338C225.176 367.06 224.655 366.641 224.256 366.081C223.862 365.521 223.62 364.874 223.53 364.14C223.439 363.406 223.518 362.719 223.765 362.08C224.016 361.435 224.42 360.9 224.977 360.475C225.538 360.044 226.201 359.782 226.966 359.688ZM228.116 365.914C228.788 365.832 229.328 365.548 229.735 365.062C230.148 364.576 230.312 363.994 230.229 363.317C230.145 362.635 229.845 362.108 229.327 361.736C228.813 361.358 228.221 361.21 227.548 361.293C226.856 361.378 226.322 361.666 225.947 362.158C225.576 362.645 225.432 363.224 225.515 363.896C225.597 364.563 225.879 365.087 226.361 365.469C226.843 365.85 227.428 365.999 228.116 365.914ZM236.011 363.481C236.149 364.094 236.437 364.554 236.873 364.863C237.31 365.171 237.872 365.283 238.56 365.199C239.035 365.14 239.443 364.998 239.783 364.773C240.122 364.542 240.37 364.255 240.527 363.91L242.388 363.682C242.188 364.446 241.76 365.11 241.105 365.673C240.455 366.231 239.667 366.566 238.742 366.68C237.418 366.842 236.326 366.58 235.465 365.893C234.609 365.206 234.107 364.255 233.958 363.04C233.81 361.841 234.079 360.803 234.764 359.927C235.448 359.045 236.4 358.529 237.62 358.38C238.85 358.228 239.899 358.496 240.765 359.182C241.636 359.867 242.147 360.823 242.297 362.048L242.377 362.699L236.011 363.481ZM237.835 359.809C237.209 359.886 236.721 360.135 236.368 360.556C236.02 360.971 235.842 361.508 235.834 362.165L240.308 361.615C240.169 360.997 239.88 360.524 239.441 360.195C239.001 359.86 238.466 359.732 237.835 359.809ZM246.488 365.532L244.487 365.778L243.514 357.853L245.452 357.615L245.618 358.964C245.741 358.471 246.024 358.056 246.465 357.719C246.906 357.381 247.44 357.174 248.065 357.097C249.001 356.982 249.768 357.203 250.366 357.759C250.964 358.315 251.325 359.097 251.449 360.106L252.032 364.851L250.031 365.097L249.489 360.685C249.416 360.09 249.219 359.634 248.897 359.317C248.574 358.995 248.125 358.869 247.551 358.939C247.003 359.006 246.581 359.242 246.284 359.646C245.988 360.049 245.874 360.536 245.944 361.104L246.488 365.532ZM258.821 361.617C259.029 362.373 259.563 362.699 260.421 362.593C260.808 362.546 261.11 362.417 261.326 362.207C261.546 361.996 261.637 361.733 261.599 361.417C261.568 361.169 261.477 360.984 261.326 360.861C261.174 360.732 260.942 360.64 260.631 360.584L259.413 360.411C258.676 360.307 258.11 360.098 257.715 359.785C257.319 359.471 257.084 359.007 257.008 358.392C256.921 357.684 257.115 357.083 257.59 356.589C258.069 356.089 258.714 355.789 259.526 355.69C260.353 355.588 261.031 355.723 261.559 356.094C262.092 356.464 262.45 357.005 262.632 357.717L260.926 357.927C260.867 357.656 260.735 357.438 260.531 357.274C260.333 357.11 260.07 357.048 259.745 357.088C259.435 357.126 259.193 357.234 259.021 357.413C258.853 357.585 258.786 357.804 258.818 358.067C258.847 358.3 258.933 358.468 259.077 358.571C259.225 358.668 259.46 358.747 259.783 358.807L261.243 359.029C262.547 359.226 263.269 359.89 263.408 361.022C263.47 361.529 263.376 362.002 263.126 362.442C262.88 362.876 262.532 363.229 262.083 363.499C261.638 363.764 261.146 363.929 260.609 363.995C259.735 364.102 258.985 363.979 258.359 363.626C257.738 363.266 257.326 362.666 257.123 361.825L258.821 361.617ZM267.707 366.295L265.707 366.541L264.326 355.297L266.249 355.061L266.417 356.426C266.621 355.95 266.958 355.533 267.428 355.176C267.898 354.814 268.461 354.593 269.118 354.512C269.883 354.418 270.596 354.522 271.258 354.824C271.919 355.121 272.456 355.566 272.87 356.161C273.284 356.75 273.537 357.425 273.63 358.185C273.724 358.945 273.641 359.661 273.382 360.333C273.124 361.005 272.71 361.564 272.14 362.012C271.571 362.46 270.904 362.731 270.139 362.825C269.467 362.907 268.862 362.834 268.325 362.607C267.793 362.373 267.395 362.041 267.132 361.612L267.707 366.295ZM271.173 360.289C271.564 359.753 271.716 359.134 271.63 358.43C271.543 357.727 271.246 357.161 270.736 356.73C270.232 356.298 269.628 356.126 268.925 356.212C268.248 356.295 267.703 356.599 267.29 357.122C266.881 357.644 266.723 358.277 266.814 359.022C266.906 359.766 267.212 360.34 267.734 360.743C268.261 361.145 268.863 361.305 269.54 361.222C270.243 361.135 270.788 360.824 271.173 360.289ZM276.892 358.461C277.03 359.074 277.317 359.535 277.754 359.843C278.191 360.152 278.753 360.264 279.44 360.179C279.916 360.121 280.323 359.979 280.663 359.754C281.002 359.523 281.25 359.235 281.407 358.891L283.268 358.662C283.068 359.427 282.641 360.091 281.986 360.654C281.335 361.211 280.547 361.547 279.622 361.66C278.299 361.823 277.206 361.561 276.346 360.874C275.49 360.187 274.987 359.236 274.838 358.021C274.691 356.821 274.96 355.784 275.644 354.907C276.329 354.026 277.281 353.51 278.501 353.36C279.731 353.209 280.779 353.476 281.645 354.162C282.517 354.848 283.027 355.803 283.178 357.028L283.258 357.68L276.892 358.461ZM278.716 354.79C278.09 354.867 277.601 355.116 277.249 355.537C276.901 355.952 276.723 356.488 276.714 357.145L281.188 356.596C281.05 355.978 280.761 355.504 280.321 355.175C279.881 354.841 279.346 354.712 278.716 354.79ZM288.232 352.165C289.276 352.037 290.201 352.217 291.006 352.706C291.816 353.189 292.385 353.849 292.713 354.685L290.782 354.922C290.269 354.072 289.482 353.712 288.422 353.842C287.693 353.931 287.149 354.242 286.789 354.774C286.43 355.307 286.293 355.922 286.378 356.62C286.464 357.317 286.746 357.881 287.224 358.31C287.701 358.735 288.304 358.902 289.033 358.812C290.098 358.682 290.774 358.14 291.06 357.186L292.991 356.949C292.875 357.84 292.483 358.62 291.815 359.289C291.151 359.953 290.297 360.35 289.253 360.478C288.4 360.582 287.617 360.492 286.905 360.207C286.194 359.922 285.621 359.489 285.187 358.907C284.753 358.32 284.489 357.639 284.393 356.863C284.247 355.674 284.529 354.635 285.238 353.745C285.947 352.85 286.945 352.323 288.232 352.165ZM295.084 359.565L294.11 351.64L296.111 351.395L297.084 359.319L295.084 359.565ZM293.608 349.152C293.568 348.826 293.648 348.535 293.847 348.28C294.047 348.025 294.317 347.876 294.659 347.834C294.995 347.793 295.29 347.872 295.546 348.071C295.8 348.266 295.948 348.528 295.989 348.859C296.031 349.2 295.951 349.496 295.751 349.746C295.556 349.996 295.288 350.142 294.947 350.184C294.606 350.226 294.308 350.149 294.053 349.955C293.798 349.761 293.65 349.493 293.608 349.152ZM306.688 350.096L307.661 358.021L305.746 358.256L305.578 356.891C305.379 357.367 305.043 357.786 304.568 358.149C304.092 358.506 303.528 358.725 302.877 358.805C302.112 358.899 301.399 358.797 300.738 358.501C300.077 358.204 299.54 357.761 299.127 357.172C298.713 356.582 298.46 355.908 298.367 355.148C298.273 354.388 298.356 353.672 298.614 353C298.872 352.323 299.286 351.76 299.856 351.313C300.424 350.86 301.091 350.586 301.856 350.492C302.528 350.41 303.139 350.487 303.687 350.724C304.241 350.955 304.648 351.28 304.909 351.7L304.742 350.335L306.688 350.096ZM300.815 353.037C300.43 353.577 300.281 354.199 300.367 354.902C300.453 355.605 300.746 356.17 301.244 356.597C301.748 357.023 302.351 357.193 303.054 357.107C303.742 357.022 304.29 356.721 304.699 356.204C305.107 355.687 305.266 355.056 305.175 354.312C305.083 353.567 304.774 352.991 304.246 352.584C303.724 352.176 303.122 352.014 302.439 352.097C301.741 352.183 301.2 352.496 300.815 353.037ZM309.855 357.751L308.432 346.159L310.433 345.913L311.856 357.506L309.855 357.751ZM314.112 357.229L313.139 349.304L315.14 349.058L316.113 356.983L314.112 357.229ZM312.637 346.815C312.597 346.489 312.677 346.199 312.876 345.944C313.076 345.688 313.346 345.54 313.687 345.498C314.024 345.456 314.319 345.535 314.575 345.735C314.829 345.929 314.977 346.192 315.018 346.523C315.06 346.864 314.98 347.16 314.78 347.41C314.585 347.66 314.317 347.805 313.976 347.847C313.635 347.889 313.337 347.813 313.082 347.618C312.827 347.424 312.679 347.156 312.637 346.815ZM319.227 354.2C319.435 354.956 319.968 355.282 320.826 355.176C321.214 355.129 321.516 355 321.731 354.79C321.952 354.579 322.043 354.316 322.004 354.001C321.974 353.752 321.883 353.567 321.731 353.444C321.579 353.315 321.348 353.223 321.036 353.167L319.819 352.994C319.082 352.89 318.516 352.682 318.12 352.368C317.725 352.054 317.49 351.59 317.414 350.975C317.327 350.267 317.521 349.666 317.996 349.172C318.475 348.672 319.12 348.373 319.932 348.273C320.759 348.171 321.436 348.306 321.965 348.677C322.498 349.047 322.856 349.588 323.038 350.3L321.332 350.51C321.272 350.239 321.141 350.021 320.937 349.858C320.738 349.693 320.476 349.631 320.15 349.671C319.84 349.709 319.599 349.817 319.427 349.996C319.259 350.169 319.192 350.387 319.224 350.65C319.252 350.883 319.339 351.051 319.483 351.154C319.631 351.251 319.866 351.33 320.188 351.39L321.648 351.612C322.953 351.809 323.675 352.473 323.814 353.605C323.876 354.112 323.782 354.585 323.531 355.025C323.286 355.459 322.938 355.812 322.488 356.082C322.043 356.347 321.552 356.512 321.014 356.578C320.141 356.685 319.391 356.562 318.765 356.209C318.144 355.849 317.732 355.249 317.529 354.408L319.227 354.2ZM324.938 345.454L326.939 345.209L327.229 347.574L329.276 347.322L329.479 348.974L327.432 349.225L327.874 352.831C327.925 353.245 328.048 353.537 328.242 353.707C328.441 353.877 328.732 353.938 329.114 353.891C329.352 353.862 329.638 353.777 329.973 353.636L330.17 355.241C330.047 355.314 329.852 355.388 329.583 355.463C329.314 355.538 329.053 355.591 328.8 355.622C327.895 355.733 327.207 355.56 326.737 355.104C326.271 354.647 325.98 353.94 325.862 352.984L325.431 349.471L323.958 349.652L323.755 348L325.228 347.819L324.938 345.454ZM332.642 352.553C332.85 353.309 333.383 353.635 334.241 353.529C334.629 353.482 334.931 353.353 335.146 353.143C335.367 352.932 335.458 352.669 335.419 352.353C335.389 352.105 335.298 351.92 335.146 351.797C334.994 351.668 334.762 351.576 334.451 351.52L333.234 351.347C332.497 351.243 331.931 351.034 331.535 350.721C331.14 350.407 330.904 349.943 330.829 349.328C330.742 348.62 330.936 348.019 331.41 347.525C331.89 347.025 332.535 346.725 333.347 346.626C334.174 346.524 334.851 346.659 335.38 347.029C335.913 347.4 336.271 347.941 336.453 348.653L334.747 348.862C334.687 348.592 334.556 348.374 334.352 348.21C334.153 348.046 333.891 347.984 333.565 348.024C333.255 348.062 333.014 348.17 332.842 348.349C332.674 348.521 332.606 348.74 332.639 349.003C332.667 349.236 332.754 349.404 332.897 349.507C333.046 349.604 333.281 349.683 333.603 349.743L335.063 349.965C336.368 350.162 337.089 350.826 337.228 351.958C337.291 352.465 337.197 352.938 336.946 353.378C336.7 353.812 336.353 354.165 335.903 354.435C335.458 354.699 334.967 354.865 334.429 354.931C333.556 355.038 332.806 354.915 332.18 354.562C331.559 354.202 331.146 353.602 330.944 352.761L332.642 352.553Z" fill="#0033FF"/>
<line x1="174.5" y1="2.18557e-08" x2="174.5" y2="363" stroke="#9AC2E4"/>
<line y1="101.5" x2="358" y2="101.5" stroke="#9AC2E4"/>
<path d="M166.156 31.0156H168.227L170.367 36.6953L172.516 31.0156H174.578L171.266 39H169.469L166.156 31.0156ZM176.914 36.6172C177.029 37.3932 177.518 37.7812 178.383 37.7812C178.773 37.7812 179.089 37.6901 179.328 37.5078C179.573 37.3255 179.695 37.0755 179.695 36.7578C179.695 36.5078 179.628 36.3125 179.492 36.1719C179.357 36.026 179.138 35.9062 178.836 35.8125L177.648 35.4922C176.93 35.2995 176.393 35.0234 176.039 34.6641C175.685 34.3047 175.508 33.8151 175.508 33.1953C175.508 32.4818 175.773 31.9089 176.305 31.4766C176.841 31.0391 177.518 30.8203 178.336 30.8203C179.169 30.8203 179.826 31.0365 180.305 31.4688C180.789 31.901 181.078 32.4818 181.172 33.2109H179.453C179.427 32.9349 179.323 32.7031 179.141 32.5156C178.964 32.3281 178.711 32.2344 178.383 32.2344C178.07 32.2344 177.818 32.3125 177.625 32.4688C177.438 32.6198 177.344 32.8281 177.344 33.0938C177.344 33.3281 177.409 33.5052 177.539 33.625C177.674 33.7396 177.898 33.8464 178.211 33.9453L179.633 34.3438C180.904 34.6979 181.539 35.4453 181.539 36.5859C181.539 37.0964 181.388 37.5547 181.086 37.9609C180.789 38.362 180.401 38.6693 179.922 38.8828C179.448 39.0911 178.94 39.1953 178.398 39.1953C177.518 39.1953 176.789 38.9818 176.211 38.5547C175.638 38.1224 175.302 37.4766 175.203 36.6172H176.914Z" fill="#0033FF"/>
</svg>
