<svg width="148" height="24" viewBox="0 0 148 24" fill="none" xmlns="http://www.w3.org/2000/svg">
<path d="M139.423 2.67383H143.481V7.47068H147.633V10.8206H143.481V18.1339C143.481 18.9726 143.654 19.586 144 19.974C144.356 20.3619 144.923 20.5559 145.698 20.5559C146.181 20.5559 146.773 20.4563 147.476 20.2571V23.5126C147.214 23.628 146.805 23.7276 146.249 23.8114C145.693 23.8953 145.159 23.9373 144.645 23.9373C142.81 23.9373 141.478 23.4235 140.65 22.396C139.832 21.3685 139.423 19.8848 139.423 17.9451V10.8206H136.435V7.47068H139.423V2.67383Z" fill="url(#paint0_linear_2104_4)"/>
<path d="M130.742 22.7259C129.379 23.5332 127.806 23.9369 126.024 23.9369C124.241 23.9369 122.669 23.5332 121.306 22.7259C119.942 21.9186 118.915 20.8858 118.223 19.6276C117.541 18.3589 117.201 16.9906 117.201 15.5228C117.201 14.4218 117.405 13.3681 117.814 12.3616C118.223 11.3445 118.794 10.4428 119.528 9.65644C120.262 8.87007 121.19 8.24622 122.312 7.78488C123.444 7.31306 124.682 7.07715 126.024 7.07715C127.366 7.07715 128.598 7.31306 129.72 7.78488C130.852 8.24622 131.785 8.87007 132.519 9.65644C133.253 10.4428 133.825 11.3445 134.233 12.3616C134.642 13.3681 134.847 14.4218 134.847 15.5228C134.847 16.9906 134.501 18.3589 133.809 19.6276C133.127 20.8858 132.105 21.9186 130.742 22.7259ZM128.65 11.1977C127.906 10.7154 127.03 10.4743 126.024 10.4743C125.017 10.4743 124.136 10.7154 123.382 11.1977C122.637 11.68 122.081 12.2986 121.714 13.0536C121.347 13.8085 121.164 14.6315 121.164 15.5228C121.164 16.9068 121.599 18.0916 122.469 19.0771C123.34 20.0627 124.524 20.5555 126.024 20.5555C127.523 20.5555 128.708 20.0627 129.578 19.0771C130.448 18.0916 130.884 16.9068 130.884 15.5228C130.884 14.6315 130.7 13.8085 130.333 13.0536C129.966 12.2986 129.405 11.68 128.65 11.1977Z" fill="url(#paint1_linear_2104_4)"/>
<path d="M94.396 23.5438V0.990723H101.033C103.182 0.990723 105.127 1.29479 106.868 1.90291C108.608 2.50055 110.029 3.31838 111.13 4.35638C112.241 5.39439 113.091 6.58967 113.678 7.94223C114.265 9.2843 114.559 10.726 114.559 12.2673C114.559 13.8085 114.265 15.2555 113.678 16.608C113.091 17.9501 112.241 19.1401 111.13 20.1781C110.029 21.2161 108.608 22.0392 106.868 22.6473C105.127 23.245 103.182 23.5438 101.033 23.5438H94.396ZM98.5795 20.0051H100.671C103.806 20.0051 106.207 19.3236 107.874 17.9606C109.541 16.5975 110.375 14.6998 110.375 12.2673C110.375 9.83476 109.541 7.94223 107.874 6.58967C106.207 5.22663 103.806 4.54511 100.671 4.54511H98.5795V20.0051Z" fill="url(#paint2_linear_2104_4)"/>
<path d="M86.7523 23.5438L84.755 20.9016C83.0354 22.9671 80.6868 23.9999 77.7091 23.9999C75.35 23.9999 73.405 23.3341 71.8742 22.0025C70.3539 20.6604 69.5938 18.8885 69.5938 16.6867C69.5938 14.7574 70.1704 13.1742 71.3238 11.937C72.4771 10.6998 74.0236 9.80331 75.9633 9.2476L69.8139 1.16372V0.990723H85.7615V4.34066H77.0014L84.5033 14.5949L86.1704 10.9147H90.1023L86.7838 17.7719L91.0459 23.5438H86.7523ZM77.9922 20.8387C79.0512 20.8387 79.9529 20.629 80.6973 20.2096C81.4417 19.7797 82.118 19.1087 82.7261 18.1965L77.772 11.6854C74.983 12.6185 73.5885 14.2751 73.5885 16.6552C73.5885 17.9449 73.9765 18.9671 74.7523 19.722C75.5282 20.4665 76.6082 20.8387 77.9922 20.8387Z" fill="url(#paint3_linear_2104_4)"/>
<path d="M61.5255 0.03125H65.5831V23.5437H61.6985V20.7757C61.1847 21.6774 60.4088 22.4323 59.3708 23.0404C58.3328 23.6381 57.1532 23.9369 55.8321 23.9369C54.2804 23.9369 52.8806 23.5594 51.6329 22.8045C50.3852 22.0496 49.4206 21.0326 48.7391 19.7534C48.0576 18.4742 47.7168 17.064 47.7168 15.5227C47.7168 13.9814 48.0576 12.5712 48.7391 11.2921C49.4206 10.0024 50.3852 8.98014 51.6329 8.22522C52.8806 7.45982 54.2804 7.07712 55.8321 7.07712C57.1847 7.07712 58.3642 7.37594 59.3708 7.97358C60.3774 8.57122 61.0956 9.32614 61.5255 10.2383V0.03125ZM53.127 11.9054C52.2253 12.891 51.7745 14.0968 51.7745 15.5227C51.7745 16.9487 52.2201 18.1492 53.1113 19.1243C54.013 20.0994 55.1768 20.587 56.6028 20.587C57.9973 20.587 59.1663 20.1204 60.11 19.1872C61.0536 18.2541 61.5255 17.0326 61.5255 15.5227C61.5255 14.0129 61.0484 12.7862 60.0943 11.8425C59.1506 10.8989 57.9868 10.4271 56.6028 10.4271C55.1873 10.4271 54.0287 10.9198 53.127 11.9054Z" fill="url(#paint4_linear_2104_4)"/>
<path d="M40.0734 23.5439V7.47051H44.131V23.5439H40.0734ZM39.6802 2.37484C39.6802 1.71429 39.9108 1.15334 40.3722 0.692005C40.8335 0.230668 41.4102 0 42.1022 0C42.7837 0 43.3551 0.230668 43.8165 0.692005C44.2778 1.14286 44.5085 1.7038 44.5085 2.37484C44.5085 3.06684 44.2778 3.63827 43.8165 4.08912C43.3656 4.53997 42.7942 4.7654 42.1022 4.7654C41.4102 4.7654 40.8335 4.53997 40.3722 4.08912C39.9108 3.63827 39.6802 3.06684 39.6802 2.37484Z" fill="url(#paint5_linear_2104_4)"/>
<path d="M37.2111 11.245H36.3304C34.7262 11.245 33.5309 11.6801 32.7445 12.5503C31.9582 13.4206 31.565 14.6788 31.565 16.3249V23.5438H27.5073V7.47039H31.4392V10.8832C31.7328 9.6565 32.4038 8.73906 33.4523 8.13094C34.5008 7.52281 35.7537 7.21875 37.2111 7.21875V11.245Z" fill="url(#paint6_linear_2104_4)"/>
<path d="M18.9672 8.17808C18.3277 6.94086 17.4312 5.96052 16.2779 5.23706C15.135 4.5136 13.7457 4.15187 12.1101 4.15187C9.7405 4.15187 7.827 4.91202 6.3696 6.43234C4.91219 7.94217 4.18349 9.88712 4.18349 12.2672C4.18349 14.7521 4.90695 16.7443 6.35387 18.2436C7.80079 19.7325 9.70905 20.4769 12.0786 20.4769C13.9869 20.4769 15.5649 20.0365 16.8126 19.1558C18.0708 18.2646 18.9201 17.085 19.3604 15.6171H10.8205V12.1728H23.8742V12.2357C23.8742 14.4481 23.3919 16.4454 22.4273 18.2279C21.4731 19.9998 20.0944 21.4048 18.291 22.4428C16.498 23.4808 14.4378 23.9998 12.1101 23.9998C10.3277 23.9998 8.67628 23.6958 7.15597 23.0876C5.63565 22.469 4.35649 21.6355 3.31848 20.587C2.28047 19.528 1.46789 18.2803 0.880734 16.8439C0.293578 15.4074 0 13.8819 0 12.2672C0 10.6316 0.293578 9.09551 0.880734 7.65907C1.46789 6.22264 2.28047 4.98018 3.31848 3.93168C4.35649 2.88319 5.63565 2.06012 7.15597 1.46248C8.67628 0.854356 10.3277 0.550293 12.1101 0.550293C14.7942 0.550293 17.0957 1.22133 19.0144 2.5634C20.9332 3.90547 22.3067 5.77703 23.135 8.17808H18.9672Z" fill="url(#paint7_linear_2104_4)"/>
<defs>
<linearGradient id="paint0_linear_2104_4" x1="-1.4156" y1="13.7302" x2="162.653" y2="13.7302" gradientUnits="userSpaceOnUse">
<stop stop-color="#0033FF"/>
<stop offset="1"/>
</linearGradient>
<linearGradient id="paint1_linear_2104_4" x1="-1.41535" y1="13.7298" x2="162.653" y2="13.7298" gradientUnits="userSpaceOnUse">
<stop stop-color="#0033FF"/>
<stop offset="1"/>
</linearGradient>
<linearGradient id="paint2_linear_2104_4" x1="-1.41532" y1="13.7299" x2="162.653" y2="13.7299" gradientUnits="userSpaceOnUse">
<stop stop-color="#0033FF"/>
<stop offset="1"/>
</linearGradient>
<linearGradient id="paint3_linear_2104_4" x1="-1.41546" y1="13.7299" x2="162.653" y2="13.7299" gradientUnits="userSpaceOnUse">
<stop stop-color="#0033FF"/>
<stop offset="1"/>
</linearGradient>
<linearGradient id="paint4_linear_2104_4" x1="-1.4156" y1="13.7298" x2="162.653" y2="13.7298" gradientUnits="userSpaceOnUse">
<stop stop-color="#0033FF"/>
<stop offset="1"/>
</linearGradient>
<linearGradient id="paint5_linear_2104_4" x1="-1.41552" y1="13.73" x2="162.653" y2="13.73" gradientUnits="userSpaceOnUse">
<stop stop-color="#0033FF"/>
<stop offset="1"/>
</linearGradient>
<linearGradient id="paint6_linear_2104_4" x1="-1.41536" y1="13.7299" x2="162.653" y2="13.7299" gradientUnits="userSpaceOnUse">
<stop stop-color="#0033FF"/>
<stop offset="1"/>
</linearGradient>
<linearGradient id="paint7_linear_2104_4" x1="-1.41547" y1="13.7298" x2="162.653" y2="13.7298" gradientUnits="userSpaceOnUse">
<stop stop-color="#0033FF"/>
<stop offset="1"/>
</linearGradient>
</defs>
</svg>
