<svg width="1319" height="438" viewBox="0 0 1319 438" fill="none" xmlns="http://www.w3.org/2000/svg">
<path d="M474.234 22.0234H477.34L480.551 30.543L483.773 22.0234H486.867L481.898 34H479.203L474.234 22.0234ZM490.371 30.4258C490.543 31.5898 491.277 32.1719 492.574 32.1719C493.16 32.1719 493.633 32.0352 493.992 31.7617C494.359 31.4883 494.543 31.1133 494.543 30.6367C494.543 30.2617 494.441 29.9688 494.238 29.7578C494.035 29.5391 493.707 29.3594 493.254 29.2188L491.473 28.7383C490.395 28.4492 489.59 28.0352 489.059 27.4961C488.527 26.957 488.262 26.2227 488.262 25.293C488.262 24.2227 488.66 23.3633 489.457 22.7148C490.262 22.0586 491.277 21.7305 492.504 21.7305C493.754 21.7305 494.738 22.0547 495.457 22.7031C496.184 23.3516 496.617 24.2227 496.758 25.3164H494.18C494.141 24.9023 493.984 24.5547 493.711 24.2734C493.445 23.9922 493.066 23.8516 492.574 23.8516C492.105 23.8516 491.727 23.9688 491.438 24.2031C491.156 24.4297 491.016 24.7422 491.016 25.1406C491.016 25.4922 491.113 25.7578 491.309 25.9375C491.512 26.1094 491.848 26.2695 492.316 26.418L494.449 27.0156C496.355 27.5469 497.309 28.668 497.309 30.3789C497.309 31.1445 497.082 31.832 496.629 32.4414C496.184 33.043 495.602 33.5039 494.883 33.8242C494.172 34.1367 493.41 34.293 492.598 34.293C491.277 34.293 490.184 33.9727 489.316 33.332C488.457 32.6836 487.953 31.7148 487.805 30.4258H490.371Z" fill="#0033FF"/>
<line x1="486.5" x2="486.5" y2="438" stroke="#9AC2E4"/>
<line y1="101.5" x2="1319" y2="101.5" stroke="#9AC2E4"/>
<rect x="1021" y="99.0391" width="277.527" height="36" rx="18" transform="rotate(-6.00635 1021 99.0391)" fill="#9AC2E4"/>
<path d="M1049.41 121.188L1046.41 121.504L1045.15 109.593L1048.07 109.287L1048.28 111.314C1048.48 110.579 1048.91 109.964 1049.58 109.469C1050.25 108.974 1051.06 108.677 1052 108.578C1053.4 108.43 1054.55 108.781 1055.43 109.631C1056.31 110.481 1056.84 111.663 1057 113.178L1057.75 120.311L1054.74 120.627L1054.04 113.996C1053.95 113.102 1053.66 112.413 1053.19 111.929C1052.71 111.437 1052.04 111.237 1051.18 111.327C1050.36 111.414 1049.72 111.756 1049.26 112.354C1048.81 112.952 1048.62 113.678 1048.71 114.533L1049.41 121.188ZM1062.63 114.8C1062.82 115.723 1063.24 116.421 1063.89 116.895C1064.54 117.369 1065.38 117.552 1066.41 117.443C1067.13 117.368 1067.74 117.166 1068.26 116.836C1068.77 116.5 1069.15 116.075 1069.39 115.562L1072.19 115.268C1071.87 116.409 1071.21 117.393 1070.22 118.221C1069.23 119.04 1068.04 119.523 1066.65 119.669C1064.66 119.878 1063.03 119.457 1061.75 118.405C1060.49 117.352 1059.76 115.912 1059.57 114.086C1059.38 112.284 1059.81 110.734 1060.86 109.437C1061.9 108.133 1063.35 107.384 1065.18 107.191C1067.03 106.997 1068.59 107.425 1069.87 108.477C1071.16 109.527 1071.91 110.973 1072.1 112.815L1072.2 113.794L1062.63 114.8ZM1065.46 109.341C1064.52 109.44 1063.78 109.801 1063.25 110.423C1062.71 111.037 1062.43 111.836 1062.4 112.822L1069.13 112.114C1068.93 111.184 1068.51 110.466 1067.86 109.961C1067.21 109.448 1066.41 109.242 1065.46 109.341ZM1080.99 105.822L1084.14 105.491L1080.56 111.853L1085.52 117.389L1082.34 117.723L1079.23 114.291L1076.92 118.294L1073.75 118.627L1077.44 112.182L1072.61 106.704L1075.77 106.372L1078.75 109.746L1080.99 105.822ZM1086.9 101.607L1089.9 101.291L1090.28 104.845L1093.36 104.521L1093.62 107.004L1090.54 107.328L1091.11 112.747C1091.18 113.368 1091.35 113.809 1091.64 114.07C1091.93 114.33 1092.37 114.429 1092.94 114.369C1093.3 114.331 1093.73 114.211 1094.24 114.009L1094.49 116.421C1094.3 116.527 1094.01 116.633 1093.6 116.738C1093.2 116.844 1092.81 116.917 1092.43 116.957C1091.07 117.1 1090.04 116.823 1089.34 116.126C1088.66 115.428 1088.24 114.361 1088.09 112.923L1087.53 107.644L1085.32 107.877L1085.06 105.394L1087.27 105.162L1086.9 101.607ZM1095.65 107.968L1103.05 107.189L1103.33 109.847L1095.93 110.625L1095.65 107.968ZM1110.79 102.392C1111.8 102.286 1112.7 102.419 1113.5 102.791C1114.31 103.154 1114.9 103.669 1115.27 104.337L1115.04 102.239L1118 101.928L1119.24 113.676C1119.4 115.206 1118.92 116.557 1117.78 117.729C1116.66 118.901 1115.17 119.583 1113.32 119.778C1111.74 119.944 1110.36 119.74 1109.17 119.166C1107.98 118.592 1107.09 117.656 1106.49 116.36L1109.47 116.046C1110.2 117.164 1111.4 117.635 1113.05 117.461C1114.12 117.349 1114.94 116.988 1115.52 116.377C1116.1 115.766 1116.34 114.971 1116.23 113.992L1115.99 111.673C1115.69 112.348 1115.2 112.931 1114.5 113.42C1113.81 113.909 1113 114.203 1112.05 114.303C1110.9 114.424 1109.84 114.268 1108.88 113.835C1107.92 113.402 1107.15 112.76 1106.56 111.91C1105.99 111.06 1105.64 110.083 1105.53 108.979C1105.41 107.876 1105.54 106.849 1105.93 105.897C1106.33 104.936 1106.95 104.144 1107.79 103.521C1108.64 102.889 1109.64 102.513 1110.79 102.392ZM1112.36 111.76C1113.37 111.654 1114.18 111.242 1114.81 110.524C1115.44 109.806 1115.7 108.938 1115.59 107.92C1115.49 106.894 1115.05 106.096 1114.28 105.525C1113.52 104.945 1112.64 104.708 1111.63 104.814C1110.59 104.924 1109.78 105.343 1109.2 106.071C1108.63 106.791 1108.4 107.656 1108.51 108.666C1108.61 109.668 1109.02 110.461 1109.74 111.046C1110.45 111.631 1111.32 111.869 1112.36 111.76ZM1124.26 108.316C1124.45 109.239 1124.87 109.937 1125.52 110.411C1126.17 110.885 1127.01 111.067 1128.04 110.959C1128.75 110.883 1129.37 110.681 1129.88 110.352C1130.4 110.015 1130.78 109.59 1131.02 109.078L1133.82 108.783C1133.5 109.925 1132.84 110.909 1131.85 111.737C1130.86 112.556 1129.66 113.038 1128.27 113.185C1126.29 113.394 1124.65 112.972 1123.38 111.92C1122.11 110.867 1121.39 109.428 1121.19 107.602C1121 105.799 1121.43 104.25 1122.48 102.953C1123.53 101.649 1124.97 100.9 1126.81 100.707C1128.66 100.513 1130.22 100.941 1131.5 101.992C1132.79 103.043 1133.53 104.489 1133.73 106.33L1133.83 107.309L1124.26 108.316ZM1127.09 102.857C1126.15 102.956 1125.41 103.317 1124.87 103.939C1124.34 104.553 1124.06 105.352 1124.03 106.337L1130.75 105.63C1130.56 104.699 1130.14 103.982 1129.49 103.477C1128.84 102.964 1128.04 102.757 1127.09 102.857ZM1139.92 111.665L1136.91 111.981L1135.66 100.07L1138.57 99.7636L1138.79 101.791C1138.99 101.056 1139.42 100.441 1140.09 99.9459C1140.76 99.4511 1141.57 99.1543 1142.51 99.0553C1143.91 98.9074 1145.06 99.2583 1145.94 100.108C1146.82 100.958 1147.34 102.14 1147.5 103.655L1148.25 110.788L1145.25 111.104L1144.55 104.473C1144.46 103.579 1144.17 102.891 1143.7 102.406C1143.22 101.914 1142.55 101.714 1141.69 101.805C1140.86 101.891 1140.22 102.233 1139.77 102.831C1139.31 103.429 1139.13 104.155 1139.22 105.01L1139.92 111.665ZM1158.52 106.114C1158.81 107.253 1159.6 107.755 1160.89 107.62C1161.48 107.558 1161.93 107.373 1162.26 107.063C1162.6 106.753 1162.74 106.361 1162.69 105.887C1162.65 105.514 1162.52 105.233 1162.3 105.045C1162.07 104.848 1161.73 104.704 1161.26 104.612L1159.44 104.32C1158.34 104.146 1157.49 103.818 1156.91 103.337C1156.32 102.857 1155.98 102.154 1155.89 101.23C1155.77 100.165 1156.08 99.269 1156.8 98.5408C1157.54 97.8039 1158.51 97.3713 1159.73 97.243C1160.97 97.1122 1161.99 97.3316 1162.77 97.9013C1163.56 98.4701 1164.08 99.2911 1164.34 100.364L1161.77 100.634C1161.69 100.226 1161.5 99.8968 1161.2 99.6457C1160.9 99.3938 1160.51 99.2936 1160.02 99.3451C1159.56 99.3941 1159.19 99.5503 1158.93 99.8136C1158.67 100.068 1158.57 100.394 1158.61 100.79C1158.65 101.14 1158.77 101.394 1158.98 101.552C1159.2 101.702 1159.55 101.826 1160.04 101.924L1162.22 102.296C1164.17 102.624 1165.24 103.64 1165.42 105.341C1165.5 106.103 1165.34 106.81 1164.95 107.463C1164.57 108.108 1164.04 108.628 1163.36 109.021C1162.69 109.407 1161.95 109.642 1161.14 109.727C1159.83 109.865 1158.71 109.661 1157.78 109.114C1156.85 108.559 1156.25 107.649 1155.97 106.382L1158.52 106.114ZM1171.73 113.362L1168.72 113.678L1166.94 96.779L1169.83 96.4749L1170.05 98.526C1170.37 97.817 1170.88 97.201 1171.6 96.678C1172.31 96.1472 1173.16 95.8299 1174.15 95.7261C1175.3 95.6051 1176.37 95.7796 1177.35 96.2495C1178.33 96.7116 1179.13 97.3939 1179.73 98.2965C1180.34 99.1912 1180.7 100.21 1180.82 101.352C1180.94 102.494 1180.8 103.566 1180.39 104.567C1179.99 105.568 1179.35 106.396 1178.49 107.053C1177.62 107.71 1176.61 108.099 1175.46 108.22C1174.45 108.326 1173.55 108.201 1172.75 107.845C1171.96 107.481 1171.37 106.973 1170.99 106.322L1171.73 113.362ZM1177.08 104.444C1177.68 103.65 1177.92 102.725 1177.81 101.668C1177.7 100.612 1177.27 99.7536 1176.52 99.0943C1175.77 98.4343 1174.87 98.1599 1173.82 98.271C1172.8 98.3781 1171.97 98.8185 1171.34 99.5922C1170.71 100.365 1170.46 101.311 1170.58 102.43C1170.69 103.548 1171.14 104.417 1171.91 105.035C1172.69 105.652 1173.59 105.907 1174.61 105.8C1175.66 105.689 1176.49 105.237 1177.08 104.444ZM1185.7 101.851C1185.9 102.774 1186.31 103.472 1186.96 103.946C1187.61 104.42 1188.45 104.603 1189.48 104.494C1190.2 104.419 1190.81 104.217 1191.33 103.887C1191.84 103.55 1192.22 103.126 1192.47 102.613L1195.26 102.319C1194.94 103.46 1194.28 104.444 1193.29 105.272C1192.3 106.091 1191.11 106.574 1189.72 106.72C1187.73 106.929 1186.1 106.508 1184.82 105.456C1183.56 104.403 1182.83 102.963 1182.64 101.137C1182.45 99.3347 1182.88 97.7851 1183.93 96.4884C1184.98 95.184 1186.42 94.4353 1188.25 94.2424C1190.1 94.0478 1191.66 94.4762 1192.95 95.5276C1194.23 96.5782 1194.98 98.0242 1195.17 99.8656L1195.27 100.845L1185.7 101.851ZM1188.54 96.3923C1187.6 96.4912 1186.86 96.8519 1186.32 97.4742C1185.78 98.088 1185.5 98.8874 1185.47 99.8725L1192.2 99.165C1192 98.2347 1191.58 97.517 1190.93 97.0119C1190.28 96.4991 1189.48 96.2926 1188.54 96.3923ZM1202.88 92.7035C1204.45 92.5383 1205.83 92.8328 1207.02 93.5869C1208.22 94.3324 1209.06 95.3364 1209.53 96.5988L1206.63 96.9041C1205.88 95.616 1204.71 95.0557 1203.12 95.2233C1202.02 95.3385 1201.2 95.7906 1200.64 96.5793C1200.09 97.3681 1199.87 98.287 1199.98 99.3359C1200.09 100.385 1200.5 101.237 1201.2 101.894C1201.91 102.542 1202.81 102.809 1203.9 102.694C1205.5 102.525 1206.53 101.73 1206.99 100.307L1209.89 100.002C1209.69 101.335 1209.08 102.494 1208.06 103.482C1207.05 104.46 1205.76 105.032 1204.19 105.197C1202.91 105.332 1201.74 105.176 1200.68 104.73C1199.62 104.284 1198.77 103.619 1198.13 102.735C1197.5 101.844 1197.12 100.815 1197 99.6498C1196.81 97.8628 1197.26 96.3111 1198.35 94.9949C1199.43 93.6708 1200.94 92.907 1202.88 92.7035ZM1212.96 103.98L1211.71 92.069L1214.71 91.7526L1215.97 103.663L1212.96 103.98ZM1211.02 88.3236C1210.97 87.8341 1211.09 87.4005 1211.4 87.0227C1211.7 86.6448 1212.11 86.4289 1212.63 86.375C1213.13 86.3218 1213.57 86.4482 1213.95 86.7541C1214.33 87.0522 1214.54 87.4499 1214.6 87.9472C1214.65 88.46 1214.52 88.9014 1214.22 89.2715C1213.92 89.6407 1213.51 89.8523 1213 89.9063C1212.49 89.9602 1212.04 89.8381 1211.66 89.54C1211.29 89.2419 1211.07 88.8364 1211.02 88.3236ZM1230.61 90.0801L1231.86 101.991L1228.98 102.294L1228.77 100.243C1228.46 100.951 1227.94 101.571 1227.22 102.102C1226.5 102.626 1225.65 102.939 1224.67 103.042C1223.52 103.163 1222.45 102.993 1221.47 102.531C1220.48 102.069 1219.69 101.39 1219.09 100.495C1218.48 99.6007 1218.12 98.5822 1218 97.4401C1217.88 96.298 1218.02 95.2264 1218.43 94.2254C1218.83 93.2166 1219.47 92.3838 1220.33 91.7271C1221.2 91.0627 1222.2 90.6699 1223.35 90.549C1224.36 90.4427 1225.28 90.5744 1226.09 90.9441C1226.92 91.3052 1227.52 91.8035 1227.9 92.439L1227.68 90.3878L1230.61 90.0801ZM1221.73 94.3378C1221.13 95.1384 1220.89 96.0671 1221 97.1237C1221.12 98.1804 1221.54 99.0353 1222.28 99.6884C1223.02 100.341 1223.92 100.611 1224.98 100.5C1226.01 100.391 1226.84 99.9544 1227.47 99.1893C1228.09 98.4243 1228.35 97.4823 1228.23 96.3635C1228.11 95.2447 1227.66 94.3728 1226.88 93.7479C1226.11 93.1222 1225.21 92.8634 1224.19 92.9713C1223.14 93.0816 1222.32 93.5371 1221.73 94.3378ZM1235.16 101.644L1233.33 84.2205L1236.33 83.9041L1238.17 101.327L1235.16 101.644ZM1241.56 100.971L1240.31 89.0598L1243.31 88.7435L1244.57 100.654L1241.56 100.971ZM1239.62 85.3144C1239.57 84.825 1239.69 84.3913 1240 84.0135C1240.3 83.6356 1240.71 83.4197 1241.23 83.3658C1241.73 83.3127 1242.17 83.439 1242.55 83.7449C1242.93 84.0431 1243.14 84.4407 1243.2 84.938C1243.25 85.4508 1243.12 85.8922 1242.82 86.2623C1242.52 86.6315 1242.11 86.8431 1241.6 86.8971C1241.09 86.951 1240.64 86.829 1240.26 86.5308C1239.89 86.2327 1239.67 85.8272 1239.62 85.3144ZM1249.31 96.5614C1249.6 97.701 1250.39 98.203 1251.68 98.0673C1252.26 98.006 1252.72 97.8206 1253.05 97.5111C1253.39 97.2007 1253.53 96.8085 1253.48 96.3346C1253.44 95.9617 1253.31 95.6809 1253.08 95.4924C1252.86 95.2961 1252.51 95.1517 1252.05 95.0593L1250.23 94.7679C1249.12 94.5932 1248.28 94.2656 1247.7 93.7851C1247.11 93.3046 1246.77 92.602 1246.67 91.6774C1246.56 90.613 1246.87 89.7167 1247.59 88.9884C1248.32 88.2515 1249.3 87.819 1250.52 87.6906C1251.76 87.5598 1252.78 87.7792 1253.56 88.3489C1254.35 88.9178 1254.87 89.7387 1255.13 90.8117L1252.56 91.0815C1252.48 90.6738 1252.29 90.3444 1251.99 90.0933C1251.69 89.8414 1251.3 89.7412 1250.81 89.7927C1250.35 89.8417 1249.98 89.9979 1249.72 90.2613C1249.46 90.516 1249.35 90.8415 1249.4 91.2378C1249.43 91.5874 1249.56 91.8414 1249.77 91.9996C1249.99 92.1493 1250.34 92.2734 1250.82 92.372L1253.01 92.7432C1254.96 93.0721 1256.02 94.0873 1256.2 95.7888C1256.28 96.5502 1256.13 97.2577 1255.74 97.9111C1255.36 98.556 1254.83 99.0753 1254.15 99.469C1253.48 99.8542 1252.74 100.089 1251.93 100.174C1250.61 100.312 1249.49 100.108 1248.56 99.562C1247.64 99.0071 1247.04 98.0964 1246.76 96.8299L1249.31 96.5614ZM1258.1 83.5935L1261.11 83.2772L1261.48 86.8318L1264.56 86.508L1264.82 88.9904L1261.74 89.3141L1262.31 94.7335C1262.38 95.355 1262.55 95.7961 1262.84 96.0566C1263.14 96.3162 1263.57 96.4158 1264.15 96.3553C1264.5 96.3177 1264.93 96.1977 1265.44 95.9953L1265.69 98.4078C1265.51 98.5137 1265.21 98.6194 1264.81 98.7249C1264.4 98.8304 1264.01 98.9031 1263.63 98.9432C1262.27 99.0863 1261.24 98.8094 1260.55 98.1125C1259.86 97.4149 1259.44 96.3473 1259.29 94.91L1258.74 89.6305L1256.52 89.8635L1256.26 87.3811L1258.48 87.1481L1258.1 83.5935ZM1269.47 94.44C1269.76 95.5797 1270.55 96.0817 1271.84 95.9459C1272.43 95.8846 1272.88 95.6992 1273.21 95.3897C1273.55 95.0793 1273.69 94.6872 1273.64 94.2132C1273.6 93.8403 1273.47 93.5595 1273.25 93.371C1273.02 93.1747 1272.68 93.0304 1272.21 92.9379L1270.39 92.6465C1269.29 92.4718 1268.44 92.1442 1267.86 91.6637C1267.27 91.1832 1266.93 90.4806 1266.84 89.5561C1266.72 88.4916 1267.03 87.5953 1267.75 86.867C1268.49 86.1302 1269.46 85.6976 1270.68 85.5692C1271.92 85.4384 1272.94 85.6579 1273.72 86.2275C1274.51 86.7964 1275.03 87.6173 1275.29 88.6903L1272.72 88.9601C1272.64 88.5524 1272.45 88.223 1272.15 87.9719C1271.85 87.72 1271.46 87.6198 1270.97 87.6713C1270.51 87.7204 1270.14 87.8766 1269.88 88.1399C1269.62 88.3946 1269.52 88.7201 1269.56 89.1164C1269.6 89.466 1269.72 89.72 1269.93 89.8782C1270.15 90.0279 1270.5 90.152 1270.99 90.2506L1273.17 90.6218C1275.12 90.9507 1276.19 91.9659 1276.37 93.6674C1276.45 94.4288 1276.29 95.1363 1275.9 95.7897C1275.53 96.4346 1274.99 96.9539 1274.31 97.3477C1273.64 97.7328 1272.9 97.9679 1272.09 98.0529C1270.78 98.1911 1269.66 97.987 1268.73 97.4406C1267.8 96.8857 1267.2 95.975 1266.92 94.7085L1269.47 94.44Z" fill="#0033FF"/>
</svg>
