<svg width="295" height="48" viewBox="0 0 295 48" fill="none" xmlns="http://www.w3.org/2000/svg">
<path d="M277.844 5.53125H285.906V15.0625H294.156V21.7188H285.906V36.25C285.906 37.9167 286.25 39.1354 286.938 39.9062C287.646 40.6771 288.771 41.0625 290.312 41.0625C291.271 41.0625 292.448 40.8646 293.844 40.4688V46.9375C293.323 47.1667 292.51 47.3646 291.406 47.5312C290.302 47.6979 289.24 47.7812 288.219 47.7812C284.573 47.7812 281.927 46.7604 280.281 44.7188C278.656 42.6771 277.844 39.7292 277.844 35.875V21.7188H271.906V15.0625H277.844V5.53125Z" fill="url(#paint0_linear_2229_4)"/>
<path d="M260.594 45.375C257.885 46.9792 254.76 47.7812 251.219 47.7812C247.677 47.7812 244.552 46.9792 241.844 45.375C239.135 43.7708 237.094 41.7188 235.719 39.2188C234.365 36.6979 233.688 33.9792 233.688 31.0625C233.688 28.875 234.094 26.7812 234.906 24.7812C235.719 22.7604 236.854 20.9688 238.312 19.4062C239.771 17.8438 241.615 16.6042 243.844 15.6875C246.094 14.75 248.552 14.2812 251.219 14.2812C253.885 14.2812 256.333 14.75 258.562 15.6875C260.812 16.6042 262.667 17.8438 264.125 19.4062C265.583 20.9688 266.719 22.7604 267.531 24.7812C268.344 26.7812 268.75 28.875 268.75 31.0625C268.75 33.9792 268.062 36.6979 266.688 39.2188C265.333 41.7188 263.302 43.7708 260.594 45.375ZM256.438 22.4688C254.958 21.5104 253.219 21.0312 251.219 21.0312C249.219 21.0312 247.469 21.5104 245.969 22.4688C244.49 23.4271 243.385 24.6562 242.656 26.1562C241.927 27.6562 241.562 29.2917 241.562 31.0625C241.562 33.8125 242.427 36.1667 244.156 38.125C245.885 40.0833 248.24 41.0625 251.219 41.0625C254.198 41.0625 256.552 40.0833 258.281 38.125C260.01 36.1667 260.875 33.8125 260.875 31.0625C260.875 29.2917 260.51 27.6562 259.781 26.1562C259.052 24.6562 257.938 23.4271 256.438 22.4688Z" fill="url(#paint1_linear_2229_4)"/>
<path d="M188.375 47V2.1875H201.562C205.833 2.1875 209.698 2.79167 213.156 4C216.615 5.1875 219.438 6.8125 221.625 8.875C223.833 10.9375 225.521 13.3125 226.688 16C227.854 18.6667 228.438 21.5312 228.438 24.5938C228.438 27.6562 227.854 30.5312 226.688 33.2188C225.521 35.8854 223.833 38.25 221.625 40.3125C219.438 42.375 216.615 44.0104 213.156 45.2188C209.698 46.4062 205.833 47 201.562 47H188.375ZM196.688 39.9688H200.844C207.073 39.9688 211.844 38.6146 215.156 35.9062C218.469 33.1979 220.125 29.4271 220.125 24.5938C220.125 19.7604 218.469 16 215.156 13.3125C211.844 10.6042 207.073 9.25 200.844 9.25H196.688V39.9688Z" fill="url(#paint2_linear_2229_4)"/>
<path d="M173.188 47L169.219 41.75C165.802 45.8542 161.135 47.9062 155.219 47.9062C150.531 47.9062 146.667 46.5833 143.625 43.9375C140.604 41.2708 139.094 37.75 139.094 33.375C139.094 29.5417 140.24 26.3958 142.531 23.9375C144.823 21.4792 147.896 19.6979 151.75 18.5938L139.531 2.53125V2.1875H171.219V8.84375H153.812L168.719 29.2188L172.031 21.9062H179.844L173.25 35.5312L181.719 47H173.188ZM155.781 41.625C157.885 41.625 159.677 41.2083 161.156 40.375C162.635 39.5208 163.979 38.1875 165.188 36.375L155.344 23.4375C149.802 25.2917 147.031 28.5833 147.031 33.3125C147.031 35.875 147.802 37.9062 149.344 39.4062C150.885 40.8854 153.031 41.625 155.781 41.625Z" fill="url(#paint3_linear_2229_4)"/>
<path d="M123.062 0.28125H131.125V47H123.406V41.5C122.385 43.2917 120.844 44.7917 118.781 46C116.719 47.1875 114.375 47.7812 111.75 47.7812C108.667 47.7812 105.885 47.0312 103.406 45.5312C100.927 44.0312 99.0104 42.0104 97.6562 39.4688C96.3021 36.9271 95.625 34.125 95.625 31.0625C95.625 28 96.3021 25.1979 97.6562 22.6562C99.0104 20.0938 100.927 18.0625 103.406 16.5625C105.885 15.0417 108.667 14.2812 111.75 14.2812C114.438 14.2812 116.781 14.875 118.781 16.0625C120.781 17.25 122.208 18.75 123.062 20.5625V0.28125ZM106.375 23.875C104.583 25.8333 103.688 28.2292 103.688 31.0625C103.688 33.8958 104.573 36.2812 106.344 38.2188C108.135 40.1562 110.448 41.125 113.281 41.125C116.052 41.125 118.375 40.1979 120.25 38.3438C122.125 36.4896 123.062 34.0625 123.062 31.0625C123.062 28.0625 122.115 25.625 120.219 23.75C118.344 21.875 116.031 20.9375 113.281 20.9375C110.469 20.9375 108.167 21.9167 106.375 23.875Z" fill="url(#paint4_linear_2229_4)"/>
<path d="M80.4375 47V15.0625H88.5V47H80.4375ZM79.6562 4.9375C79.6562 3.625 80.1146 2.51042 81.0312 1.59375C81.9479 0.677083 83.0938 0.21875 84.4688 0.21875C85.8229 0.21875 86.9583 0.677083 87.875 1.59375C88.7917 2.48958 89.25 3.60417 89.25 4.9375C89.25 6.3125 88.7917 7.44792 87.875 8.34375C86.9792 9.23958 85.8438 9.6875 84.4688 9.6875C83.0938 9.6875 81.9479 9.23958 81.0312 8.34375C80.1146 7.44792 79.6562 6.3125 79.6562 4.9375Z" fill="url(#paint5_linear_2229_4)"/>
<path d="M74.75 22.5625H73C69.8125 22.5625 67.4375 23.4271 65.875 25.1562C64.3125 26.8854 63.5312 29.3854 63.5312 32.6562V47H55.4688V15.0625H63.2812V21.8438C63.8646 19.4062 65.1979 17.5833 67.2812 16.375C69.3646 15.1667 71.8542 14.5625 74.75 14.5625V22.5625Z" fill="url(#paint6_linear_2229_4)"/>
<path d="M38.5 16.4688C37.2292 14.0104 35.4479 12.0625 33.1562 10.625C30.8854 9.1875 28.125 8.46875 24.875 8.46875C20.1667 8.46875 16.3646 9.97917 13.4688 13C10.5729 16 9.125 19.8646 9.125 24.5938C9.125 29.5312 10.5625 33.4896 13.4375 36.4688C16.3125 39.4271 20.1042 40.9062 24.8125 40.9062C28.6042 40.9062 31.7396 40.0312 34.2188 38.2812C36.7188 36.5104 38.4062 34.1667 39.2812 31.25H22.3125V24.4062H48.25V24.5312C48.25 28.9271 47.2917 32.8958 45.375 36.4375C43.4792 39.9583 40.7396 42.75 37.1562 44.8125C33.5938 46.875 29.5 47.9062 24.875 47.9062C21.3333 47.9062 18.0521 47.3021 15.0312 46.0938C12.0104 44.8646 9.46875 43.2083 7.40625 41.125C5.34375 39.0208 3.72917 36.5417 2.5625 33.6875C1.39583 30.8333 0.8125 27.8021 0.8125 24.5938C0.8125 21.3438 1.39583 18.2917 2.5625 15.4375C3.72917 12.5833 5.34375 10.1146 7.40625 8.03125C9.46875 5.94792 12.0104 4.3125 15.0312 3.125C18.0521 1.91667 21.3333 1.3125 24.875 1.3125C30.2083 1.3125 34.7812 2.64583 38.5938 5.3125C42.4062 7.97917 45.1354 11.6979 46.7812 16.4688H38.5Z" fill="url(#paint7_linear_2229_4)"/>
<defs>
<linearGradient id="paint0_linear_2229_4" x1="-2.00001" y1="27.5" x2="296" y2="27.5" gradientUnits="userSpaceOnUse">
<stop stop-color="#0033FF"/>
<stop offset="1"/>
</linearGradient>
<linearGradient id="paint1_linear_2229_4" x1="-2" y1="27.5" x2="296" y2="27.5" gradientUnits="userSpaceOnUse">
<stop stop-color="#0033FF"/>
<stop offset="1"/>
</linearGradient>
<linearGradient id="paint2_linear_2229_4" x1="-2" y1="27.5" x2="296" y2="27.5" gradientUnits="userSpaceOnUse">
<stop stop-color="#0033FF"/>
<stop offset="1"/>
</linearGradient>
<linearGradient id="paint3_linear_2229_4" x1="-2" y1="27.5" x2="296" y2="27.5" gradientUnits="userSpaceOnUse">
<stop stop-color="#0033FF"/>
<stop offset="1"/>
</linearGradient>
<linearGradient id="paint4_linear_2229_4" x1="-1.99999" y1="27.5" x2="296" y2="27.5" gradientUnits="userSpaceOnUse">
<stop stop-color="#0033FF"/>
<stop offset="1"/>
</linearGradient>
<linearGradient id="paint5_linear_2229_4" x1="-2" y1="27.5" x2="296" y2="27.5" gradientUnits="userSpaceOnUse">
<stop stop-color="#0033FF"/>
<stop offset="1"/>
</linearGradient>
<linearGradient id="paint6_linear_2229_4" x1="-2" y1="27.5" x2="296" y2="27.5" gradientUnits="userSpaceOnUse">
<stop stop-color="#0033FF"/>
<stop offset="1"/>
</linearGradient>
<linearGradient id="paint7_linear_2229_4" x1="-2" y1="27.5" x2="296" y2="27.5" gradientUnits="userSpaceOnUse">
<stop stop-color="#0033FF"/>
<stop offset="1"/>
</linearGradient>
</defs>
</svg>
