<svg width="1319" height="438" viewBox="0 0 1319 438" fill="none" xmlns="http://www.w3.org/2000/svg">
<path d="M474.234 40.0234H477.34L480.551 48.543L483.773 40.0234H486.867L481.898 52H479.203L474.234 40.0234ZM490.371 48.4258C490.543 49.5898 491.277 50.1719 492.574 50.1719C493.16 50.1719 493.633 50.0352 493.992 49.7617C494.359 49.4883 494.543 49.1133 494.543 48.6367C494.543 48.2617 494.441 47.9688 494.238 47.7578C494.035 47.5391 493.707 47.3594 493.254 47.2188L491.473 46.7383C490.395 46.4492 489.59 46.0352 489.059 45.4961C488.527 44.957 488.262 44.2227 488.262 43.293C488.262 42.2227 488.66 41.3633 489.457 40.7148C490.262 40.0586 491.277 39.7305 492.504 39.7305C493.754 39.7305 494.738 40.0547 495.457 40.7031C496.184 41.3516 496.617 42.2227 496.758 43.3164H494.18C494.141 42.9023 493.984 42.5547 493.711 42.2734C493.445 41.9922 493.066 41.8516 492.574 41.8516C492.105 41.8516 491.727 41.9688 491.438 42.2031C491.156 42.4297 491.016 42.7422 491.016 43.1406C491.016 43.4922 491.113 43.7578 491.309 43.9375C491.512 44.1094 491.848 44.2695 492.316 44.418L494.449 45.0156C496.355 45.5469 497.309 46.668 497.309 48.3789C497.309 49.1445 497.082 49.832 496.629 50.4414C496.184 51.043 495.602 51.5039 494.883 51.8242C494.172 52.1367 493.41 52.293 492.598 52.293C491.277 52.293 490.184 51.9727 489.316 51.332C488.457 50.6836 487.953 49.7148 487.805 48.4258H490.371Z" fill="#0033FF"/>
<line x1="486.5" x2="486.5" y2="438" stroke="#9AC2E4"/>
<line y1="101.5" x2="1319" y2="101.5" stroke="#9AC2E4"/>
<rect x="643" y="99.0391" width="277.527" height="36" rx="18" transform="rotate(-6.00635 643 99.0391)" fill="#9AC2E4"/>
<path d="M671.413 121.188L668.406 121.504L667.153 109.593L670.066 109.287L670.28 111.314C670.477 110.579 670.911 109.964 671.582 109.469C672.253 108.974 673.058 108.677 673.998 108.578C675.405 108.43 676.549 108.781 677.432 109.631C678.315 110.481 678.836 111.663 678.995 113.178L679.746 120.311L676.739 120.627L676.041 113.996C675.947 113.102 675.663 112.413 675.188 111.929C674.712 111.437 674.042 111.237 673.18 111.327C672.356 111.414 671.717 111.756 671.261 112.354C670.806 112.952 670.623 113.678 670.713 114.533L671.413 121.188ZM684.634 114.8C684.825 115.723 685.244 116.421 685.891 116.895C686.538 117.369 687.378 117.552 688.411 117.443C689.126 117.368 689.741 117.166 690.256 116.836C690.771 116.5 691.15 116.075 691.395 115.562L694.192 115.268C693.872 116.409 693.214 117.393 692.217 118.221C691.227 119.04 690.036 119.523 688.645 119.669C686.656 119.878 685.025 119.457 683.752 118.405C682.486 117.352 681.758 115.912 681.565 114.086C681.376 112.284 681.806 110.734 682.856 109.437C683.905 108.133 685.346 107.384 687.179 107.191C689.029 106.997 690.594 107.425 691.875 108.477C693.164 109.527 693.905 110.973 694.099 112.815L694.202 113.794L684.634 114.8ZM687.465 109.341C686.524 109.44 685.785 109.801 685.245 110.423C684.713 111.037 684.432 111.836 684.402 112.822L691.126 112.114C690.934 111.184 690.513 110.466 689.863 109.961C689.212 109.448 688.412 109.242 687.465 109.341ZM702.99 105.822L706.137 105.491L702.564 111.853L707.518 117.389L704.337 117.723L701.23 114.291L698.917 118.294L695.747 118.627L699.441 112.182L694.611 106.704L697.769 106.372L700.752 109.746L702.99 105.822ZM708.898 101.607L711.905 101.291L712.279 104.845L715.356 104.521L715.617 107.004L712.54 107.328L713.11 112.747C713.176 113.368 713.352 113.809 713.638 114.07C713.933 114.33 714.367 114.429 714.942 114.369C715.3 114.331 715.731 114.211 716.236 114.009L716.49 116.421C716.304 116.527 716.009 116.633 715.604 116.738C715.199 116.844 714.806 116.917 714.425 116.957C713.065 117.1 712.039 116.823 711.345 116.126C710.659 115.428 710.24 114.361 710.089 112.923L709.533 107.644L707.319 107.877L707.058 105.394L709.272 105.162L708.898 101.607ZM717.651 107.968L725.051 107.189L725.331 109.847L717.93 110.625L717.651 107.968ZM732.795 102.392C733.797 102.286 734.699 102.419 735.5 102.791C736.308 103.154 736.896 103.669 737.265 104.337L737.044 102.239L740.005 101.928L741.241 113.676C741.402 115.206 740.915 116.557 739.782 117.729C738.656 118.901 737.169 119.583 735.319 119.778C733.742 119.944 732.358 119.74 731.166 119.166C729.982 118.592 729.091 117.656 728.491 116.36L731.474 116.046C732.204 117.164 733.397 117.635 735.052 117.461C736.116 117.349 736.939 116.988 737.519 116.377C738.098 115.766 738.337 114.971 738.234 113.992L737.99 111.673C737.692 112.348 737.195 112.931 736.5 113.42C735.813 113.909 734.996 114.203 734.048 114.303C732.898 114.424 731.841 114.268 730.876 113.835C729.919 113.402 729.149 112.76 728.564 111.91C727.988 111.06 727.642 110.083 727.526 108.979C727.409 107.876 727.545 106.849 727.932 105.897C728.326 104.936 728.945 104.144 729.791 103.521C730.644 102.889 731.645 102.513 732.795 102.392ZM734.358 111.76C735.368 111.654 736.185 111.242 736.808 110.524C737.44 109.806 737.702 108.938 737.595 107.92C737.487 106.894 737.05 106.096 736.282 105.525C735.522 104.945 734.637 104.708 733.627 104.814C732.586 104.924 731.778 105.343 731.202 106.071C730.634 106.791 730.403 107.656 730.509 108.666C730.615 109.668 731.024 110.461 731.738 111.046C732.451 111.631 733.325 111.869 734.358 111.76ZM746.262 108.316C746.453 109.239 746.873 109.937 747.519 110.411C748.166 110.885 749.006 111.067 750.04 110.959C750.755 110.883 751.37 110.681 751.885 110.352C752.399 110.015 752.779 109.59 753.023 109.078L755.82 108.783C755.501 109.925 754.842 110.909 753.845 111.737C752.855 112.556 751.665 113.038 750.274 113.185C748.285 113.394 746.654 112.972 745.38 111.92C744.115 110.867 743.386 109.428 743.194 107.602C743.004 105.799 743.434 104.25 744.484 102.953C745.533 101.649 746.974 100.9 748.808 100.707C750.657 100.513 752.222 100.941 753.503 101.992C754.792 103.043 755.534 104.489 755.727 106.33L755.83 107.309L746.262 108.316ZM749.093 102.857C748.153 102.956 747.413 103.317 746.874 103.939C746.341 104.553 746.06 105.352 746.03 106.337L752.755 105.63C752.563 104.699 752.142 103.982 751.491 103.477C750.84 102.964 750.041 102.757 749.093 102.857ZM761.921 111.665L758.914 111.981L757.661 100.07L760.575 99.7636L760.788 101.791C760.986 101.056 761.42 100.441 762.09 99.9459C762.761 99.4511 763.566 99.1543 764.507 99.0553C765.913 98.9074 767.057 99.2583 767.94 100.108C768.823 100.958 769.344 102.14 769.504 103.655L770.254 110.788L767.247 111.104L766.549 104.473C766.455 103.579 766.171 102.891 765.696 102.406C765.22 101.914 764.551 101.714 763.688 101.805C762.865 101.891 762.225 102.233 761.769 102.831C761.314 103.429 761.131 104.155 761.221 105.01L761.921 111.665ZM780.521 106.114C780.813 107.253 781.604 107.755 782.894 107.62C783.477 107.558 783.933 107.373 784.262 107.063C784.598 106.753 784.741 106.361 784.692 105.887C784.652 105.514 784.521 105.233 784.297 105.045C784.072 104.848 783.727 104.704 783.261 104.612L781.439 104.32C780.337 104.146 779.493 103.818 778.909 103.337C778.324 102.857 777.983 102.154 777.886 101.23C777.774 100.165 778.08 99.269 778.805 98.5408C779.536 97.8039 780.512 97.3713 781.732 97.243C782.975 97.1122 783.988 97.3316 784.77 97.9013C785.561 98.4701 786.083 99.2911 786.338 100.364L783.774 100.634C783.691 100.226 783.5 99.8968 783.198 99.6457C782.905 99.3938 782.513 99.2936 782.024 99.3451C781.557 99.3941 781.193 99.5503 780.93 99.8136C780.674 100.068 780.567 100.394 780.608 100.79C780.645 101.14 780.77 101.394 780.983 101.552C781.203 101.702 781.554 101.826 782.036 101.924L784.219 102.296C786.171 102.624 787.236 103.64 787.415 105.341C787.495 106.103 787.342 106.81 786.955 107.463C786.575 108.108 786.044 108.628 785.363 109.021C784.689 109.407 783.948 109.642 783.139 109.727C781.826 109.865 780.705 109.661 779.776 109.114C778.853 108.559 778.251 107.649 777.968 106.382L780.521 106.114ZM793.726 113.362L790.72 113.678L788.942 96.779L791.832 96.4749L792.048 98.526C792.366 97.817 792.882 97.201 793.597 96.678C794.311 96.1472 795.162 95.8299 796.148 95.7261C797.298 95.6051 798.365 95.7796 799.349 96.2495C800.333 96.7116 801.127 97.3939 801.733 98.2965C802.338 99.1912 802.7 100.21 802.82 101.352C802.941 102.494 802.798 103.566 802.393 104.567C801.987 105.568 801.352 106.396 800.486 107.053C799.62 107.71 798.613 108.099 797.463 108.22C796.453 108.326 795.548 108.201 794.749 107.845C793.956 107.481 793.368 106.973 792.986 106.322L793.726 113.362ZM799.08 104.444C799.68 103.65 799.925 102.725 799.814 101.668C799.702 100.612 799.27 99.7536 798.518 99.0943C797.773 98.4343 796.872 98.1599 795.815 98.271C794.797 98.3781 793.972 98.8185 793.338 99.5922C792.712 100.365 792.458 101.311 792.576 102.43C792.694 103.548 793.139 104.417 793.911 105.035C794.691 105.652 795.589 105.907 796.607 105.8C797.664 105.689 798.488 105.237 799.08 104.444ZM807.704 101.851C807.896 102.774 808.315 103.472 808.962 103.946C809.608 104.42 810.449 104.603 811.482 104.494C812.197 104.419 812.812 104.217 813.327 103.887C813.841 103.55 814.221 103.126 814.466 102.613L817.263 102.319C816.943 103.46 816.284 104.444 815.287 105.272C814.297 106.091 813.107 106.574 811.716 106.72C809.727 106.929 808.096 106.508 806.823 105.456C805.557 104.403 804.828 102.963 804.636 101.137C804.446 99.3347 804.876 97.7851 805.926 96.4884C806.975 95.184 808.416 94.4353 810.25 94.2424C812.099 94.0478 813.664 94.4762 814.946 95.5276C816.234 96.5782 816.976 98.0242 817.169 99.8656L817.272 100.845L807.704 101.851ZM810.535 96.3923C809.595 96.4912 808.855 96.8519 808.316 97.4742C807.783 98.088 807.502 98.8874 807.472 99.8725L814.197 99.165C814.005 98.2347 813.584 97.517 812.934 97.0119C812.283 96.4991 811.483 96.2926 810.535 96.3923ZM824.876 92.7035C826.446 92.5383 827.828 92.8328 829.023 93.5869C830.225 94.3324 831.061 95.3364 831.531 96.5988L828.63 96.9041C827.881 95.616 826.711 95.0557 825.118 95.2233C824.022 95.3385 823.198 95.7906 822.645 96.5793C822.091 97.3681 821.87 98.287 821.98 99.3359C822.091 100.385 822.499 101.237 823.204 101.894C823.908 102.542 824.808 102.809 825.904 102.694C827.505 102.525 828.532 101.73 828.988 100.307L831.89 100.002C831.692 101.335 831.083 102.494 830.064 103.482C829.051 104.46 827.76 105.032 826.191 105.197C824.909 105.332 823.738 105.176 822.677 104.73C821.617 104.284 820.769 103.619 820.134 102.735C819.499 101.844 819.119 100.815 818.997 99.6498C818.809 97.8628 819.258 96.3111 820.345 94.9949C821.431 93.6708 822.942 92.907 824.876 92.7035ZM834.959 103.98L833.706 92.069L836.713 91.7526L837.966 103.663L834.959 103.98ZM833.017 88.3236C832.966 87.8341 833.093 87.4005 833.399 87.0227C833.705 86.6448 834.114 86.4289 834.627 86.375C835.132 86.3218 835.574 86.4482 835.951 86.7541C836.328 87.0522 836.543 87.4499 836.595 87.9472C836.649 88.46 836.523 88.9014 836.216 89.2715C835.917 89.6407 835.511 89.8523 834.999 89.9063C834.486 89.9602 834.041 89.8381 833.664 89.54C833.287 89.2419 833.071 88.8364 833.017 88.3236ZM852.61 90.0801L853.863 101.991L850.984 102.294L850.768 100.243C850.458 100.951 849.942 101.571 849.22 102.102C848.497 102.626 847.647 102.939 846.668 103.042C845.518 103.163 844.451 102.993 843.468 102.531C842.484 102.069 841.69 101.39 841.085 100.495C840.481 99.6007 840.118 98.5822 839.998 97.4401C839.878 96.298 840.02 95.2264 840.426 94.2254C840.83 93.2166 841.465 92.3838 842.331 91.7271C843.196 91.0627 844.203 90.6699 845.353 90.549C846.363 90.4427 847.277 90.5744 848.093 90.9441C848.917 91.3052 849.519 91.8035 849.9 92.439L849.684 90.3878L852.61 90.0801ZM843.725 94.3378C843.134 95.1384 842.894 96.0671 843.005 97.1237C843.116 98.1804 843.54 99.0353 844.276 99.6884C845.021 100.341 845.921 100.611 846.978 100.5C848.011 100.391 848.841 99.9544 849.467 99.1893C850.094 98.4243 850.348 97.4823 850.231 96.3635C850.113 95.2447 849.664 94.3728 848.883 93.7479C848.11 93.1222 847.211 92.8634 846.185 92.9713C845.137 93.0816 844.316 93.5371 843.725 94.3378ZM857.161 101.644L855.328 84.2205L858.335 83.9041L860.168 101.327L857.161 101.644ZM863.559 100.971L862.306 89.0598L865.313 88.7435L866.566 100.654L863.559 100.971ZM861.617 85.3144C861.566 84.825 861.693 84.3913 861.999 84.0135C862.305 83.6356 862.714 83.4197 863.227 83.3658C863.732 83.3127 864.173 83.439 864.551 83.7449C864.928 84.0431 865.143 84.4407 865.195 84.938C865.249 85.4508 865.123 85.8922 864.816 86.2623C864.517 86.6315 864.111 86.8431 863.599 86.8971C863.086 86.951 862.641 86.829 862.264 86.5308C861.887 86.2327 861.671 85.8272 861.617 85.3144ZM871.308 96.5614C871.601 97.701 872.392 98.203 873.682 98.0673C874.265 98.006 874.721 97.8206 875.049 97.5111C875.386 97.2007 875.529 96.8085 875.479 96.3346C875.44 95.9617 875.309 95.6809 875.084 95.4924C874.86 95.2961 874.514 95.1517 874.049 95.0593L872.227 94.7679C871.125 94.5932 870.281 94.2656 869.697 93.7851C869.112 93.3046 868.771 92.602 868.674 91.6774C868.562 90.613 868.868 89.7167 869.593 88.9884C870.324 88.2515 871.3 87.819 872.52 87.6906C873.763 87.5598 874.776 87.7792 875.558 88.3489C876.349 88.9178 876.871 89.7387 877.125 90.8117L874.561 91.0815C874.479 90.6738 874.288 90.3444 873.986 90.0933C873.693 89.8414 873.301 89.7412 872.812 89.7927C872.345 89.8417 871.981 89.9979 871.718 90.2613C871.462 90.516 871.355 90.8415 871.396 91.2378C871.433 91.5874 871.558 91.8414 871.771 91.9996C871.991 92.1493 872.342 92.2734 872.824 92.372L875.007 92.7432C876.959 93.0721 878.024 94.0873 878.203 95.7888C878.283 96.5502 878.13 97.2577 877.743 97.9111C877.363 98.556 876.832 99.0753 876.151 99.469C875.477 99.8542 874.735 100.089 873.927 100.174C872.614 100.312 871.493 100.108 870.564 99.562C869.641 99.0071 869.039 98.0964 868.756 96.8299L871.308 96.5614ZM880.101 83.5935L883.108 83.2772L883.482 86.8318L886.559 86.508L886.82 88.9904L883.743 89.3141L884.314 94.7335C884.379 95.355 884.555 95.7961 884.842 96.0566C885.136 96.3162 885.571 96.4158 886.146 96.3553C886.503 96.3177 886.934 96.1977 887.439 95.9953L887.693 98.4078C887.508 98.5137 887.213 98.6194 886.807 98.7249C886.402 98.8304 886.009 98.9031 885.628 98.9432C884.269 99.0863 883.242 98.8094 882.548 98.1125C881.862 97.4149 881.443 96.3473 881.292 94.91L880.737 89.6305L878.522 89.8635L878.261 87.3811L880.475 87.1481L880.101 83.5935ZM891.471 94.44C891.763 95.5797 892.555 96.0817 893.844 95.9459C894.427 95.8846 894.883 95.6992 895.212 95.3897C895.548 95.0793 895.691 94.6872 895.642 94.2132C895.602 93.8403 895.471 93.5595 895.247 93.371C895.022 93.1747 894.677 93.0304 894.211 92.9379L892.389 92.6465C891.287 92.4718 890.443 92.1442 889.859 91.6637C889.274 91.1832 888.933 90.4806 888.836 89.5561C888.724 88.4916 889.03 87.5953 889.755 86.867C890.486 86.1302 891.462 85.6976 892.682 85.5692C893.925 85.4384 894.938 85.6579 895.72 86.2275C896.511 86.7964 897.033 87.6173 897.288 88.6903L894.724 88.9601C894.641 88.5524 894.45 88.223 894.148 87.9719C893.855 87.72 893.463 87.6198 892.974 87.6713C892.507 87.7204 892.143 87.8766 891.88 88.1399C891.624 88.3946 891.517 88.7201 891.559 89.1164C891.595 89.466 891.72 89.72 891.933 89.8782C892.153 90.0279 892.504 90.152 892.986 90.2506L895.169 90.6218C897.121 90.9507 898.186 91.9659 898.365 93.6674C898.445 94.4288 898.292 95.1363 897.905 95.7897C897.525 96.4346 896.994 96.9539 896.313 97.3477C895.639 97.7328 894.898 97.9679 894.09 98.0529C892.776 98.1911 891.655 97.987 890.726 97.4406C889.803 96.8857 889.201 95.975 888.918 94.7085L891.471 94.44Z" fill="#0033FF"/>
</svg>
