<svg width="44" height="45" viewBox="0 0 44 45" fill="none" xmlns="http://www.w3.org/2000/svg">
<path fill-rule="evenodd" clip-rule="evenodd" d="M41 23.5C41 33.441 32.941 41.5 23 41.5C13.0589 41.5 5 33.441 5 23.5C5 13.5589 13.0589 5.5 23 5.5C32.941 5.5 41 13.5589 41 23.5Z" fill="white"/>
<path d="M14.3604 17.8801C14.3604 25.7556 21.0224 32.1401 29.2404 32.1401C29.6111 32.1401 29.9787 32.1271 30.3427 32.1015C30.7604 32.0722 30.9692 32.0576 31.1594 31.9527C31.3168 31.8658 31.4661 31.7118 31.545 31.555C31.6404 31.3656 31.6404 31.1447 31.6404 30.703V28.1111C31.6404 27.7396 31.6404 27.5539 31.5765 27.3947C31.5203 27.254 31.4287 27.1288 31.31 27.03C31.1757 26.9182 30.9935 26.8547 30.6293 26.7277L27.5508 25.6549C27.1269 25.5072 26.9149 25.4334 26.7139 25.4459C26.5366 25.4569 26.366 25.515 26.2211 25.6134C26.0567 25.725 25.9407 25.9103 25.7087 26.281L24.9204 27.5401C22.3764 26.436 20.3142 24.4571 19.1604 22.0201L20.4742 21.2646C20.8609 21.0422 21.0543 20.9311 21.1708 20.7735C21.2735 20.6346 21.3341 20.4711 21.3456 20.3012C21.3587 20.1086 21.2816 19.9055 21.1275 19.4993L20.008 16.549C19.8756 16.1999 19.8093 16.0254 19.6926 15.8967C19.5895 15.7829 19.4588 15.6952 19.3121 15.6412C19.1459 15.5801 18.9521 15.5801 18.5645 15.5801H15.8599C15.399 15.5801 15.1685 15.5801 14.9709 15.6714C14.8072 15.747 14.6466 15.8901 14.5559 16.041C14.4464 16.2232 14.4312 16.4234 14.4006 16.8237C14.3739 17.1725 14.3604 17.5248 14.3604 17.8801Z" stroke="#0033FF" stroke-width="2" stroke-linecap="round" stroke-linejoin="round"/>
</svg>
