<svg viewBox="0 0 60 60" fill="none" xmlns="http://www.w3.org/2000/svg">
<title>Phone call</title>
<path class="svg-icon" fill="currentColor" d="M55 30C55 43.807 43.807 55 30 55C16.1929 55 5 43.807 5 30C5 16.1929 16.1929 5 30 5C43.807 5 55 16.1929 55 30Z"/>
<path d="M18 22.1944C18 33.1327 27.2528 42 38.6667 42C39.1816 42 39.6921 41.982 40.1977 41.9465C40.7779 41.9057 41.0679 41.8854 41.332 41.7397C41.5507 41.6191 41.758 41.4052 41.8676 41.1873C42 40.9244 42 40.6176 42 40.0041V36.4042C42 35.8883 42 35.6303 41.9113 35.4092C41.8332 35.2139 41.706 35.0399 41.5412 34.9027C41.3547 34.7473 41.1016 34.6592 40.5957 34.4828L36.32 32.9928C35.7313 32.7877 35.4369 32.6851 35.1577 32.7025C34.9115 32.7178 34.6745 32.7985 34.4732 32.9352C34.2449 33.0902 34.0839 33.3475 33.7616 33.8623L32.6667 35.6111C29.1335 34.0777 26.2692 31.3292 24.6667 27.9444L26.4915 26.8952C27.0286 26.5863 27.2971 26.4319 27.4589 26.2131C27.6016 26.0202 27.6857 25.7931 27.7017 25.5572C27.7199 25.2896 27.6128 25.0075 27.3988 24.4434L25.844 20.3458C25.66 19.8609 25.568 19.6185 25.4059 19.4397C25.2627 19.2817 25.0812 19.1599 24.8774 19.0849C24.6466 19 24.3774 19 23.8391 19H20.0827C19.4425 19 19.1224 19 18.848 19.1268C18.6207 19.2319 18.3975 19.4306 18.2716 19.6402C18.1196 19.8933 18.0983 20.1712 18.0559 20.7272C18.0188 21.2117 18 21.7009 18 22.1944Z" stroke="white" stroke-width="2.5" stroke-linecap="round" stroke-linejoin="round"/>
</svg>
