<svg width="280" height="65" viewBox="0 0 280 65" fill="none" xmlns="http://www.w3.org/2000/svg">
<rect y="29.04" width="277.527" height="36" rx="18" transform="rotate(-6.00635 0 29.04)" fill="#9AC2E4"/>
<path d="M28.4129 51.1885L25.4061 51.5049L24.1529 39.5941L27.0665 39.2875L27.2798 41.3154C27.4774 40.5798 27.9115 39.9645 28.5821 39.4698C29.2528 38.975 30.0582 38.6782 30.9983 38.5793C32.4046 38.4313 33.5492 38.7822 34.432 39.632C35.3148 40.4818 35.8359 41.6642 35.9954 43.1793L36.7458 50.3118L33.739 50.6281L33.0412 43.9968C32.9472 43.1033 32.6627 42.4144 32.1875 41.9302C31.7115 41.4383 31.0423 41.2377 30.1799 41.3284C29.3563 41.4151 28.7168 41.7573 28.2612 42.3551C27.8056 42.953 27.6228 43.6792 27.7127 44.5339L28.4129 51.1885ZM41.6335 44.8013C41.8249 45.7239 42.244 46.4221 42.8909 46.8961C43.5378 47.3701 44.3779 47.5527 45.4113 47.444C46.1261 47.3688 46.7411 47.1666 47.2564 46.8374C47.7708 46.5005 48.1503 46.0756 48.3949 45.5629L51.1919 45.2686C50.8721 46.4099 50.2137 47.3943 49.2167 48.2219C48.2266 49.041 47.0362 49.5236 45.6455 49.67C43.6565 49.8793 42.0253 49.4578 40.7519 48.4056C39.4864 47.3525 38.7575 45.9131 38.5654 44.0872C38.3758 42.2847 38.8058 40.7351 39.8556 39.4384C40.9045 38.134 42.3458 37.3853 44.1795 37.1924C46.0286 36.9978 47.5938 37.4262 48.8749 38.4776C50.1638 39.5282 50.9051 40.9742 51.0988 42.8156L51.2018 43.7946L41.6335 44.8013ZM44.4646 39.3423C43.5245 39.4412 42.7847 39.8019 42.2453 40.4242C41.7128 41.038 41.4317 41.8374 41.4018 42.8225L48.1264 42.115C47.9342 41.1847 47.5131 40.467 46.8629 39.962C46.2119 39.4491 45.4125 39.2426 44.4646 39.3423ZM59.9902 35.8234L63.1369 35.4923L59.5642 41.8542L64.5183 47.3897L61.3366 47.7244L58.23 44.2924L55.9173 48.2946L52.7473 48.6282L56.4408 42.1829L51.6107 36.7051L54.769 36.3728L57.7518 39.7472L59.9902 35.8234ZM65.8979 31.6079L68.9048 31.2915L69.2788 34.8461L72.3555 34.5224L72.6167 37.0048L69.5399 37.3285L70.1101 42.7478C70.1755 43.3694 70.3516 43.8104 70.6382 44.0709C70.9326 44.3306 71.3673 44.4302 71.9423 44.3697C72.2997 44.3321 72.7309 44.2121 73.2359 44.0097L73.4897 46.4222C73.3045 46.5281 73.0092 46.6337 72.604 46.7392C72.1987 46.8447 71.8058 46.9175 71.4251 46.9575C70.0654 47.1006 69.0386 46.8237 68.3447 46.1269C67.6585 45.4292 67.2398 44.3617 67.0886 42.9243L66.5331 37.6449L64.3188 37.8779L64.0576 35.3955L66.2719 35.1625L65.8979 31.6079ZM74.6507 37.9691L82.0512 37.1905L82.3308 39.8477L74.9302 40.6263L74.6507 37.9691ZM89.7948 32.3929C90.7971 32.2874 91.6988 32.4204 92.4999 32.7917C93.3079 33.1545 93.8963 33.67 94.2651 34.3382L94.0444 32.2404L97.0046 31.9289L98.2407 43.6766C98.4017 45.2072 97.9154 46.5584 96.7818 47.7304C95.656 48.9015 94.1685 49.5843 92.3194 49.7789C90.7421 49.9448 89.3577 49.7409 88.1661 49.1671C86.9823 48.5925 86.0905 47.6573 85.4907 46.3614L88.4742 46.0475C89.2045 47.1647 90.3971 47.6362 92.052 47.4621C93.1165 47.3501 93.9386 46.9886 94.5185 46.3777C95.0984 45.7668 95.3368 44.9719 95.2338 43.9929L94.9898 41.6737C94.6917 42.3492 94.1952 42.9317 93.5004 43.4212C92.8134 43.9098 91.9959 44.204 91.0481 44.3037C89.8982 44.4247 88.8409 44.2689 87.8762 43.8362C86.9194 43.4027 86.1488 42.761 85.5645 41.9112C84.9879 41.0607 84.6416 40.0837 84.5255 38.9804C84.4095 37.8772 84.5449 36.8495 84.9317 35.8976C85.3256 34.937 85.9453 34.1452 86.791 33.522C87.6437 32.8903 88.6449 32.5139 89.7948 32.3929ZM91.3579 41.7612C92.368 41.655 93.1848 41.243 93.8085 40.5254C94.4399 39.8069 94.702 38.9388 94.595 37.921C94.487 36.8954 94.0495 36.0969 93.2824 35.5256C92.5223 34.9457 91.6371 34.7089 90.6271 34.8152C89.586 34.9247 88.7777 35.3437 88.2023 36.0719C87.6339 36.7916 87.4028 37.6565 87.5091 38.6665C87.6145 39.6688 88.024 40.4623 88.7376 41.0471C89.4511 41.6319 90.3246 41.87 91.3579 41.7612ZM103.262 38.317C103.453 39.2395 103.873 39.9378 104.519 40.4118C105.166 40.8858 106.006 41.0684 107.04 40.9597C107.755 40.8844 108.37 40.6823 108.885 40.3531C109.399 40.0162 109.779 39.5913 110.023 39.0785L112.82 38.7842C112.501 39.9255 111.842 40.91 110.845 41.7376C109.855 42.5566 108.665 43.0393 107.274 43.1856C105.285 43.3949 103.654 42.9735 102.38 41.9212C101.115 40.8682 100.386 39.4287 100.194 37.6029C100.004 35.8003 100.434 34.2507 101.484 32.9541C102.533 31.6497 103.974 30.901 105.808 30.7081C107.657 30.5135 109.222 30.9419 110.503 31.9933C111.792 33.0439 112.534 34.4899 112.727 36.3313L112.83 37.3103L103.262 38.317ZM106.093 32.858C105.153 32.9569 104.413 33.3175 103.874 33.9399C103.341 34.5537 103.06 35.3531 103.03 36.3382L109.755 35.6307C109.563 34.7004 109.142 33.9827 108.491 33.4776C107.84 32.9648 107.041 32.7583 106.093 32.858ZM118.921 41.6656L115.914 41.982L114.661 30.0712L117.575 29.7646L117.788 31.7925C117.986 31.0568 118.42 30.4416 119.09 29.9468C119.761 29.4521 120.566 29.1552 121.507 29.0563C122.913 28.9083 124.057 29.2593 124.94 30.109C125.823 30.9588 126.344 32.1413 126.504 33.6563L127.254 40.7888L124.247 41.1052L123.549 34.4738C123.455 33.5803 123.171 32.8915 122.696 32.4073C122.22 31.9153 121.551 31.7147 120.688 31.8055C119.865 31.8921 119.225 32.2344 118.769 32.8322C118.314 33.43 118.131 34.1563 118.221 35.0109L118.921 41.6656ZM137.521 36.1147C137.813 37.2544 138.604 37.7564 139.894 37.6207C140.477 37.5594 140.933 37.3739 141.262 37.0644C141.598 36.754 141.741 36.3619 141.692 35.8879C141.652 35.515 141.521 35.2343 141.297 35.0457C141.072 34.8494 140.727 34.7051 140.261 34.6126L138.439 34.3212C137.337 34.1465 136.493 33.8189 135.909 33.3384C135.324 32.8579 134.983 32.1554 134.886 31.2308C134.774 30.1663 135.08 29.27 135.805 28.5417C136.536 27.8049 137.512 27.3723 138.732 27.2439C139.975 27.1131 140.988 27.3326 141.77 27.9022C142.561 28.4711 143.083 29.292 143.338 30.3651L140.774 30.6348C140.691 30.2271 140.5 29.8977 140.198 29.6466C139.905 29.3947 139.513 29.2945 139.024 29.346C138.557 29.3951 138.193 29.5513 137.93 29.8146C137.674 30.0694 137.567 30.3949 137.608 30.7911C137.645 31.1407 137.77 31.3947 137.983 31.553C138.203 31.7026 138.554 31.8268 139.036 31.9253L141.219 32.2965C143.171 32.6254 144.236 33.6406 144.415 35.3421C144.495 36.1036 144.342 36.811 143.955 37.4644C143.575 38.1093 143.044 38.6286 142.363 39.0224C141.689 39.4075 140.948 39.6426 140.139 39.7277C138.826 39.8658 137.705 39.6617 136.776 39.1153C135.853 38.5604 135.251 37.6497 134.968 36.3832L137.521 36.1147ZM150.726 43.3625L147.72 43.6788L145.942 26.7799L148.832 26.4758L149.048 28.527C149.366 27.8179 149.882 27.2019 150.597 26.6789C151.311 26.1482 152.162 25.8309 153.148 25.7271C154.298 25.6061 155.365 25.7806 156.349 26.2505C157.333 26.7126 158.127 27.3949 158.733 28.2974C159.338 29.1922 159.7 30.2106 159.82 31.3528C159.941 32.4949 159.798 33.5665 159.393 34.5675C158.987 35.5685 158.352 36.3974 157.486 37.0541C156.62 37.7108 155.613 38.0996 154.463 38.2206C153.453 38.3269 152.548 38.2021 151.749 37.8463C150.956 37.4819 150.368 36.9742 149.986 36.3232L150.726 43.3625ZM156.08 34.4447C156.68 33.651 156.925 32.7258 156.814 31.6691C156.702 30.6125 156.27 29.7545 155.518 29.0953C154.773 28.4353 153.872 28.1608 152.815 28.272C151.797 28.3791 150.972 28.8195 150.338 29.5931C149.712 30.366 149.458 31.3118 149.576 32.4306C149.694 33.5495 150.139 34.4178 150.911 35.0358C151.691 35.6529 152.589 35.9079 153.607 35.8008C154.664 35.6896 155.488 35.2376 156.08 34.4447ZM164.704 31.8523C164.896 32.7748 165.315 33.4731 165.962 33.9471C166.608 34.421 167.449 34.6037 168.482 34.4949C169.197 34.4197 169.812 34.2175 170.327 33.8884C170.841 33.5515 171.221 33.1266 171.466 32.6138L174.263 32.3195C173.943 33.4608 173.284 34.4453 172.287 35.2729C171.297 36.0919 170.107 36.5746 168.716 36.7209C166.727 36.9302 165.096 36.5087 163.823 35.4565C162.557 34.4035 161.828 32.964 161.636 31.1382C161.446 29.3356 161.876 27.786 162.926 26.4894C163.975 25.1849 165.416 24.4363 167.25 24.2433C169.099 24.0488 170.664 24.4772 171.946 25.5286C173.234 26.5792 173.976 28.0252 174.169 29.8666L174.272 30.8456L164.704 31.8523ZM167.535 26.3933C166.595 26.4922 165.855 26.8528 165.316 27.4752C164.783 28.089 164.502 28.8884 164.472 29.8735L171.197 29.166C171.005 28.2356 170.584 27.518 169.934 27.0129C169.283 26.5001 168.483 26.2935 167.535 26.3933ZM181.876 22.7044C183.446 22.5393 184.828 22.8338 186.023 23.5879C187.225 24.3334 188.061 25.3374 188.531 26.5997L185.63 26.9051C184.881 25.6169 183.711 25.0566 182.118 25.2242C181.022 25.3395 180.198 25.7915 179.645 26.5803C179.091 27.3691 178.87 28.2879 178.98 29.3368C179.091 30.3857 179.499 31.2384 180.204 31.8947C180.908 32.5433 181.808 32.81 182.904 32.6947C184.505 32.5263 185.532 31.7308 185.988 30.3082L188.89 30.0028C188.692 31.3355 188.083 32.4954 187.064 33.4825C186.051 34.461 184.76 35.0328 183.191 35.198C181.909 35.3328 180.738 35.1772 179.677 34.731C178.617 34.2848 177.769 33.6199 177.134 32.7361C176.499 31.8447 176.119 30.8162 175.997 29.6508C175.809 27.8637 176.258 26.3121 177.345 24.9958C178.431 23.6718 179.942 22.908 181.876 22.7044ZM191.959 33.9808L190.706 22.07L193.713 21.7536L194.966 33.6644L191.959 33.9808ZM190.017 18.3246C189.966 17.8351 190.093 17.4015 190.399 17.0236C190.705 16.6458 191.114 16.4299 191.627 16.3759C192.132 16.3228 192.574 16.4492 192.951 16.7551C193.328 17.0532 193.543 17.4509 193.595 17.9481C193.649 18.4609 193.523 18.9024 193.216 19.2724C192.917 19.6417 192.511 19.8533 191.999 19.9072C191.486 19.9612 191.041 19.8391 190.664 19.541C190.287 19.2428 190.071 18.8374 190.017 18.3246ZM209.61 20.081L210.863 31.9918L207.984 32.2947L207.768 30.2435C207.458 30.9518 206.942 31.5717 206.22 32.1033C205.497 32.6271 204.647 32.9405 203.668 33.0435C202.518 33.1644 201.451 32.9939 200.468 32.5317C199.484 32.0696 198.69 31.3912 198.085 30.4964C197.481 29.6017 197.118 28.5832 196.998 27.4411C196.878 26.2989 197.02 25.2274 197.426 24.2263C197.83 23.2175 198.465 22.3848 199.331 21.7281C200.196 21.0636 201.203 20.6709 202.353 20.5499C203.363 20.4436 204.277 20.5754 205.093 20.9451C205.917 21.3062 206.519 21.8045 206.9 22.44L206.684 20.3888L209.61 20.081ZM200.725 24.3387C200.134 25.1394 199.894 26.068 200.005 27.1247C200.116 28.1814 200.54 29.0363 201.276 29.6893C202.021 30.3416 202.921 30.6122 203.978 30.501C205.011 30.3923 205.841 29.9554 206.467 29.1903C207.094 28.4252 207.348 27.4833 207.231 26.3644C207.113 25.2456 206.664 24.3738 205.883 23.7489C205.11 23.1232 204.211 22.8643 203.185 22.9722C202.137 23.0826 201.316 23.5381 200.725 24.3387ZM214.161 31.6448L212.328 14.2215L215.335 13.9051L217.168 31.3284L214.161 31.6448ZM220.559 30.9716L219.306 19.0608L222.313 18.7444L223.566 30.6552L220.559 30.9716ZM218.617 15.3154C218.566 14.8259 218.693 14.3923 218.999 14.0144C219.305 13.6366 219.714 13.4207 220.227 13.3668C220.732 13.3136 221.173 13.44 221.551 13.7459C221.928 14.044 222.143 14.4417 222.195 14.939C222.249 15.4518 222.123 15.8932 221.816 16.2632C221.517 16.6325 221.111 16.8441 220.599 16.898C220.086 16.952 219.641 16.8299 219.264 16.5318C218.887 16.2337 218.671 15.8282 218.617 15.3154ZM228.308 26.5623C228.601 27.702 229.392 28.204 230.682 28.0683C231.265 28.007 231.721 27.8216 232.049 27.512C232.386 27.2017 232.529 26.8095 232.479 26.3356C232.44 25.9626 232.309 25.6819 232.084 25.4934C231.86 25.2971 231.514 25.1527 231.049 25.0603L229.227 24.7688C228.125 24.5942 227.281 24.2666 226.697 23.7861C226.112 23.3055 225.771 22.603 225.674 21.6784C225.562 20.614 225.868 19.7176 226.593 18.9894C227.324 18.2525 228.3 17.8199 229.52 17.6916C230.763 17.5608 231.776 17.7802 232.558 18.3499C233.349 18.9187 233.871 19.7397 234.125 20.8127L231.561 21.0825C231.479 20.6748 231.288 20.3454 230.986 20.0943C230.693 19.8424 230.301 19.7422 229.812 19.7937C229.345 19.8427 228.981 19.9989 228.718 20.2622C228.462 20.517 228.355 20.8425 228.396 21.2387C228.433 21.5884 228.558 21.8423 228.771 22.0006C228.991 22.1503 229.342 22.2744 229.824 22.373L232.007 22.7442C233.959 23.073 235.024 24.0882 235.203 25.7898C235.283 26.5512 235.13 27.2586 234.743 27.9121C234.363 28.5569 233.832 29.0762 233.151 29.47C232.477 29.8552 231.735 30.0903 230.927 30.1753C229.614 30.3135 228.493 30.1093 227.564 29.563C226.641 29.008 226.039 28.0973 225.756 26.8309L228.308 26.5623ZM237.101 13.5945L240.108 13.2781L240.482 16.8327L243.559 16.509L243.82 18.9914L240.743 19.3151L241.314 24.7344C241.379 25.356 241.555 25.797 241.842 26.0575C242.136 26.3172 242.571 26.4168 243.146 26.3563C243.503 26.3187 243.934 26.1987 244.439 25.9963L244.693 28.4088C244.508 28.5147 244.213 28.6204 243.807 28.7258C243.402 28.8313 243.009 28.9041 242.628 28.9442C241.269 29.0872 240.242 28.8103 239.548 28.1135C238.862 27.4158 238.443 26.3483 238.292 24.9109L237.737 19.6315L235.522 19.8645L235.261 17.3821L237.475 17.1491L237.101 13.5945ZM248.471 24.4409C248.763 25.5806 249.555 26.0826 250.844 25.9469C251.427 25.8856 251.883 25.7002 252.212 25.3906C252.548 25.0803 252.691 24.6881 252.642 24.2142C252.602 23.8412 252.471 23.5605 252.247 23.372C252.022 23.1757 251.677 23.0313 251.211 22.9389L249.389 22.6474C248.287 22.4728 247.443 22.1452 246.859 21.6647C246.274 21.1842 245.933 20.4816 245.836 19.557C245.724 18.4926 246.03 17.5962 246.755 16.868C247.486 16.1311 248.462 15.6985 249.682 15.5702C250.925 15.4394 251.938 15.6588 252.72 16.2285C253.511 16.7973 254.033 17.6183 254.288 18.6913L251.724 18.9611C251.641 18.5534 251.45 18.224 251.148 17.9729C250.855 17.721 250.463 17.6208 249.974 17.6723C249.507 17.7213 249.143 17.8775 248.88 18.1409C248.624 18.3956 248.517 18.7211 248.559 19.1174C248.595 19.467 248.72 19.7209 248.933 19.8792C249.153 20.0289 249.504 20.153 249.986 20.2516L252.169 20.6228C254.121 20.9516 255.186 21.9668 255.365 23.6684C255.445 24.4298 255.292 25.1372 254.905 25.7907C254.525 26.4355 253.994 26.9549 253.313 27.3486C252.639 27.7338 251.898 27.9689 251.09 28.0539C249.776 28.1921 248.655 27.988 247.726 27.4416C246.803 26.8866 246.201 25.9759 245.918 24.7095L248.471 24.4409Z" fill="#0033FF"/>
</svg>
