<svg width="1440" height="632" viewBox="0 0 1440 632" fill="none" xmlns="http://www.w3.org/2000/svg">
<path d="M-67.2686 72.171C-67.2686 72.171 72.2192 9.49271 204.864 19.3777C342.227 29.6141 516.392 72.1711 565.635 357.255C614.878 642.339 1019.71 636.306 1151.89 613.68C1257.63 595.579 1377.37 543.289 1424.02 519.406L1514.73 474.502" stroke="#F8F8F8" stroke-width="24"/>
<path d="M-59.3296 74.3972L-64.5551 61.409L-60.6123 59.8227C-59.567 59.4022 -58.6642 59.2617 -57.9038 59.4013C-57.1459 59.5347 -56.5176 59.846 -56.019 60.3353C-55.5228 60.8183 -55.1466 61.3784 -54.8903 62.0154C-54.7111 62.4607 -54.6068 62.9433 -54.5773 63.4632C-54.5441 63.9744 -54.6185 64.4859 -54.8007 64.9975C-54.9767 65.5067 -55.2834 65.9858 -55.7208 66.4348C-56.1544 66.8751 -56.7485 67.2471 -57.5031 67.5507L-59.9152 68.5211L-57.7988 73.7814L-59.3296 74.3972ZM-60.475 67.1295L-57.9516 66.1143C-57.3208 65.8605 -56.8695 65.5352 -56.598 65.1385C-56.3202 64.7394 -56.1769 64.3188 -56.1679 63.8768C-56.1551 63.4262 -56.2272 63.006 -56.3839 62.6164C-56.5258 62.2638 -56.748 61.9257 -57.0508 61.6019C-57.3473 61.2757 -57.7346 61.0543 -58.2127 60.9376C-58.6908 60.821 -59.2669 60.8983 -59.9411 61.1695L-62.4645 62.1848L-60.475 67.1295ZM-48.8949 70.2187L-49.4104 68.8634L-47.4195 68.1062L-50.0217 61.2643L-52.0126 62.0215L-52.5281 60.6662L-49.0698 59.3509L-48.2557 61.4913L-48.4709 61.2629C-48.4351 60.7571 -48.2739 60.2714 -47.9873 59.8058C-47.6946 59.3379 -47.3278 58.9238 -46.8871 58.5635C-46.4425 58.1947 -45.9678 57.9143 -45.4631 57.7224C-44.9771 57.5375 -44.5461 57.4235 -44.1702 57.3804C-43.7943 57.3373 -43.4798 57.339 -43.2268 57.3854L-41.979 60.6661L-43.5026 61.2456L-44.5797 58.4135L-43.8351 58.9648C-44.0074 58.9804 -44.1875 59.0132 -44.3754 59.0633C-44.5569 59.111 -44.7443 59.1715 -44.9375 59.245C-45.5668 59.4844 -46.1123 59.8131 -46.5738 60.2311C-47.0377 60.6429 -47.3578 61.1142 -47.534 61.6448C-47.7039 62.1731 -47.6775 62.7301 -47.4548 63.3158L-45.8586 67.5125L-43.0452 66.4424L-42.5297 67.7977L-48.8949 70.2187ZM-32.5715 64.3862C-33.4686 64.7087 -34.3238 64.7931 -35.1372 64.6392C-35.9505 64.4853 -36.6796 64.1028 -37.3245 63.4916C-37.9653 62.8718 -38.4763 62.0319 -38.8575 60.9716C-39.2342 59.924 -39.3728 58.9572 -39.2733 58.0713C-39.1676 57.1831 -38.8513 56.4176 -38.3244 55.7748C-37.7997 55.1256 -37.0888 54.6398 -36.1917 54.3173C-35.2884 53.9924 -34.43 53.907 -33.6166 54.0609C-32.797 54.2125 -32.0667 54.5982 -31.4259 55.2179C-30.7851 55.8376 -30.2752 56.6745 -29.8963 57.7284C-29.5196 58.7761 -29.381 59.7429 -29.4805 60.6288C-29.5799 61.5147 -29.8951 62.2833 -30.426 62.9347C-30.9529 63.5775 -31.6681 64.0614 -32.5715 64.3862ZM-33.079 62.9747C-32.1505 62.6408 -31.5515 62.0606 -31.2819 61.234C-31.0061 60.4051 -31.0712 59.4261 -31.4772 58.2968C-31.881 57.1739 -32.4437 56.3773 -33.1653 55.9071C-33.887 55.4368 -34.7278 55.3743 -35.6876 55.7194C-36.6349 56.06 -37.2424 56.6362 -37.5102 57.448C-37.7803 58.2535 -37.7055 59.2397 -37.286 60.4066C-36.8845 61.5233 -36.3197 62.3156 -35.5918 62.7836C-34.8639 63.2516 -34.0263 63.3153 -33.079 62.9747ZM-21.3509 60.4583C-22.2093 60.7503 -23.0207 60.7974 -23.785 60.5996C-24.5516 60.3956 -25.2309 59.9718 -25.823 59.3282C-26.4151 58.6845 -26.8883 57.842 -27.2425 56.8006C-27.6031 55.7403 -27.7408 54.7766 -27.6554 53.9096C-27.5722 53.0363 -27.2889 52.2956 -26.8056 51.6876C-26.3182 51.0711 -25.6547 50.6202 -24.8153 50.3347C-24.1841 50.12 -23.626 50.0323 -23.1408 50.0715C-22.6557 50.1107 -22.2335 50.203 -21.8742 50.3484L-23.2105 46.4194L-21.9217 45.1466L-17.272 58.8175L-18.8152 59.3424L-19.0921 58.5282C-19.2564 58.8939 -19.5146 59.2528 -19.8666 59.6049C-20.2124 59.9549 -20.7071 60.2394 -21.3509 60.4583ZM-21.6446 58.9738C-21.1081 58.7913 -20.6744 58.5136 -20.3436 58.1405C-20.0086 57.759 -19.79 57.3044 -19.6878 56.7767L-21.2656 52.1377C-21.5495 51.9033 -21.9344 51.7138 -22.4202 51.5692C-22.9081 51.4183 -23.4803 51.4544 -24.1367 51.6777C-25.0266 51.9804 -25.6009 52.5278 -25.8596 53.3199C-26.1205 54.1058 -26.0512 55.0857 -25.652 56.2596C-25.418 56.9476 -25.0961 57.5317 -24.6863 58.012C-24.2786 58.486 -23.8149 58.8142 -23.2952 58.9965C-22.7691 59.1767 -22.2189 59.1692 -21.6446 58.9738ZM-9.68192 56.5699C-10.4996 56.8363 -11.2306 56.9061 -11.8749 56.7794C-12.5191 56.6527 -13.0849 56.3041 -13.5722 55.7336C-14.0552 55.1548 -14.4722 54.3265 -14.8232 53.2489L-16.5916 47.8196L-15.0227 47.3086L-13.1645 53.0136C-12.8342 54.0279 -12.3875 54.6782 -11.8245 54.9645C-11.2571 55.2425 -10.6534 55.2772 -10.0131 55.0687C-9.56942 54.9242 -9.19374 54.7107 -8.8861 54.4282C-8.57213 54.1436 -8.37241 53.7665 -8.28697 53.297C-8.20152 52.8274 -8.27338 52.2409 -8.50256 51.5372L-10.3732 45.7942L-8.80427 45.2832L-5.63914 55.0007L-7.20801 55.5117L-7.52081 54.5514C-7.71004 55.0898 -7.98389 55.519 -8.34239 55.8391C-8.6966 56.1508 -9.14312 56.3944 -9.68192 56.5699ZM2.38865 52.7642C1.12604 53.1492 -0.0112295 53.0081 -1.02315 52.3409C-2.02868 51.6717 -2.77838 50.5272 -3.27223 48.9075C-3.59888 47.8362 -3.70987 46.8664 -3.60521 45.9982C-3.50056 45.1299 -3.19479 44.3955 -2.68792 43.7949C-2.18105 43.1942 -1.48761 42.7598 -0.607604 42.4915C0.215009 42.2407 0.979223 42.2098 1.68504 42.3988C2.39723 42.5859 3.00444 43.0002 3.50668 43.6416L2.23521 44.6147C1.96107 44.2871 1.62348 44.0485 1.22243 43.8989C0.821388 43.7494 0.343472 43.7592 -0.211314 43.9284C-1.11683 44.2045 -1.67156 44.7395 -1.87553 45.5335C-2.08144 46.3211 -2.01135 47.2825 -1.66527 48.4176C-1.31335 49.5718 -0.830984 50.4109 -0.21817 50.935C0.392699 51.4526 1.13176 51.5793 1.99901 51.3149C2.54742 51.1476 2.96988 50.876 3.2664 50.4998C3.56929 50.1217 3.73364 49.6778 3.75945 49.1681L5.33925 49.2405C5.31998 50.0688 5.05345 50.7948 4.53966 51.4184C4.02392 52.0356 3.30692 52.4842 2.38865 52.7642ZM14.7751 49.0942C13.8913 49.3497 13.1934 49.3121 12.6814 48.9813C12.1758 48.6487 11.8165 48.1141 11.6035 47.3776L9.80368 41.1526L7.54614 41.8053L7.1434 40.4123L9.40093 39.7596L8.45101 36.4742L9.79467 35.2529L10.9668 39.3069L14.2618 38.3542L14.6646 39.7471L11.3695 40.6998L13.0138 46.3869C13.1009 46.6879 13.2097 46.9444 13.3404 47.1564C13.4757 47.3602 13.6652 47.4997 13.9091 47.575C14.151 47.6438 14.4738 47.6199 14.8772 47.5032C15.3448 47.3681 15.6986 47.1998 15.9388 46.9985C16.179 46.7972 16.3808 46.607 16.5442 46.4279L16.8088 48.0274C16.5915 48.2359 16.3307 48.4258 16.0263 48.5971C15.7301 48.773 15.3131 48.9387 14.7751 49.0942ZM33.4195 46.4364L36.9152 28.1841L38.4762 27.7897L34.9805 46.042L33.4195 46.4364ZM57.027 38.0645L54.077 24.3788L57.2638 23.6919C58.287 23.4714 59.1926 23.4808 59.9808 23.7201C60.7689 23.9594 61.4489 24.3618 62.0209 24.9273C62.5915 25.4863 63.0624 26.152 63.4335 26.9245C63.8032 27.6904 64.0794 28.497 64.262 29.3442C64.432 30.1328 64.5121 30.9475 64.5024 31.7884C64.4992 32.628 64.3589 33.4323 64.0814 34.2013C63.8025 34.9639 63.3456 35.6284 62.7107 36.1949C62.0823 36.76 61.224 37.1599 60.1356 37.3944L57.027 38.0645ZM58.312 36.2429L59.8663 35.9078C60.6158 35.7463 61.2044 35.4557 61.6323 35.0361C62.0653 34.6086 62.3722 34.1026 62.5531 33.518C62.7326 32.9269 62.8161 32.302 62.8036 31.6431C62.7912 30.9843 62.7169 30.3388 62.5806 29.7067C62.4345 29.0289 62.2242 28.3854 61.9497 27.7763C61.6817 27.1657 61.3462 26.6378 60.9434 26.1927C60.5392 25.7411 60.0734 25.4153 59.5461 25.2152C59.0173 25.0087 58.4239 24.9763 57.7656 25.1182L55.9963 25.4996L58.312 36.2429ZM73.3262 34.9184C72.3644 35.1067 71.494 35.0327 70.7148 34.6962C69.9421 34.3584 69.2977 33.8257 68.7815 33.098C68.2653 32.3703 67.9124 31.5224 67.7227 30.5541C67.5062 29.4484 67.5113 28.4692 67.7383 27.6163C67.964 26.7569 68.3766 26.0545 68.9763 25.509C69.5825 24.9623 70.3469 24.5986 71.2693 24.4179C72.0217 24.2705 72.7452 24.3054 73.4399 24.5226C74.1412 24.7385 74.7514 25.1659 75.2705 25.8046C75.7884 26.4369 76.1562 27.3091 76.3741 28.4213C76.3984 28.5456 76.4253 28.7 76.4546 28.8845C76.4892 29.0611 76.5159 29.2665 76.5346 29.5006L69.1057 30.9557L68.8289 29.5426L74.7072 28.3912C74.5378 27.5956 74.2728 27.0055 73.9121 26.621C73.5567 26.2286 73.1655 25.9826 72.7383 25.8829C72.3112 25.7831 71.9144 25.7691 71.5481 25.8409C70.5275 26.0408 69.8418 26.5114 69.4911 27.2526C69.1391 27.9873 69.0688 28.8944 69.2802 29.9739C69.5263 31.23 69.9854 32.1693 70.6576 32.7917C71.3298 33.4141 72.1402 33.6324 73.0888 33.4465C73.4879 33.3684 73.8715 33.2287 74.2397 33.0275C74.6066 32.8198 74.9503 32.5282 75.2708 32.153L76.3794 33.0262C76.0311 33.468 75.5955 33.8624 75.0725 34.2095C74.556 34.5552 73.9739 34.7915 73.3262 34.9184ZM85.0432 32.7382C84.3013 32.8692 83.5759 32.8246 82.8668 32.6045C82.1578 32.3844 81.542 32.0599 81.0194 31.6308L81.9503 30.4612C82.3125 30.7493 82.7576 30.9889 83.2856 31.18C83.8123 31.3646 84.3547 31.4076 84.9128 31.3091C85.4642 31.2118 85.9074 31.0185 86.2422 30.7292C86.5824 30.4322 86.7137 30.0638 86.6361 29.6239C86.5723 29.2628 86.3975 28.9823 86.1118 28.7822C85.8314 28.5745 85.4786 28.4167 85.0534 28.309C84.6336 28.1936 84.1854 28.0899 83.7088 27.998C83.0994 27.8822 82.5325 27.7385 82.008 27.5671C81.4824 27.3891 81.0416 27.1352 80.6855 26.8054C80.336 26.4745 80.1108 26.0234 80.01 25.4522C79.9161 24.9205 79.986 24.4342 80.2196 23.9936C80.4521 23.5464 80.8124 23.1714 81.3005 22.8686C81.794 22.558 82.3756 22.3437 83.0453 22.2255C83.7871 22.0945 84.4751 22.1186 85.1093 22.2978C85.7422 22.4704 86.3072 22.7565 86.8043 23.1562L85.8989 24.2401C85.5923 24.0369 85.213 23.8636 84.7612 23.7199C84.3147 23.5686 83.8026 23.5439 83.2249 23.6459C82.6537 23.7467 82.2127 23.9329 81.9019 24.2044C81.591 24.4759 81.4686 24.7987 81.5346 25.1729C81.588 25.4749 81.7448 25.7113 82.0051 25.882C82.2654 26.0526 82.5873 26.1888 82.9707 26.2903C83.3596 26.3841 83.7748 26.4733 84.2162 26.5579C84.7828 26.661 85.3447 26.7953 85.902 26.961C86.4658 27.1255 86.9516 27.3849 87.3595 27.7394C87.7673 28.0939 88.0309 28.6093 88.1503 29.2855C88.3033 30.1521 88.0994 30.8955 87.5387 31.5158C86.9845 32.1349 86.1527 32.5424 85.0432 32.7382ZM96.4912 30.2795L94.9589 20.4786L96.5693 20.2268L98.1016 30.0278L96.4912 30.2795ZM93.7514 31.0115L93.5274 29.5789L100.71 28.456L100.934 29.8886L93.7514 31.0115ZM92.3967 22.3468L92.1727 20.9142L95.8481 20.3396L96.072 21.7722L92.3967 22.3468ZM95.461 18.4467C95.1778 18.4909 94.9219 18.4297 94.6934 18.263C94.4649 18.0963 94.328 17.868 94.2827 17.5782C94.2364 17.2818 94.2966 17.0194 94.4633 16.7909C94.6289 16.5558 94.8534 16.4161 95.1366 16.3719C95.4396 16.3245 95.7026 16.388 95.9255 16.5623C96.1474 16.73 96.2815 16.9621 96.3279 17.2585C96.3732 17.5483 96.3158 17.8069 96.1557 18.0344C95.9956 18.2619 95.764 18.3993 95.461 18.4467ZM108.943 33.0079L107.986 31.8255C109.035 31.6231 109.828 31.3645 110.364 31.0498C110.901 30.7418 111.249 30.3851 111.41 29.98C111.578 29.5805 111.63 29.1463 111.566 28.6772L111.39 27.3691C111.153 27.8114 110.832 28.1744 110.427 28.458C110.028 28.7407 109.481 28.929 108.788 29.0228C108.021 29.1264 107.288 29.0239 106.587 28.7151C105.886 28.4062 105.287 27.8851 104.791 27.1517C104.295 26.4182 103.967 25.4635 103.808 24.2875C103.658 23.1777 103.715 22.2046 103.978 21.3684C104.241 20.5256 104.668 19.8523 105.259 19.3485C105.849 18.8381 106.571 18.5252 107.423 18.41C107.932 18.3412 108.373 18.3454 108.746 18.4227C109.12 18.4999 109.431 18.6126 109.68 18.7605C109.935 18.901 110.134 19.0322 110.278 19.1539L110.16 18.2819L111.766 18.0647L113.083 27.806C113.197 28.645 113.173 29.3647 113.012 29.965C112.852 30.572 112.581 31.0763 112.198 31.4779C111.816 31.8861 111.345 32.2121 110.786 32.4559C110.234 32.6988 109.619 32.8828 108.943 33.0079ZM108.924 27.4907C109.399 27.4264 109.841 27.2322 110.247 26.908C110.653 26.5773 110.956 26.1562 111.156 25.6448L110.518 20.9278C110.193 20.5143 109.783 20.2166 109.287 20.0347C108.799 19.8519 108.333 19.7905 107.89 19.8503C106.912 19.9826 106.22 20.4125 105.814 21.1402C105.414 21.8604 105.297 22.8349 105.463 24.0637C105.627 25.2727 106.028 26.177 106.668 26.7767C107.313 27.3689 108.065 27.6069 108.924 27.4907ZM117.143 27.6949L115.998 17.5393L117.618 17.3567L117.832 19.2546L117.534 18.936C117.652 18.5471 117.841 18.2037 118.103 17.9058C118.364 17.608 118.685 17.3638 119.067 17.1732C119.448 16.9826 119.88 16.8601 120.363 16.8055C121.172 16.7144 121.872 16.7932 122.463 17.0418C123.061 17.2896 123.541 17.7387 123.903 18.3889C124.271 19.0317 124.517 19.903 124.641 21.0027L125.292 26.7761L123.682 26.9576L122.996 20.8762C122.879 19.8361 122.564 19.1302 122.053 18.7585C121.548 18.3861 120.958 18.238 120.282 18.3142C119.792 18.3695 119.364 18.5049 118.999 18.7204C118.641 18.9353 118.376 19.2571 118.203 19.6858C118.036 20.1138 117.993 20.6822 118.073 21.3911L118.763 27.5123L117.143 27.6949ZM140.844 28.0095L147.633 10.7099L149.24 10.609L142.451 27.9086L140.844 28.0095ZM165.476 24.2718L165.344 10.2724L174.033 10.1905L174.048 11.7605L167.009 11.8268L167.05 16.2366L171.96 16.1903L171.975 17.7503L167.065 17.7966L167.126 24.2563L165.476 24.2718ZM176.659 24.1914L176.685 22.7416L178.815 22.779L178.943 15.4601L176.813 15.4227L176.839 13.9729L180.538 14.0379L180.498 16.3276L180.383 16.0355C180.605 15.5793 180.935 15.1884 181.374 14.8627C181.82 14.5372 182.314 14.2891 182.857 14.1186C183.407 13.9416 183.952 13.8578 184.492 13.8673C185.012 13.8764 185.454 13.9309 185.819 14.0306C186.184 14.1304 186.476 14.2489 186.693 14.386L186.632 17.8955L185.002 17.8669L185.055 14.8373L185.541 15.626C185.375 15.5764 185.196 15.5399 185.003 15.5165C184.817 15.4933 184.62 15.4798 184.414 15.4762C183.74 15.4644 183.112 15.5667 182.528 15.7831C181.944 15.9929 181.472 16.3113 181.111 16.7384C180.757 17.1656 180.574 17.6924 180.563 18.319L180.484 22.8083L183.494 22.8612L183.468 24.3109L176.659 24.1914ZM193.864 24.9375C192.912 24.8886 192.091 24.6361 191.4 24.18C190.709 23.724 190.184 23.0895 189.825 22.2767C189.474 21.4576 189.327 20.4854 189.384 19.3603C189.442 18.2484 189.687 17.3031 190.121 16.5243C190.561 15.7459 191.149 15.1619 191.883 14.7724C192.618 14.3763 193.461 14.2027 194.413 14.2516C195.372 14.3008 196.197 14.5535 196.888 15.0096C197.585 15.466 198.11 16.1037 198.461 16.9228C198.813 17.742 198.96 18.7108 198.903 19.8293C198.846 20.9412 198.6 21.8865 198.166 22.6653C197.733 23.444 197.145 24.0313 196.404 24.4271C195.669 24.8166 194.823 24.9868 193.864 24.9375ZM193.941 23.4395C194.926 23.4901 195.703 23.1862 196.271 22.5278C196.845 21.8698 197.164 20.9415 197.225 19.7431C197.286 18.5514 197.075 17.5993 196.591 16.8868C196.107 16.1744 195.355 15.792 194.337 15.7396C193.331 15.688 192.548 15.9848 191.988 16.6303C191.428 17.269 191.116 18.2076 191.052 19.446C190.991 20.6311 191.206 21.58 191.697 22.2928C192.188 23.0056 192.936 23.3878 193.941 23.4395ZM201.905 25.1642L202.707 14.9757L204.332 15.1036L204.183 17.0077L203.951 16.6384C204.14 16.2788 204.391 15.9775 204.704 15.7347C205.017 15.4919 205.379 15.3131 205.79 15.1982C206.2 15.0834 206.648 15.0451 207.133 15.0833C207.944 15.1471 208.616 15.3572 209.149 15.7135C209.69 16.0703 210.076 16.6023 210.308 17.3093C210.547 18.0102 210.623 18.9123 210.536 20.0156L210.08 25.8077L208.465 25.6805L208.945 19.5794C209.028 18.536 208.853 17.7833 208.421 17.3213C207.996 16.8598 207.444 16.6024 206.767 16.5491C206.275 16.5104 205.829 16.5622 205.43 16.7047C205.038 16.8477 204.716 17.1132 204.465 17.5014C204.22 17.89 204.07 18.4399 204.014 19.1511L203.53 25.2921L201.905 25.1642ZM219.061 26.86C218.145 26.7742 217.509 26.4837 217.154 25.9884C216.805 25.4937 216.667 24.8647 216.738 24.1014L217.342 17.6496L215.003 17.4305L215.138 15.9868L217.478 16.206L217.797 12.8009L219.494 12.1563L219.101 16.358L222.516 16.6778L222.38 18.1215L218.965 17.8016L218.413 23.6958C218.384 24.0078 218.391 24.2864 218.435 24.5316C218.487 24.7707 218.612 24.9699 218.811 25.1292C219.011 25.2819 219.32 25.3778 219.739 25.4169C220.223 25.4623 220.614 25.4353 220.911 25.3359C221.208 25.2365 221.466 25.1334 221.683 25.0266L221.344 26.6119C221.066 26.7264 220.753 26.8076 220.407 26.8556C220.067 26.9108 219.619 26.9123 219.061 26.86ZM230.484 28.035C229.51 27.9275 228.702 27.5967 228.059 27.0428C227.422 26.4896 226.966 25.7887 226.691 24.94C226.416 24.0914 226.333 23.1767 226.441 22.196C226.565 21.0761 226.862 20.1431 227.333 19.397C227.806 18.6443 228.409 18.0973 229.144 17.7559C229.886 17.4152 230.724 17.2965 231.659 17.3997C232.421 17.4838 233.101 17.7333 233.699 18.1481C234.304 18.5636 234.758 19.1538 235.063 19.9185C235.368 20.6766 235.459 21.6188 235.334 22.7453C235.32 22.8712 235.3 23.0266 235.273 23.2114C235.253 23.3903 235.217 23.5943 235.165 23.8233L227.641 22.9925L227.799 21.5612L233.753 22.2186C233.829 21.4087 233.752 20.7664 233.523 20.2917C233.301 19.8111 233.001 19.4594 232.623 19.2366C232.245 19.0138 231.871 18.8819 231.5 18.8409C230.466 18.7268 229.671 18.971 229.115 19.5736C228.559 20.1696 228.221 21.0142 228.101 22.1076C227.96 23.3799 228.118 24.4134 228.573 25.2082C229.029 26.003 229.737 26.4534 230.698 26.5595C231.102 26.6042 231.51 26.5855 231.921 26.5035C232.333 26.4148 232.749 26.2393 233.167 25.9769L233.964 27.1415C233.499 27.4591 232.966 27.7053 232.363 27.8802C231.767 28.0559 231.14 28.1075 230.484 28.035ZM238.374 28.6962L239.653 18.5566L241.271 18.7606L241.031 20.6556L240.817 20.2758C241.023 19.9254 241.288 19.6363 241.612 19.4085C241.937 19.1806 242.306 19.019 242.722 18.9235C243.137 18.8281 243.586 18.8108 244.069 18.8718C244.876 18.9736 245.537 19.215 246.054 19.5959C246.577 19.9777 246.937 20.5272 247.136 21.2444C247.342 21.9557 247.375 22.8604 247.237 23.9584L246.51 29.7227L244.902 29.5199L245.668 23.448C245.799 22.4096 245.66 21.6495 245.251 21.1678C244.848 20.6869 244.309 20.4039 243.634 20.3187C243.145 20.257 242.697 20.2879 242.292 20.4115C241.893 20.5359 241.559 20.786 241.29 21.162C241.028 21.5387 240.852 22.081 240.762 22.7887L239.991 28.9002L238.374 28.6962ZM254.137 31.0616C253.24 30.9273 252.497 30.5969 251.909 30.0706C251.321 29.5377 250.912 28.8495 250.681 28.006C250.45 27.1624 250.416 26.1968 250.579 25.1089C250.745 24.0013 251.065 23.0818 251.538 22.3506C252.013 21.6127 252.604 21.0845 253.313 20.7659C254.029 20.4417 254.825 20.3453 255.702 20.4767C256.361 20.5754 256.897 20.7535 257.311 21.0109C257.724 21.2682 258.056 21.5439 258.309 21.8379L258.924 17.7337L260.653 17.1939L258.514 31.4746L256.902 31.2331L257.029 30.3826C256.715 30.6322 256.321 30.8327 255.847 30.9841C255.379 31.1365 254.809 31.1623 254.137 31.0616ZM254.557 29.6077C255.117 29.6917 255.63 29.6438 256.095 29.464C256.568 29.2787 256.97 28.975 257.303 28.553L258.029 23.707C257.884 23.3685 257.629 23.0236 257.264 22.6723C256.9 22.3144 256.375 22.084 255.689 21.9813C254.759 21.8421 253.998 22.0651 253.405 22.6503C252.812 23.229 252.424 24.1314 252.241 25.3578C252.133 26.0764 252.151 26.7431 252.295 27.3579C252.44 27.966 252.701 28.4704 253.079 28.8708C253.464 29.2722 253.957 29.5179 254.557 29.6077ZM273.286 36.654L284.263 21.6589L285.843 21.9712L274.865 36.9663L273.286 36.654ZM298.054 39.3216L301.502 25.753L305.311 26.721C306.377 26.9919 307.17 27.379 307.689 27.8823C308.215 28.3807 308.535 28.9365 308.647 29.5498C308.768 30.1582 308.753 30.7597 308.602 31.3541C308.432 32.0196 308.101 32.5511 307.608 32.9485C307.122 33.3477 306.53 33.5927 305.832 33.6838C306.525 34.0729 307.031 34.6109 307.352 35.2977C307.679 35.9862 307.732 36.7633 307.512 37.6292C307.394 38.0944 307.206 38.5383 306.947 38.9609C306.69 39.3771 306.346 39.7298 305.914 40.0192C305.485 40.3021 304.96 40.4852 304.341 40.5685C303.729 40.647 303.003 40.5795 302.163 40.366L298.054 39.3216ZM300.023 38.2743L302.746 38.9664C303.438 39.1421 304.002 39.1685 304.439 39.0457C304.877 38.9165 305.215 38.6963 305.453 38.3851C305.698 38.0692 305.869 37.7206 305.966 37.3394C306.079 36.8935 306.096 36.4506 306.015 36.0105C305.934 35.5703 305.689 35.1676 305.28 34.8022C304.877 34.4384 304.24 34.1457 303.367 33.924L301.264 33.3895L300.023 38.2743ZM301.624 31.9745L303.504 32.4524C304.505 32.7069 305.307 32.6938 305.908 32.4132C306.515 32.1342 306.905 31.6555 307.077 30.9771C307.164 30.6346 307.181 30.2846 307.128 29.9271C307.076 29.5631 306.889 29.2268 306.569 28.9184C306.255 28.6116 305.746 28.3687 305.041 28.1897L302.735 27.6035L301.624 31.9745ZM313.089 43.5624C312.404 43.3653 311.83 43.0686 311.368 42.6723C310.914 42.2714 310.607 41.7842 310.446 41.2107C310.293 40.6326 310.322 39.9751 310.534 39.2383C310.752 38.4822 311.108 37.9187 311.603 37.5477C312.1 37.1703 312.666 36.9514 313.3 36.8911C313.937 36.8244 314.576 36.8831 315.216 37.0672C315.697 37.2054 316.138 37.3842 316.54 37.6037C316.948 37.825 317.341 38.1219 317.719 38.4943L317.94 37.7254C318.114 37.1232 318.15 36.6342 318.05 36.2586C317.952 35.8766 317.76 35.5787 317.474 35.3648C317.189 35.151 316.857 34.9898 316.479 34.8811C315.954 34.7301 315.375 34.6815 314.742 34.7355C314.117 34.7848 313.559 34.881 313.067 35.024L312.994 33.5775C313.499 33.4382 314.111 33.3471 314.831 33.3043C315.557 33.2634 316.289 33.3488 317.025 33.5606C317.397 33.6674 317.768 33.8259 318.137 34.0362C318.509 34.2401 318.832 34.5167 319.106 34.8661C319.38 35.2154 319.557 35.6479 319.638 36.1636C319.72 36.6729 319.658 37.2895 319.45 38.0136L317.557 44.597L316.087 44.1743L316.349 43.2613C315.89 43.4831 315.382 43.632 314.827 43.708C314.277 43.7859 313.698 43.7373 313.089 43.5624ZM313.683 42.2557C314.305 42.4343 314.884 42.4448 315.422 42.2873C315.962 42.1233 316.425 41.913 316.811 41.6563L317.313 39.9071C317.061 39.6265 316.731 39.3512 316.323 39.0813C315.915 38.8115 315.48 38.6102 315.019 38.4776C314.359 38.2879 313.738 38.2759 313.156 38.4417C312.576 38.601 312.193 39.0074 312.005 39.661C311.837 40.244 311.894 40.7702 312.175 41.2395C312.463 41.7107 312.966 42.0494 313.683 42.2557ZM325.527 47.3394C324.27 46.9357 323.416 46.1713 322.965 45.0462C322.521 43.9231 322.557 42.5554 323.075 40.9432C323.418 39.8769 323.88 39.0169 324.461 38.3633C325.042 37.7097 325.712 37.2807 326.471 37.0764C327.23 36.872 328.047 36.9105 328.923 37.1919C329.742 37.4549 330.387 37.8653 330.859 38.423C331.337 38.9828 331.6 39.6694 331.647 40.4827L330.048 40.5571C330.009 40.1316 329.868 39.7431 329.624 39.3916C329.379 39.0401 328.981 38.7756 328.429 38.5982C327.528 38.3087 326.767 38.4319 326.147 38.9679C325.528 39.4975 325.038 40.3272 324.675 41.457C324.306 42.6059 324.224 43.5703 324.428 44.3502C324.635 45.1238 325.17 45.6493 326.033 45.9266C326.579 46.1019 327.081 46.1196 327.539 45.9797C328.003 45.8418 328.391 45.5708 328.703 45.1668L329.96 46.1272C329.472 46.7966 328.839 47.241 328.061 47.4603C327.285 47.6733 326.441 47.633 325.527 47.3394ZM333.003 49.556L337.599 36.6925L339.396 36.5065L334.538 50.1045L333.003 49.556ZM335.884 46.0404L336.516 44.27L341.508 41.7422L343.297 42.3815L335.884 46.0404ZM339.293 51.8037L338.361 44.5152L339.851 43.7943L340.979 52.406L339.293 51.8037ZM348.231 55.4917C347.32 55.1288 346.629 54.5948 346.157 53.8897C345.69 53.1871 345.437 52.3901 345.398 51.4989C345.359 50.6076 345.522 49.7037 345.887 48.7871C346.304 47.7406 346.839 46.9204 347.492 46.3266C348.148 45.7267 348.875 45.36 349.675 45.2266C350.48 45.0957 351.32 45.2043 352.193 45.5524C352.905 45.8363 353.494 46.2577 353.961 46.8167C354.433 47.3782 354.714 48.0681 354.804 48.8862C354.897 49.6982 354.733 50.6306 354.313 51.6834C354.267 51.8011 354.205 51.9454 354.13 52.1163C354.063 52.2835 353.975 52.4705 353.863 52.6774L346.832 49.8742L347.365 48.5366L352.929 50.7547C353.218 49.9942 353.315 49.3547 353.22 48.8361C353.134 48.3138 352.939 47.895 352.634 47.5796C352.329 47.2643 352.003 47.0375 351.656 46.8993C350.69 46.5142 349.859 46.538 349.162 46.9709C348.468 47.3976 347.918 48.1218 347.51 49.1436C347.036 50.3326 346.913 51.3708 347.141 52.2582C347.368 53.1455 347.931 53.7682 348.829 54.1261C349.207 54.2767 349.605 54.3673 350.023 54.3977C350.444 54.422 350.891 54.3633 351.364 54.2216L351.822 55.5562C351.29 55.7388 350.71 55.8342 350.083 55.8424C349.461 55.853 348.844 55.7361 348.231 55.4917ZM355.506 58.2104L359.637 48.8625L361.128 49.5214L360.356 51.2684L360.26 50.8432C360.557 50.5664 360.894 50.3653 361.27 50.24C361.646 50.1146 362.046 50.0657 362.472 50.0933C362.897 50.1208 363.332 50.2329 363.777 50.4296C364.521 50.7584 365.086 51.1793 365.471 51.6922C365.863 52.2079 366.051 52.8377 366.036 53.5816C366.029 54.3221 365.802 55.1985 365.355 56.2108L363.006 61.525L361.525 60.8701L363.998 55.2724C364.421 54.315 364.506 53.5469 364.251 52.968C364.003 52.3918 363.568 51.9663 362.946 51.6914C362.495 51.492 362.057 51.3934 361.634 51.3957C361.216 51.4006 360.824 51.5446 360.459 51.8276C360.099 52.1134 359.775 52.5825 359.487 53.2349L356.997 58.8693L355.506 58.2104ZM369.808 65.0216C368.993 64.6251 368.383 64.0876 367.979 63.4093C367.578 62.7249 367.393 61.9458 367.426 61.0718C367.458 60.1979 367.714 59.2663 368.195 58.2771C368.685 57.2699 369.266 56.4883 369.936 55.9323C370.61 55.3703 371.332 55.0434 372.104 54.9514C372.884 54.8564 373.672 55.0028 374.47 55.3906C375.069 55.6822 375.528 56.0126 375.845 56.3818C376.162 56.751 376.397 57.1137 376.55 57.4698L378.365 53.7378L380.176 53.7402L373.861 66.7259L372.395 66.013L372.771 65.2396C372.397 65.3838 371.961 65.4572 371.463 65.4597C370.971 65.4651 370.419 65.3191 369.808 65.0216ZM370.644 63.7602C371.153 64.008 371.657 64.1158 372.155 64.0835C372.661 64.0481 373.136 63.8789 373.58 63.5759L375.723 59.1694C375.687 58.8031 375.546 58.3976 375.303 57.9531C375.063 57.5025 374.631 57.1256 374.007 56.8224C373.162 56.4112 372.368 56.3961 371.627 56.7769C370.889 57.1518 370.249 57.8967 369.706 59.0118C369.388 59.6653 369.206 60.3069 369.159 60.9365C369.116 61.5601 369.214 62.1196 369.455 62.6149C369.702 63.1131 370.098 63.4949 370.644 63.7602ZM385.993 76.1571L401.326 65.6567L402.712 66.4757L387.379 76.9761L385.993 76.1571ZM412.843 92.3176L412.977 86.9581L414.428 86.9691L414.27 92.3112L412.843 92.3176ZM411.459 89.5838C410.752 89.0826 410.273 88.49 410.023 87.8058C409.776 87.1162 409.704 86.3825 409.806 85.6048C409.911 84.8217 410.143 84.0339 410.5 83.2413C410.862 82.4433 411.299 81.6826 411.811 80.9592C412.324 80.2358 412.895 79.5743 413.525 78.9744C414.158 78.3692 414.825 77.8898 415.525 77.5362C416.229 77.1771 416.945 77.0025 417.673 77.0122C418.406 77.0165 419.126 77.2693 419.833 77.7704C420.54 78.2716 421.017 78.867 421.263 79.5566C421.514 80.2408 421.586 80.9745 421.48 81.7576C421.379 82.5353 421.147 83.3231 420.786 84.1211C420.434 84.9175 420.001 85.6774 419.489 86.4008C418.976 87.1242 418.4 87.7866 417.761 88.388C417.132 88.9878 416.465 89.4672 415.761 89.8262C415.061 90.1799 414.345 90.3545 413.613 90.3502C412.884 90.3404 412.166 90.085 411.459 89.5838ZM412.332 88.3519C412.778 88.668 413.253 88.8 413.756 88.7478C414.262 88.6901 414.773 88.5003 415.287 88.1784C415.806 87.8603 416.304 87.4575 416.781 86.9698C417.261 86.4767 417.696 85.9555 418.085 85.4062C418.513 84.8024 418.88 84.1924 419.186 83.5759C419.497 82.954 419.713 82.3553 419.834 81.7798C419.956 81.2044 419.953 80.6789 419.824 80.2035C419.699 79.7227 419.411 79.3223 418.959 79.0024C418.513 78.6862 418.037 78.557 417.53 78.6146C417.028 78.6668 416.517 78.852 415.997 79.1701C415.487 79.4866 414.991 79.8914 414.511 80.3844C414.035 80.8721 413.6 81.3933 413.207 81.9481C412.782 82.5464 412.415 83.1564 412.105 83.7783C411.799 84.3948 411.583 84.9935 411.457 85.5744C411.341 86.1537 411.345 86.6838 411.47 87.1646C411.599 87.64 411.886 88.0358 412.332 88.3519ZM417.068 93.301L429.274 85.0383L430.358 85.8757L425.474 99.7922L424.128 98.7531L427.798 88.6999C427.827 88.6296 427.874 88.5096 427.937 88.3398C428.001 88.17 428.067 87.9976 428.135 87.8225C428.203 87.6475 428.261 87.5116 428.31 87.415C428.224 87.4831 428.105 87.5721 427.953 87.682C427.806 87.7959 427.661 87.9072 427.518 88.0159C427.379 88.1192 427.275 88.1944 427.205 88.2415L418.445 94.3645L417.068 93.301ZM421.046 91.9629L422.324 91.0929L426.273 94.1429L425.755 95.5997L421.046 91.9629ZM434.412 110.737L451.59 103.648L452.776 104.736L435.598 111.826L434.412 110.737ZM456.9 129.545C456.258 128.849 455.86 128.119 455.707 127.353C455.558 126.592 455.596 125.827 455.82 125.058C456.05 124.284 456.415 123.534 456.916 122.809C457.421 122.079 458.005 121.409 458.666 120.798C459.347 120.17 460.072 119.637 460.839 119.201C461.612 118.76 462.393 118.461 463.182 118.304C463.976 118.152 464.744 118.183 465.485 118.397C466.227 118.61 466.91 119.055 467.534 119.731C468.022 120.26 468.345 120.783 468.504 121.299C468.663 121.815 468.711 122.314 468.649 122.798C468.587 123.281 468.473 123.732 468.305 124.15L466.734 123.613C466.91 123.115 467.003 122.626 467.012 122.145C467.027 121.659 466.831 121.196 466.424 120.755C465.986 120.28 465.485 119.994 464.923 119.896C464.37 119.798 463.791 119.838 463.184 120.017C462.587 120.196 461.999 120.467 461.418 120.831C460.842 121.199 460.311 121.607 459.826 122.055C459.297 122.543 458.825 123.069 458.411 123.633C458.001 124.201 457.693 124.772 457.486 125.344C457.284 125.921 457.214 126.479 457.277 127.02C457.345 127.565 457.589 128.065 458.01 128.521C458.435 128.981 458.896 129.241 459.394 129.298C459.901 129.356 460.432 129.297 460.986 129.121L461.572 130.582C461.083 130.76 460.57 130.862 460.031 130.888C459.492 130.913 458.951 130.823 458.407 130.617C457.873 130.412 457.37 130.055 456.9 129.545ZM464.529 138.167C463.91 137.442 463.528 136.672 463.384 135.857C463.241 135.042 463.34 134.224 463.684 133.405C464.037 132.586 464.641 131.811 465.498 131.079C466.345 130.356 467.2 129.885 468.064 129.664C468.932 129.449 469.76 129.474 470.547 129.739C471.34 130 472.046 130.493 472.665 131.218C473.289 131.948 473.672 132.72 473.816 133.535C473.965 134.356 473.862 135.175 473.509 135.994C473.157 136.812 472.554 137.586 471.703 138.313C470.856 139.036 470.001 139.508 469.137 139.728C468.273 139.949 467.443 139.926 466.646 139.66C465.858 139.395 465.153 138.897 464.529 138.167ZM465.67 137.193C466.31 137.943 467.065 138.298 467.934 138.258C468.806 138.222 469.699 137.815 470.612 137.035C471.519 136.26 472.065 135.452 472.249 134.611C472.434 133.77 472.195 132.961 471.532 132.185C470.878 131.42 470.124 131.056 469.27 131.093C468.421 131.125 467.526 131.544 466.583 132.349C465.68 133.12 465.139 133.929 464.959 134.775C464.779 135.621 465.016 136.427 465.67 137.193ZM469.819 144.109L477.847 137.785L478.856 139.066L477.356 140.247L477.47 139.827C477.862 139.721 478.254 139.701 478.645 139.767C479.036 139.832 479.412 139.977 479.775 140.2C480.138 140.424 480.47 140.727 480.771 141.109C481.274 141.748 481.576 142.384 481.676 143.018C481.781 143.657 481.652 144.302 481.29 144.952C480.937 145.603 480.326 146.271 479.457 146.956L474.892 150.551L473.89 149.278L478.698 145.491C479.52 144.844 479.954 144.204 480.001 143.574C480.051 142.948 479.866 142.369 479.446 141.834C479.14 141.447 478.8 141.155 478.425 140.958C478.053 140.767 477.64 140.711 477.184 140.79C476.733 140.874 476.227 141.136 475.667 141.578L470.827 145.389L469.819 144.109ZM479.974 157.824C479.433 157.08 479.231 156.411 479.368 155.817C479.509 155.228 479.889 154.708 480.509 154.257L485.751 150.448L484.369 148.547L485.542 147.694L486.924 149.595L489.69 147.584L491.296 148.433L487.882 150.914L489.899 153.688L488.726 154.541L486.709 151.766L481.921 155.247C481.667 155.431 481.463 155.621 481.308 155.816C481.162 156.012 481.096 156.238 481.108 156.493C481.125 156.744 481.258 157.039 481.505 157.379C481.791 157.772 482.069 158.048 482.34 158.205C482.611 158.363 482.859 158.488 483.083 158.581L481.669 159.373C481.399 159.24 481.131 159.059 480.867 158.831C480.601 158.613 480.303 158.277 479.974 157.824ZM486.476 167.132C485.927 166.32 485.656 165.49 485.661 164.641C485.671 163.798 485.91 162.997 486.378 162.238C486.847 161.478 487.49 160.822 488.307 160.27C489.24 159.639 490.144 159.261 491.018 159.137C491.897 159.01 492.705 159.116 493.441 159.455C494.181 159.799 494.814 160.361 495.341 161.14C495.77 161.775 496.021 162.455 496.092 163.179C496.167 163.909 496.011 164.638 495.626 165.365C495.246 166.089 494.587 166.768 493.648 167.402C493.543 167.473 493.411 167.558 493.253 167.657C493.104 167.758 492.925 167.863 492.717 167.971L488.477 161.7L489.67 160.893L493.025 165.856C493.691 165.389 494.131 164.915 494.344 164.433C494.567 163.953 494.64 163.496 494.566 163.064C494.491 162.632 494.349 162.261 494.14 161.952C493.557 161.09 492.856 160.643 492.037 160.609C491.223 160.572 490.361 160.861 489.449 161.477C488.389 162.194 487.703 162.984 487.393 163.845C487.082 164.707 487.197 165.538 487.739 166.339C487.966 166.676 488.245 166.975 488.574 167.235C488.908 167.492 489.311 167.695 489.781 167.843L489.41 169.205C488.867 169.057 488.334 168.81 487.811 168.463C487.291 168.123 486.846 167.679 486.476 167.132ZM490.954 173.461L499.636 168.069L500.496 169.454L498.873 170.462L499.034 170.056C499.435 169.995 499.827 170.019 500.208 170.127C500.589 170.236 500.948 170.421 501.283 170.684C501.619 170.946 501.915 171.284 502.172 171.697C502.601 172.388 502.83 173.054 502.859 173.695C502.892 174.342 502.693 174.968 502.26 175.574C501.838 176.182 501.156 176.778 500.216 177.362L495.28 180.427L494.426 179.051L499.625 175.822C500.514 175.27 501.016 174.683 501.133 174.062C501.252 173.446 501.133 172.849 500.774 172.271C500.514 171.852 500.208 171.524 499.857 171.287C499.509 171.056 499.105 170.954 498.643 170.982C498.185 171.015 497.653 171.22 497.047 171.596L491.814 174.846L490.954 173.461ZM499.577 188.236C499.118 187.439 498.988 186.753 499.187 186.176C499.389 185.606 499.822 185.129 500.486 184.746L506.101 181.511L504.927 179.475L506.184 178.751L507.357 180.787L510.32 179.079L511.827 180.092L508.171 182.199L509.883 185.171L508.627 185.895L506.915 182.923L501.785 185.879C501.514 186.036 501.291 186.203 501.116 186.38C500.951 186.56 500.86 186.778 500.846 187.032C500.837 187.284 500.937 187.591 501.147 187.955C501.39 188.377 501.638 188.68 501.891 188.866C502.143 189.051 502.376 189.201 502.589 189.317L501.099 189.956C500.845 189.795 500.598 189.587 500.359 189.333C500.118 189.087 499.857 188.722 499.577 188.236ZM506.315 205.559L524.894 205.111L525.609 206.554L507.031 207.001L506.315 205.559ZM520.842 231.248C520.472 230.376 520.344 229.554 520.458 228.782C520.575 228.015 520.868 227.308 521.339 226.659C521.816 226.008 522.412 225.425 523.129 224.911C523.851 224.395 524.626 223.961 525.455 223.609C526.308 223.247 527.169 222.99 528.039 222.839C528.915 222.684 529.751 222.666 530.547 222.785C531.346 222.909 532.058 223.197 532.684 223.648C533.31 224.1 533.803 224.749 534.163 225.596C534.444 226.259 534.572 226.86 534.547 227.399C534.523 227.938 534.4 228.425 534.178 228.859C533.957 229.293 533.697 229.679 533.398 230.015L532.101 228.98C532.434 228.571 532.686 228.141 532.858 227.692C533.035 227.24 533.007 226.738 532.772 226.186C532.52 225.59 532.145 225.152 531.649 224.87C531.162 224.591 530.603 224.434 529.972 224.398C529.349 224.365 528.703 224.421 528.034 224.568C527.367 224.72 526.73 224.926 526.123 225.183C525.46 225.465 524.839 225.801 524.258 226.192C523.681 226.589 523.198 227.022 522.811 227.49C522.426 227.965 522.172 228.468 522.049 228.998C521.929 229.534 521.99 230.087 522.232 230.658C522.477 231.235 522.824 231.634 523.273 231.857C523.731 232.082 524.25 232.206 524.832 232.227L524.89 233.799C524.37 233.803 523.852 233.725 523.336 233.568C522.82 233.41 522.341 233.143 521.899 232.766C521.465 232.392 521.113 231.886 520.842 231.248ZM523.906 238.006L536.933 232.88L537.592 234.555L530.483 239.62C530.209 239.814 529.979 239.968 529.796 240.084C529.62 240.203 529.432 240.316 529.231 240.424C529.452 240.366 529.667 240.321 529.876 240.289C530.092 240.254 530.366 240.214 530.699 240.169L539.357 239.04L540.002 240.678L526.974 245.804L526.418 244.39L534.737 241.116C534.867 241.065 535.047 240.994 535.277 240.904C535.509 240.82 535.731 240.747 535.943 240.685C535.715 240.724 535.493 240.761 535.277 240.796C535.068 240.828 534.857 240.857 534.645 240.883L525.495 242.045L525.389 241.775L532.873 236.38C533.048 236.261 533.225 236.137 533.404 236.009C533.586 235.888 533.77 235.765 533.958 235.641C533.758 235.734 533.545 235.829 533.317 235.925C533.09 236.022 532.912 236.096 532.781 236.147L524.462 239.421L523.906 238.006ZM529.553 253.438C529.304 252.756 529.207 252.089 529.26 251.438C529.314 250.787 529.481 250.186 529.763 249.636C530.052 249.084 530.427 248.625 530.889 248.257L531.939 249.503C531.45 249.951 531.111 250.482 530.924 251.097C530.737 251.712 530.758 252.336 530.989 252.968C531.245 253.67 531.638 254.154 532.168 254.422C532.701 254.696 533.331 254.701 534.057 254.436C534.552 254.256 534.932 253.975 535.198 253.594C535.472 253.218 535.668 252.781 535.785 252.284C535.902 251.787 535.977 251.274 536.011 250.743C536.038 250.272 536.085 249.79 536.154 249.297C536.225 248.81 536.349 248.342 536.526 247.895C536.706 247.453 536.961 247.055 537.293 246.7C537.633 246.348 538.076 246.073 538.621 245.875C539.197 245.665 539.776 245.617 540.357 245.732C540.944 245.844 541.48 246.117 541.964 246.55C542.449 246.984 542.828 247.577 543.102 248.328C543.429 249.224 543.488 250.057 543.28 250.829C543.077 251.598 542.683 252.189 542.095 252.602L541.099 251.358C541.407 251.075 541.629 250.71 541.764 250.264C541.899 249.817 541.869 249.324 541.672 248.786C541.453 248.184 541.122 247.762 540.679 247.519C540.235 247.277 539.751 247.251 539.224 247.443C538.805 247.596 538.491 247.845 538.284 248.19C538.076 248.536 537.931 248.947 537.85 249.424C537.774 249.898 537.717 250.412 537.678 250.966C537.642 251.433 537.58 251.913 537.49 252.407C537.4 252.901 537.253 253.381 537.046 253.846C536.84 254.312 536.546 254.731 536.164 255.105C535.788 255.476 535.297 255.772 534.689 255.994C533.9 256.281 533.167 256.354 532.49 256.21C531.816 256.073 531.224 255.763 530.715 255.282C530.212 254.798 529.825 254.184 529.553 253.438ZM533.629 272.545L552.046 275.037L552.525 276.574L534.109 274.082L533.629 272.545ZM543.182 295.628L556.715 292.043L557.55 295.194C557.818 296.206 557.851 297.111 557.649 297.909C557.446 298.708 557.076 299.406 556.538 300.004C556.006 300.6 555.363 301.101 554.609 301.508C553.861 301.913 553.068 302.226 552.23 302.448C551.451 302.655 550.641 302.773 549.8 302.803C548.961 302.839 548.151 302.736 547.37 302.495C546.595 302.252 545.91 301.826 545.315 301.218C544.721 300.617 544.281 299.778 543.996 298.702L543.182 295.628ZM545.062 296.827L545.469 298.364C545.665 299.105 545.983 299.679 546.422 300.087C546.869 300.5 547.389 300.783 547.981 300.936C548.58 301.088 549.208 301.142 549.866 301.099C550.523 301.056 551.165 300.951 551.79 300.786C552.46 300.608 553.093 300.368 553.689 300.065C554.286 299.769 554.798 299.409 555.224 298.986C555.656 298.561 555.96 298.081 556.135 297.545C556.316 297.007 556.321 296.413 556.149 295.762L555.685 294.012L545.062 296.827ZM546.868 310.901C546.699 310.208 546.672 309.563 546.787 308.965C546.91 308.373 547.181 307.864 547.599 307.44C548.025 307.02 548.611 306.72 549.356 306.539C550.12 306.352 550.786 306.382 551.354 306.628C551.928 306.873 552.399 307.256 552.766 307.777C553.139 308.296 553.405 308.88 553.563 309.528C553.681 310.014 553.744 310.485 553.753 310.943C553.763 311.407 553.7 311.896 553.565 312.409L554.342 312.22C554.951 312.072 555.393 311.861 555.67 311.588C555.953 311.313 556.117 310.999 556.161 310.645C556.205 310.291 556.181 309.923 556.087 309.541C555.958 309.01 555.713 308.483 555.352 307.96C555 307.442 554.64 307.005 554.271 306.648L555.491 305.868C555.863 306.237 556.245 306.723 556.639 307.327C557.035 307.938 557.324 308.615 557.505 309.36C557.597 309.736 557.643 310.136 557.643 310.562C557.65 310.985 557.57 311.403 557.403 311.814C557.235 312.225 556.948 312.594 556.54 312.92C556.139 313.244 555.572 313.495 554.84 313.673L548.185 315.294L547.822 313.808L548.746 313.583C548.325 313.294 547.944 312.927 547.603 312.482C547.262 312.044 547.017 311.517 546.868 310.901ZM548.297 310.769C548.45 311.398 548.728 311.906 549.132 312.295C549.542 312.682 549.954 312.98 550.368 313.188L552.136 312.757C552.255 312.399 552.33 311.976 552.362 311.488C552.394 311 552.354 310.522 552.24 310.056C552.078 309.389 551.78 308.844 551.348 308.421C550.922 307.996 550.379 307.864 549.718 308.025C549.128 308.169 548.7 308.479 548.432 308.956C548.165 309.439 548.12 310.044 548.297 310.769ZM549.999 324.326C549.799 323.428 549.879 322.734 550.241 322.243C550.604 321.759 551.16 321.433 551.908 321.266L558.232 319.853L557.72 317.56L559.135 317.243L559.647 319.537L562.985 318.791L564.121 320.208L560.003 321.128L560.75 324.475L559.335 324.791L558.587 321.444L552.81 322.735C552.504 322.803 552.241 322.896 552.022 323.013C551.81 323.136 551.659 323.316 551.569 323.555C551.485 323.792 551.489 324.116 551.581 324.526C551.687 325.001 551.833 325.364 552.019 325.616C552.205 325.868 552.383 326.082 552.551 326.256L550.939 326.421C550.744 326.192 550.57 325.92 550.418 325.605C550.261 325.299 550.121 324.872 549.999 324.326ZM552.213 334.684C552.07 333.985 552.067 333.339 552.204 332.746C552.349 332.159 552.639 331.661 553.073 331.252C553.514 330.849 554.11 330.571 554.862 330.417C555.632 330.259 556.297 330.314 556.855 330.581C557.419 330.847 557.875 331.247 558.223 331.781C558.577 332.315 558.821 332.908 558.954 333.561C559.054 334.051 559.1 334.525 559.092 334.982C559.084 335.446 559.004 335.933 558.849 336.44L559.633 336.28C560.247 336.155 560.697 335.961 560.983 335.698C561.276 335.434 561.452 335.126 561.509 334.774C561.566 334.422 561.555 334.053 561.477 333.668C561.367 333.132 561.142 332.597 560.801 332.061C560.468 331.53 560.124 331.08 559.77 330.71L561.018 329.975C561.375 330.358 561.739 330.858 562.111 331.477C562.483 332.101 562.746 332.789 562.9 333.54C562.977 333.919 563.009 334.321 562.993 334.746C562.985 335.17 562.889 335.584 562.706 335.989C562.524 336.393 562.223 336.751 561.803 337.061C561.39 337.37 560.814 337.6 560.076 337.751L553.365 339.123L553.059 337.624L553.989 337.434C553.58 337.13 553.213 336.749 552.888 336.291C552.565 335.84 552.339 335.305 552.213 334.684ZM553.646 334.605C553.775 335.239 554.034 335.758 554.423 336.161C554.818 336.564 555.219 336.876 555.625 337.099L557.409 336.735C557.54 336.381 557.631 335.961 557.682 335.475C557.732 334.988 557.709 334.51 557.613 334.039C557.475 333.367 557.198 332.811 556.782 332.372C556.372 331.932 555.834 331.78 555.168 331.916C554.574 332.038 554.134 332.332 553.848 332.798C553.564 333.272 553.496 333.874 553.646 334.605ZM553.756 355.196L571.749 359.844L572.044 361.427L554.051 356.778L553.756 355.196ZM561.588 379.894L575.119 376.3L576.21 380.407C576.5 381.496 576.528 382.409 576.297 383.147C576.071 383.883 575.685 384.468 575.139 384.903C574.598 385.336 573.997 385.641 573.333 385.817C572.869 385.941 572.377 385.985 571.858 385.951C571.346 385.921 570.848 385.784 570.362 385.541C569.879 385.304 569.441 384.941 569.049 384.452C568.665 383.967 568.368 383.332 568.16 382.546L567.492 380.033L562.012 381.489L561.588 379.894ZM568.942 379.648L569.64 382.277C569.815 382.934 570.082 383.422 570.443 383.74C570.805 384.064 571.205 384.258 571.642 384.321C572.088 384.389 572.514 384.369 572.919 384.261C573.287 384.164 573.65 383.985 574.008 383.724C574.368 383.47 574.635 383.112 574.81 382.652C574.984 382.192 574.978 381.611 574.791 380.908L574.093 378.28L568.942 379.648ZM564.922 392.078L578.281 387.889L578.819 389.606L571.369 394.154C571.081 394.328 570.841 394.466 570.65 394.568C570.466 394.674 570.271 394.774 570.062 394.867C570.287 394.825 570.504 394.795 570.715 394.778C570.933 394.759 571.209 394.738 571.545 394.717L580.261 394.205L580.788 395.885L567.429 400.074L566.975 398.623L575.505 395.948C575.639 395.907 575.823 395.849 576.058 395.775C576.296 395.707 576.522 395.65 576.738 395.604C576.508 395.627 576.284 395.648 576.067 395.667C575.856 395.685 575.643 395.699 575.43 395.71L566.221 396.219L566.134 395.942L573.982 391.092C574.165 390.985 574.351 390.875 574.538 390.76C574.728 390.652 574.921 390.542 575.117 390.432C574.911 390.51 574.691 390.59 574.458 390.67C574.224 390.75 574.041 390.811 573.907 390.853L565.377 393.528L564.922 392.078ZM570.588 416.443L589.156 417.232L589.774 418.719L571.207 417.929L570.588 416.443ZM583.641 438.992L596.004 432.423L597.998 436.176C598.527 437.171 598.762 438.054 598.703 438.825C598.651 439.593 598.408 440.25 597.974 440.798C597.546 441.342 597.029 441.776 596.422 442.098C595.999 442.323 595.53 442.478 595.016 442.562C594.511 442.649 593.995 442.629 593.467 442.502C592.942 442.381 592.433 442.126 591.94 441.739C591.456 441.354 591.024 440.803 590.642 440.085L589.422 437.788L584.415 440.449L583.641 438.992ZM590.747 437.085L592.023 439.487C592.342 440.087 592.713 440.501 593.136 440.73C593.563 440.964 593.996 441.062 594.436 441.024C594.886 440.989 595.296 440.873 595.667 440.676C596.003 440.498 596.315 440.241 596.605 439.906C596.898 439.576 597.078 439.168 597.143 438.68C597.209 438.192 597.071 437.628 596.73 436.986L595.454 434.584L590.747 437.085ZM589.186 449.306L590.432 448.565L591.521 450.395L597.812 446.652L596.723 444.822L597.969 444.08L599.861 447.26L597.893 448.431L598.081 448.179C598.585 448.128 599.091 448.203 599.599 448.405C600.111 448.612 600.582 448.902 601.013 449.274C601.453 449.649 601.811 450.068 602.087 450.532C602.353 450.979 602.539 451.384 602.647 451.746C602.754 452.109 602.806 452.419 602.804 452.677L599.788 454.471L598.954 453.07L601.558 451.521L601.144 452.35C601.099 452.183 601.035 452.011 600.954 451.834C600.875 451.664 600.783 451.49 600.678 451.312C600.333 450.733 599.916 450.253 599.424 449.87C598.939 449.484 598.419 449.25 597.866 449.168C597.316 449.092 596.772 449.214 596.234 449.534L592.375 451.83L593.914 454.417L592.668 455.158L589.186 449.306ZM598.342 464.573C597.816 463.778 597.532 462.967 597.488 462.14C597.445 461.314 597.644 460.515 598.085 459.743C598.535 458.974 599.23 458.278 600.169 457.657C601.098 457.042 602.004 456.678 602.888 456.565C603.776 456.457 604.595 456.583 605.344 456.942C606.099 457.298 606.74 457.874 607.266 458.669C607.796 459.469 608.082 460.283 608.126 461.11C608.173 461.942 607.971 462.743 607.521 463.512C607.071 464.282 606.379 464.975 605.445 465.593C604.516 466.208 603.61 466.572 602.725 466.685C601.841 466.798 601.02 466.674 600.261 466.313C599.512 465.954 598.872 465.373 598.342 464.573ZM599.593 463.745C600.138 464.568 600.843 465.012 601.71 465.078C602.581 465.15 603.517 464.854 604.518 464.192C605.513 463.534 606.153 462.798 606.439 461.986C606.725 461.173 606.586 460.342 606.023 459.491C605.468 458.651 604.764 458.198 603.912 458.13C603.065 458.059 602.125 458.365 601.091 459.049C600.101 459.704 599.465 460.441 599.183 461.259C598.901 462.077 599.038 462.906 599.593 463.745ZM605.395 474.715C604.859 473.983 604.571 473.223 604.531 472.435C604.496 471.642 604.697 470.867 605.134 470.109C605.571 469.352 606.233 468.648 607.121 467.998C608.024 467.337 608.902 466.917 609.755 466.739C610.613 466.556 611.405 466.605 612.13 466.884C612.864 467.164 613.493 467.662 614.017 468.378C614.41 468.916 614.661 469.422 614.769 469.897C614.877 470.371 614.915 470.802 614.884 471.188L618.233 468.737L619.833 469.585L608.182 478.115L607.219 476.8L607.913 476.292C607.515 476.245 607.095 476.106 606.653 475.875C606.216 475.65 605.796 475.263 605.395 474.715ZM606.723 473.99C607.058 474.447 607.453 474.778 607.908 474.982C608.372 475.187 608.871 475.26 609.405 475.199L613.359 472.305C613.498 471.963 613.563 471.54 613.556 471.033C613.554 470.522 613.348 469.987 612.938 469.428C612.383 468.669 611.689 468.285 610.856 468.275C610.028 468.262 609.113 468.621 608.113 469.354C607.527 469.783 607.066 470.265 606.73 470.8C606.4 471.331 606.226 471.871 606.207 472.422C606.193 472.978 606.365 473.5 606.723 473.99ZM613.142 484.814C612.602 484.145 612.276 483.486 612.165 482.839C612.055 482.192 612.179 481.539 612.539 480.881C612.908 480.223 613.533 479.539 614.415 478.827L618.86 475.242L619.896 476.527L615.226 480.294C614.395 480.963 613.947 481.612 613.879 482.24C613.822 482.869 614.004 483.446 614.427 483.97C614.72 484.333 615.053 484.608 615.426 484.795C615.804 484.988 616.228 485.04 616.697 484.953C617.166 484.865 617.689 484.589 618.265 484.125L622.966 480.333L624.002 481.617L616.047 488.034L615.011 486.749L615.797 486.115C615.227 486.13 614.728 486.027 614.301 485.806C613.884 485.586 613.497 485.255 613.142 484.814ZM621.613 494.836C620.737 493.847 620.393 492.754 620.579 491.557C620.77 490.364 621.499 489.206 622.766 488.084C623.605 487.341 624.441 486.837 625.274 486.571C626.107 486.305 626.902 486.278 627.659 486.489C628.416 486.701 629.1 487.151 629.71 487.839C630.28 488.483 630.625 489.166 630.747 489.886C630.873 490.612 630.749 491.336 630.374 492.059L628.96 491.308C629.144 490.922 629.221 490.516 629.19 490.089C629.16 489.662 628.952 489.232 628.567 488.797C627.94 488.089 627.223 487.806 626.416 487.951C625.614 488.091 624.769 488.555 623.88 489.341C622.977 490.141 622.414 490.929 622.192 491.704C621.976 492.475 622.168 493.2 622.769 493.879C623.149 494.308 623.572 494.579 624.037 494.692C624.507 494.811 624.979 494.776 625.453 494.587L626.044 496.054C625.283 496.381 624.512 496.44 623.731 496.232C622.955 496.02 622.249 495.554 621.613 494.836ZM630.7 504.607C630.06 503.947 629.766 503.313 629.818 502.705C629.874 502.103 630.178 501.535 630.729 501.001L635.382 496.492L633.747 494.804L634.788 493.795L636.424 495.483L638.88 493.103L640.589 493.717L637.558 496.654L639.945 499.117L638.903 500.126L636.517 497.663L632.265 501.782C632.04 502 631.865 502.217 631.739 502.432C631.622 502.647 631.588 502.879 631.636 503.13C631.688 503.376 631.861 503.65 632.153 503.952C632.492 504.301 632.806 504.535 633.097 504.652C633.387 504.77 633.65 504.859 633.885 504.919L632.596 505.903C632.31 505.809 632.02 505.668 631.726 505.479C631.432 505.3 631.09 505.01 630.7 504.607ZM643.276 519.977L660.248 512.408L661.464 513.463L644.492 521.032L643.276 519.977ZM664.867 534.355L673.163 523.078L675.789 525.01C676.633 525.63 677.226 526.314 677.569 527.063C677.911 527.812 678.061 528.588 678.016 529.391C677.975 530.189 677.789 530.983 677.456 531.772C677.127 532.557 676.706 533.298 676.193 533.996C675.715 534.646 675.157 535.246 674.521 535.796C673.89 536.35 673.195 536.777 672.435 537.079C671.679 537.376 670.879 537.474 670.034 537.373C669.194 537.277 668.326 536.899 667.429 536.239L664.867 534.355ZM667.083 534.111L668.364 535.053C668.982 535.507 669.589 535.755 670.187 535.798C670.794 535.839 671.376 535.734 671.934 535.482C672.496 535.225 673.019 534.873 673.504 534.427C673.99 533.981 674.424 533.498 674.807 532.977C675.218 532.419 675.561 531.835 675.835 531.225C676.115 530.62 676.288 530.019 676.354 529.423C676.425 528.821 676.36 528.256 676.161 527.728C675.965 527.195 675.596 526.729 675.054 526.33L673.596 525.258L667.083 534.111ZM678.563 544.426C677.752 543.875 677.192 543.205 676.883 542.414C676.58 541.627 676.505 540.795 676.658 539.916C676.812 539.037 677.166 538.19 677.721 537.374C678.354 536.442 679.054 535.756 679.819 535.317C680.589 534.873 681.378 534.672 682.188 534.714C683.003 534.76 683.799 535.047 684.577 535.576C685.211 536.007 685.695 536.545 686.029 537.192C686.37 537.842 686.495 538.576 686.407 539.394C686.322 540.207 685.961 541.082 685.324 542.02C685.253 542.125 685.162 542.252 685.052 542.403C684.95 542.552 684.823 542.715 684.67 542.893L678.409 538.639L679.218 537.448L684.173 540.814C684.619 540.134 684.851 539.53 684.871 539.004C684.899 538.475 684.799 538.024 684.569 537.65C684.34 537.277 684.07 536.985 683.762 536.775C682.901 536.19 682.085 536.034 681.311 536.307C680.541 536.574 679.847 537.162 679.229 538.072C678.51 539.131 678.165 540.118 678.196 541.033C678.227 541.949 678.642 542.678 679.442 543.222C679.778 543.45 680.147 543.624 680.549 543.744C680.955 543.859 681.404 543.898 681.896 543.862L682.056 545.264C681.497 545.327 680.91 545.295 680.295 545.168C679.686 545.044 679.109 544.797 678.563 544.426ZM688.869 551.159C688.231 550.758 687.723 550.238 687.345 549.599C686.967 548.96 686.729 548.306 686.629 547.638L688.104 547.395C688.18 547.852 688.349 548.328 688.612 548.824C688.878 549.315 689.252 549.711 689.731 550.012C690.206 550.31 690.664 550.464 691.106 550.474C691.558 550.483 691.902 550.298 692.14 549.919C692.335 549.609 692.394 549.284 692.316 548.943C692.248 548.601 692.092 548.248 691.849 547.882C691.615 547.515 691.353 547.137 691.061 546.749C690.687 546.255 690.363 545.768 690.09 545.289C689.819 544.804 689.663 544.32 689.62 543.836C689.583 543.356 689.719 542.871 690.028 542.38C690.315 541.922 690.693 541.609 691.162 541.439C691.634 541.264 692.153 541.227 692.718 541.33C693.293 541.431 693.868 541.663 694.443 542.025C695.081 542.425 695.575 542.905 695.925 543.464C696.278 544.016 696.505 544.608 696.605 545.237L695.207 545.433C695.116 545.077 694.951 544.694 694.712 544.284C694.483 543.872 694.12 543.51 693.623 543.198C693.132 542.89 692.68 542.732 692.268 542.724C691.855 542.717 691.548 542.874 691.345 543.196C691.182 543.456 691.14 543.736 691.218 544.037C691.297 544.338 691.444 544.655 691.66 544.988C691.885 545.319 692.133 545.663 692.404 546.022C692.755 546.479 693.081 546.956 693.383 547.453C693.691 547.953 693.877 548.471 693.941 549.008C694.005 549.544 693.855 550.103 693.49 550.685C693.021 551.43 692.371 551.844 691.539 551.928C690.713 552.015 689.823 551.758 688.869 551.159ZM699.471 556.952L704.459 548.377L705.868 549.197L700.88 557.772L699.471 556.952ZM696.883 555.794L697.612 554.54L703.896 558.196L703.167 559.449L696.883 555.794ZM701.292 548.213L702.021 546.959L705.237 548.83L704.508 550.083L701.292 548.213ZM706.129 547.116C705.882 546.972 705.722 546.763 705.649 546.49C705.577 546.216 705.614 545.953 705.762 545.699C705.913 545.44 706.125 545.274 706.398 545.202C706.675 545.124 706.937 545.157 707.185 545.301C707.45 545.455 707.614 545.67 707.678 545.946C707.744 546.216 707.702 546.481 707.551 546.74C707.404 546.994 707.196 547.158 706.929 547.234C706.661 547.31 706.394 547.27 706.129 547.116ZM708.079 566.966L708.001 565.447C708.968 565.9 709.761 566.157 710.38 566.218C710.995 566.284 711.487 566.201 711.855 565.967C712.226 565.743 712.523 565.423 712.748 565.006L713.374 563.844C712.923 564.063 712.45 564.168 711.955 564.158C711.466 564.152 710.913 563.983 710.297 563.651C709.616 563.285 709.083 562.77 708.698 562.108C708.312 561.446 708.135 560.673 708.165 559.788C708.195 558.903 708.491 557.938 709.054 556.893C709.585 555.907 710.203 555.153 710.908 554.632C711.617 554.105 712.358 553.811 713.132 553.752C713.91 553.686 714.677 553.857 715.434 554.265C715.886 554.508 716.24 554.771 716.497 555.054C716.754 555.336 716.94 555.61 717.054 555.876C717.177 556.139 717.261 556.363 717.306 556.546L717.724 555.771L719.15 556.54L714.487 565.193C714.085 565.939 713.643 566.507 713.16 566.898C712.673 567.295 712.157 567.543 711.611 567.642C711.062 567.748 710.49 567.735 709.894 567.603C709.305 567.475 708.7 567.262 708.079 566.966ZM711.308 562.492C711.73 562.72 712.202 562.822 712.721 562.799C713.244 562.771 713.737 562.608 714.199 562.312L716.457 558.122C716.437 557.596 716.281 557.114 715.987 556.676C715.699 556.24 715.358 555.917 714.965 555.705C714.096 555.237 713.284 555.178 712.528 555.527C711.78 555.874 711.112 556.594 710.524 557.685C709.946 558.759 709.738 559.727 709.903 560.588C710.077 561.446 710.545 562.081 711.308 562.492ZM718.217 567.569L722.782 558.426L724.241 559.154L723.387 560.863L723.311 560.434C723.621 560.171 723.967 559.986 724.348 559.878C724.73 559.771 725.133 559.741 725.556 559.788C725.979 559.836 726.409 559.968 726.844 560.186C727.572 560.549 728.116 560.996 728.477 561.527C728.844 562.06 729.002 562.698 728.952 563.44C728.911 564.18 728.643 565.045 728.148 566.035L725.553 571.233L724.103 570.509L726.838 565.034C727.305 564.097 727.426 563.334 727.199 562.744C726.978 562.156 726.563 561.711 725.955 561.407C725.513 561.187 725.081 561.068 724.658 561.05C724.24 561.035 723.842 561.161 723.464 561.426C723.091 561.695 722.746 562.148 722.427 562.786L719.675 568.297L718.217 567.569ZM739.227 580.443L753.085 568.06L754.565 568.694L740.707 581.077L739.227 580.443ZM763.923 587.687L768.763 574.55L776.917 577.554L776.374 579.027L769.768 576.594L768.244 580.732L772.851 582.429L772.312 583.893L767.705 582.196L765.472 588.257L763.923 587.687ZM774.764 591.652L775.232 590.28L777.248 590.967L779.611 584.039L777.595 583.351L778.063 581.979L781.565 583.173L780.826 585.34L780.806 585.027C781.156 584.661 781.59 584.39 782.108 584.214C782.632 584.04 783.179 583.956 783.748 583.96C784.326 583.959 784.87 584.046 785.381 584.221C785.873 584.388 786.278 584.576 786.595 584.782C786.912 584.989 787.153 585.191 787.318 585.388L786.185 588.71L784.642 588.184L785.62 585.316L785.842 586.216C785.699 586.118 785.539 586.029 785.363 585.947C785.193 585.868 785.01 585.795 784.814 585.728C784.177 585.511 783.547 585.416 782.925 585.443C782.305 585.464 781.758 585.623 781.284 585.919C780.816 586.217 780.48 586.663 780.278 587.256L778.829 591.506L781.678 592.477L781.21 593.85L774.764 591.652ZM791.42 597.432C790.511 597.145 789.779 596.694 789.225 596.079C788.671 595.464 788.323 594.718 788.18 593.841C788.045 592.96 788.148 591.982 788.486 590.908C788.821 589.846 789.296 588.993 789.912 588.348C790.534 587.705 791.249 587.288 792.058 587.095C792.869 586.897 793.729 586.941 794.638 587.227C795.553 587.516 796.288 587.968 796.842 588.583C797.403 589.2 797.75 589.949 797.885 590.83C798.019 591.712 797.918 592.686 797.581 593.754C797.246 594.816 796.771 595.67 796.156 596.314C795.54 596.959 794.823 597.38 794.006 597.576C793.198 597.769 792.336 597.721 791.42 597.432ZM791.871 596.001C792.812 596.298 793.64 596.199 794.355 595.705C795.077 595.212 795.618 594.394 795.979 593.249C796.338 592.111 796.373 591.136 796.083 590.325C795.794 589.514 795.163 588.955 794.19 588.648C793.23 588.346 792.397 588.436 791.692 588.92C790.99 589.397 790.452 590.227 790.079 591.41C789.722 592.542 789.692 593.514 789.987 594.327C790.283 595.141 790.911 595.699 791.871 596.001ZM799.506 599.68L802.363 589.867L803.928 590.323L803.394 592.157L803.242 591.748C803.5 591.435 803.808 591.191 804.164 591.017C804.52 590.843 804.91 590.741 805.336 590.712C805.761 590.683 806.207 590.737 806.674 590.873C807.455 591.1 808.07 591.442 808.521 591.9C808.977 592.359 809.247 592.958 809.33 593.698C809.422 594.433 809.313 595.331 809.004 596.394L807.379 601.972L805.824 601.519L807.535 595.643C807.827 594.638 807.809 593.866 807.48 593.326C807.158 592.788 806.67 592.423 806.017 592.233C805.544 592.095 805.097 592.056 804.677 592.114C804.264 592.174 803.895 592.369 803.57 592.698C803.252 593.028 802.993 593.536 802.793 594.221L801.071 600.136L799.506 599.68ZM816.279 604.655C815.391 604.417 814.813 604.024 814.546 603.476C814.285 602.93 814.254 602.286 814.453 601.546L816.132 595.287L813.863 594.678L814.238 593.278L816.508 593.887L817.394 590.584L819.176 590.233L818.082 594.309L821.395 595.198L821.019 596.598L817.707 595.71L816.172 601.427C816.091 601.73 816.052 602.006 816.054 602.255C816.064 602.499 816.154 602.717 816.324 602.907C816.496 603.091 816.784 603.238 817.19 603.347C817.66 603.473 818.05 603.512 818.359 603.464C818.669 603.416 818.94 603.357 819.173 603.288L818.572 604.794C818.278 604.86 817.957 604.888 817.607 604.877C817.263 604.874 816.82 604.8 816.279 604.655ZM827.661 607.574C826.71 607.339 825.952 606.905 825.387 606.272C824.829 605.639 824.469 604.885 824.308 604.007C824.147 603.13 824.184 602.212 824.421 601.254C824.691 600.16 825.108 599.274 825.674 598.597C826.241 597.913 826.911 597.45 827.685 597.208C828.465 596.968 829.312 596.961 830.224 597.186C830.969 597.37 831.61 597.706 832.148 598.196C832.693 598.688 833.066 599.332 833.267 600.131C833.47 600.922 833.436 601.868 833.165 602.969C833.134 603.092 833.094 603.243 833.042 603.423C832.999 603.597 832.937 603.795 832.855 604.015L825.505 602.201L825.85 600.803L831.666 602.238C831.848 601.445 831.856 600.799 831.692 600.298C831.535 599.792 831.284 599.404 830.939 599.134C830.593 598.863 830.239 598.683 829.877 598.594C828.867 598.344 828.047 598.482 827.416 599.006C826.787 599.524 826.341 600.317 826.078 601.385C825.771 602.627 825.791 603.673 826.138 604.521C826.485 605.368 827.128 605.908 828.067 606.14C828.461 606.237 828.868 606.272 829.287 606.245C829.707 606.211 830.142 606.092 830.591 605.887L831.227 607.146C830.725 607.4 830.164 607.574 829.543 607.668C828.929 607.764 828.302 607.732 827.661 607.574ZM835.65 609.256L837.905 599.288L839.495 599.647L839.074 601.51L838.897 601.112C839.136 600.783 839.427 600.521 839.772 600.325C840.117 600.13 840.501 600.005 840.924 599.95C841.346 599.895 841.795 599.922 842.269 600.029C843.063 600.209 843.698 600.513 844.175 600.942C844.658 601.373 844.964 601.955 845.092 602.688C845.228 603.416 845.174 604.319 844.93 605.399L843.648 611.065L842.068 610.708L843.418 604.739C843.649 603.718 843.584 602.948 843.223 602.429C842.869 601.911 842.36 601.577 841.697 601.427C841.215 601.318 840.767 601.306 840.352 601.389C839.943 601.475 839.586 601.691 839.282 602.039C838.984 602.389 838.757 602.912 838.599 603.607L837.24 609.615L835.65 609.256ZM851.458 612.966C850.57 612.782 849.847 612.412 849.289 611.854C848.731 611.289 848.361 610.579 848.177 609.724C847.993 608.869 848.012 607.903 848.235 606.826C848.462 605.729 848.832 604.829 849.345 604.125C849.86 603.414 850.479 602.92 851.204 602.641C851.937 602.356 852.737 602.304 853.606 602.484C854.259 602.619 854.784 602.826 855.182 603.106C855.581 603.386 855.898 603.679 856.134 603.987L856.974 599.923L858.73 599.479L855.806 613.62L854.21 613.29L854.384 612.448C854.057 612.68 853.652 612.858 853.17 612.983C852.695 613.109 852.124 613.104 851.458 612.966ZM851.958 611.538C852.513 611.652 853.027 611.633 853.502 611.479C853.984 611.32 854.403 611.039 854.758 610.636L855.751 605.838C855.625 605.492 855.389 605.133 855.044 604.762C854.7 604.385 854.189 604.126 853.51 603.985C852.589 603.795 851.816 603.976 851.192 604.527C850.568 605.072 850.131 605.952 849.88 607.166C849.733 607.878 849.714 608.545 849.824 609.166C849.935 609.782 850.168 610.3 850.524 610.72C850.886 611.142 851.364 611.415 851.958 611.538ZM871.162 619.17L881.741 603.89L883.328 604.161L872.749 619.44L871.162 619.17ZM896.708 620.612L898.607 606.741L902.501 607.274C903.591 607.424 904.422 607.719 904.994 608.161C905.573 608.597 905.953 609.113 906.134 609.71C906.322 610.301 906.375 610.9 906.292 611.508C906.198 612.188 905.929 612.753 905.484 613.204C905.046 613.655 904.485 613.965 903.802 614.134C904.534 614.443 905.098 614.921 905.494 615.567C905.896 616.214 906.037 616.98 905.916 617.865C905.851 618.341 905.713 618.803 905.504 619.252C905.295 619.695 904.993 620.084 904.597 620.42C904.202 620.75 903.701 620.991 903.095 621.143C902.496 621.29 901.768 621.305 900.909 621.187L896.708 620.612ZM898.546 619.35L901.33 619.731C902.037 619.827 902.601 619.79 903.021 619.619C903.443 619.441 903.754 619.184 903.954 618.848C904.163 618.507 904.293 618.141 904.347 617.752C904.409 617.296 904.375 616.854 904.246 616.426C904.116 615.997 903.827 615.625 903.379 615.308C902.938 614.992 902.272 614.773 901.38 614.65L899.23 614.356L898.546 619.35ZM899.428 612.91L901.35 613.173C902.374 613.313 903.169 613.21 903.734 612.863C904.306 612.518 904.64 611.998 904.735 611.305C904.783 610.955 904.76 610.605 904.666 610.256C904.574 609.9 904.351 609.587 903.998 609.316C903.651 609.047 903.118 608.863 902.398 608.764L900.04 608.441L899.428 612.91ZM912.498 622.927C911.79 622.842 911.176 622.64 910.657 622.322C910.146 621.998 909.765 621.566 909.514 621.026C909.271 620.479 909.196 619.825 909.288 619.064C909.382 618.283 909.644 617.67 910.074 617.225C910.505 616.774 911.029 616.468 911.646 616.307C912.264 616.14 912.903 616.097 913.565 616.177C914.062 616.237 914.526 616.343 914.957 616.496C915.395 616.65 915.831 616.88 916.264 617.188L916.359 616.393C916.435 615.771 916.393 615.283 916.234 614.928C916.077 614.566 915.84 614.303 915.524 614.137C915.208 613.971 914.855 613.865 914.465 613.817C913.922 613.752 913.343 613.796 912.726 613.95C912.118 614.098 911.582 614.282 911.119 614.501L910.816 613.085C911.293 612.867 911.883 612.68 912.587 612.523C913.297 612.367 914.033 612.335 914.794 612.427C915.178 612.473 915.569 612.571 915.967 612.72C916.366 612.862 916.729 613.084 917.055 613.385C917.382 613.686 917.626 614.085 917.787 614.582C917.95 615.071 917.986 615.69 917.895 616.438L917.074 623.238L915.555 623.055L915.669 622.112C915.25 622.404 914.773 622.631 914.236 622.795C913.706 622.959 913.127 623.003 912.498 622.927ZM912.877 621.543C913.519 621.62 914.093 621.539 914.598 621.298C915.105 621.05 915.529 620.769 915.869 620.454L916.087 618.647C915.793 618.41 915.424 618.191 914.978 617.989C914.532 617.788 914.071 617.658 913.595 617.6C912.913 617.518 912.298 617.605 911.75 617.861C911.203 618.111 910.889 618.573 910.807 619.248C910.734 619.85 910.874 620.361 911.226 620.779C911.585 621.199 912.135 621.453 912.877 621.543ZM925.745 624.431C924.433 624.292 923.441 623.718 922.77 622.708C922.105 621.7 921.862 620.353 922.04 618.669C922.158 617.556 922.434 616.62 922.87 615.861C923.305 615.103 923.873 614.546 924.574 614.191C925.276 613.836 926.084 613.707 926.999 613.803C927.854 613.894 928.569 614.164 929.145 614.613C929.728 615.064 930.125 615.682 930.337 616.469L928.786 616.868C928.662 616.459 928.444 616.108 928.134 615.814C927.823 615.519 927.379 615.342 926.802 615.281C925.861 615.182 925.141 615.457 924.643 616.109C924.146 616.753 923.835 617.666 923.711 618.846C923.584 620.046 923.7 621.007 924.06 621.729C924.42 622.444 925.051 622.849 925.953 622.944C926.523 623.004 927.018 622.919 927.438 622.689C927.864 622.459 928.189 622.114 928.412 621.655L929.838 622.339C929.496 623.094 928.968 623.658 928.251 624.032C927.535 624.398 926.7 624.531 925.745 624.431ZM933.855 625.014L935.092 611.41L936.785 610.781L935.478 625.162L933.855 625.014ZM935.766 620.89L935.936 619.018L940.138 615.323L942.03 615.495L935.766 620.89ZM940.508 625.619L937.784 618.794L939.046 617.724L942.29 625.781L940.508 625.619ZM950.479 626.675C949.502 626.6 948.683 626.296 948.022 625.764C947.367 625.233 946.888 624.548 946.584 623.709C946.281 622.87 946.167 621.958 946.242 620.974C946.328 619.851 946.594 618.909 947.04 618.147C947.487 617.379 948.072 616.812 948.795 616.446C949.525 616.081 950.359 615.934 951.296 616.006C952.061 616.064 952.749 616.291 953.36 616.685C953.979 617.08 954.453 617.655 954.783 618.409C955.113 619.157 955.235 620.095 955.149 621.225C955.139 621.352 955.124 621.508 955.103 621.693C955.089 621.873 955.06 622.078 955.016 622.308L947.468 621.73L947.578 620.294L953.55 620.752C953.599 619.94 953.501 619.301 953.256 618.834C953.018 618.361 952.707 618.019 952.322 617.809C951.936 617.599 951.558 617.48 951.186 617.452C950.149 617.372 949.362 617.643 948.827 618.264C948.291 618.878 947.982 619.734 947.898 620.83C947.8 622.107 947.992 623.134 948.474 623.913C948.956 624.693 949.679 625.119 950.643 625.193C951.048 625.224 951.455 625.192 951.864 625.096C952.273 624.993 952.682 624.804 953.091 624.528L953.926 625.665C953.473 625.998 952.948 626.262 952.351 626.457C951.761 626.652 951.137 626.725 950.479 626.675ZM958.597 627.026L959.236 616.826L960.863 616.928L960.744 618.834L960.506 618.469C960.689 618.106 960.935 617.801 961.245 617.553C961.554 617.305 961.913 617.121 962.321 616.999C962.73 616.878 963.177 616.833 963.663 616.863C964.474 616.914 965.15 617.113 965.689 617.461C966.235 617.809 966.63 618.335 966.873 619.038C967.123 619.735 967.214 620.636 967.144 621.74L966.781 627.539L965.164 627.438L965.547 621.33C965.612 620.285 965.426 619.535 964.986 619.08C964.554 618.625 963.999 618.377 963.32 618.334C962.827 618.304 962.383 618.363 961.986 618.511C961.596 618.661 961.279 618.931 961.034 619.323C960.795 619.716 960.654 620.268 960.609 620.98L960.224 627.128L958.597 627.026ZM974.757 628.199C973.851 628.154 973.08 627.9 972.442 627.434C971.804 626.963 971.328 626.319 971.015 625.502C970.701 624.686 970.571 623.728 970.625 622.63C970.68 621.511 970.906 620.564 971.305 619.79C971.704 619.008 972.239 618.424 972.913 618.036C973.593 617.642 974.376 617.467 975.261 617.511C975.927 617.543 976.478 617.667 976.915 617.882C977.352 618.097 977.71 618.338 977.991 618.606L978.194 614.461L979.861 613.751L979.153 628.174L977.525 628.094L977.568 627.235C977.28 627.515 976.908 627.754 976.451 627.951C976.001 628.15 975.436 628.232 974.757 628.199ZM975.03 626.71C975.596 626.738 976.102 626.639 976.547 626.414C976.998 626.183 977.369 625.841 977.658 625.387L977.898 620.493C977.72 620.171 977.432 619.853 977.034 619.54C976.636 619.22 976.09 619.043 975.398 619.009C974.459 618.963 973.724 619.261 973.192 619.902C972.66 620.537 972.364 621.473 972.303 622.712C972.267 623.438 972.352 624.099 972.556 624.697C972.761 625.287 973.071 625.763 973.487 626.124C973.91 626.485 974.424 626.681 975.03 626.71ZM995.097 631.354L1003.34 614.696L1004.95 614.732L996.706 631.39L995.097 631.354ZM1027.44 630.763L1024.43 626.323L1025.62 625.489L1028.59 629.93L1027.44 630.763ZM1024.72 629.342C1023.86 629.345 1023.12 629.141 1022.52 628.73C1021.92 628.311 1021.43 627.756 1021.06 627.064C1020.7 626.366 1020.43 625.59 1020.26 624.737C1020.09 623.878 1020 623.004 1020 622.118C1020 621.231 1020.08 620.361 1020.24 619.507C1020.4 618.646 1020.67 617.869 1021.03 617.174C1021.4 616.473 1021.88 615.915 1022.48 615.5C1023.08 615.078 1023.81 614.865 1024.67 614.862C1025.54 614.859 1026.28 615.067 1026.88 615.485C1027.48 615.896 1027.96 616.452 1028.33 617.15C1028.7 617.842 1028.97 618.618 1029.14 619.478C1029.32 620.33 1029.41 621.2 1029.41 622.087C1029.41 622.973 1029.33 623.847 1029.16 624.708C1028.99 625.562 1028.73 626.339 1028.36 627.04C1028 627.735 1027.52 628.293 1026.92 628.715C1026.32 629.13 1025.59 629.339 1024.72 629.342ZM1024.72 627.832C1025.26 627.83 1025.73 627.662 1026.11 627.328C1026.48 626.986 1026.79 626.535 1027.02 625.975C1027.26 625.414 1027.43 624.797 1027.54 624.123C1027.64 623.443 1027.69 622.766 1027.69 622.092C1027.69 621.352 1027.63 620.643 1027.52 619.963C1027.41 619.277 1027.24 618.664 1027.01 618.125C1026.77 617.585 1026.46 617.16 1026.08 616.848C1025.7 616.529 1025.23 616.371 1024.68 616.372C1024.13 616.374 1023.67 616.546 1023.29 616.887C1022.91 617.221 1022.6 617.669 1022.37 618.23C1022.13 618.784 1021.97 619.401 1021.86 620.082C1021.76 620.755 1021.71 621.432 1021.71 622.112C1021.71 622.845 1021.77 623.555 1021.88 624.242C1021.98 624.921 1022.16 625.534 1022.39 626.08C1022.63 626.619 1022.94 627.048 1023.33 627.367C1023.71 627.679 1024.17 627.834 1024.72 627.832ZM1031.84 629.066L1036.2 614.987L1037.57 614.963L1042.45 628.88L1040.75 628.909L1037.34 618.768C1037.31 618.695 1037.28 618.572 1037.22 618.4C1037.16 618.228 1037.11 618.052 1037.05 617.873C1036.99 617.694 1036.95 617.551 1036.93 617.445C1036.91 617.552 1036.87 617.696 1036.82 617.877C1036.78 618.058 1036.73 618.235 1036.69 618.409C1036.65 618.577 1036.61 618.701 1036.59 618.781L1033.57 629.035L1031.84 629.066ZM1034.1 625.536L1034.56 624.057L1039.55 623.97L1040.05 625.431L1034.1 625.536ZM1057.34 631.021L1064.46 613.858L1066.07 613.788L1058.94 630.952L1057.34 631.021ZM1087.31 626.993C1086.37 627.061 1085.55 626.916 1084.86 626.559C1084.17 626.201 1083.59 625.694 1083.13 625.039C1082.67 624.377 1082.31 623.624 1082.06 622.781C1081.8 621.93 1081.64 621.056 1081.58 620.158C1081.51 619.234 1081.55 618.336 1081.68 617.464C1081.82 616.585 1082.07 615.788 1082.44 615.073C1082.82 614.357 1083.32 613.776 1083.95 613.33C1084.58 612.883 1085.35 612.627 1086.27 612.56C1086.99 612.508 1087.6 612.581 1088.1 612.779C1088.6 612.977 1089.02 613.25 1089.36 613.6C1089.7 613.95 1089.98 614.321 1090.21 614.712L1088.81 615.606C1088.53 615.158 1088.2 614.78 1087.83 614.473C1087.46 614.159 1086.98 614.023 1086.38 614.066C1085.73 614.113 1085.2 614.326 1084.77 614.704C1084.35 615.075 1084.02 615.554 1083.78 616.139C1083.55 616.717 1083.4 617.347 1083.32 618.027C1083.25 618.708 1083.23 619.377 1083.28 620.035C1083.33 620.753 1083.45 621.45 1083.63 622.125C1083.82 622.8 1084.08 623.397 1084.39 623.915C1084.72 624.433 1085.11 624.836 1085.57 625.123C1086.04 625.41 1086.59 625.531 1087.21 625.487C1087.83 625.442 1088.32 625.242 1088.68 624.889C1089.04 624.529 1089.32 624.077 1089.53 623.534L1091.04 623.987C1090.87 624.48 1090.63 624.945 1090.32 625.382C1090 625.82 1089.59 626.187 1089.09 626.483C1088.6 626.773 1088.01 626.943 1087.31 626.993ZM1099.17 626.06C1098.22 626.142 1097.37 626.004 1096.63 625.647C1095.88 625.29 1095.27 624.733 1094.81 623.977C1094.35 623.214 1094.07 622.271 1093.97 621.148C1093.87 620.039 1093.99 619.069 1094.31 618.238C1094.64 617.407 1095.14 616.748 1095.82 616.262C1096.49 615.769 1097.3 615.482 1098.25 615.4C1099.21 615.317 1100.06 615.455 1100.81 615.812C1101.56 616.169 1102.17 616.729 1102.63 617.492C1103.09 618.255 1103.37 619.195 1103.46 620.311C1103.56 621.42 1103.44 622.39 1103.12 623.221C1102.8 624.052 1102.3 624.714 1101.62 625.207C1100.94 625.694 1100.13 625.978 1099.17 626.06ZM1099.04 624.566C1100.03 624.481 1100.75 624.074 1101.23 623.344C1101.7 622.614 1101.89 621.651 1101.79 620.455C1101.69 619.266 1101.35 618.352 1100.77 617.712C1100.19 617.073 1099.4 616.797 1098.38 616.884C1097.38 616.971 1096.64 617.372 1096.18 618.088C1095.71 618.797 1095.53 619.77 1095.63 621.005C1095.74 622.187 1096.08 623.098 1096.66 623.737C1097.25 624.376 1098.04 624.652 1099.04 624.566ZM1107.47 625.069L1106.42 614.903L1108.04 614.736L1108.24 616.636L1107.94 616.315C1108.06 615.927 1108.26 615.585 1108.52 615.29C1108.79 614.995 1109.11 614.754 1109.49 614.567C1109.87 614.38 1110.31 614.262 1110.79 614.212C1111.6 614.128 1112.3 614.214 1112.89 614.468C1113.49 614.722 1113.96 615.175 1114.32 615.829C1114.68 616.475 1114.92 617.349 1115.03 618.45L1115.62 624.229L1114.01 624.395L1113.39 618.308C1113.28 617.266 1112.97 616.557 1112.46 616.181C1111.96 615.804 1111.37 615.65 1110.7 615.719C1110.21 615.77 1109.78 615.901 1109.41 616.113C1109.05 616.325 1108.78 616.644 1108.6 617.071C1108.43 617.497 1108.38 618.065 1108.46 618.775L1109.09 624.902L1107.47 625.069ZM1124.85 623.4C1123.94 623.51 1123.26 623.36 1122.8 622.951C1122.36 622.541 1122.09 621.955 1122 621.194L1121.23 614.76L1118.89 615.04L1118.72 613.6L1121.06 613.321L1120.65 609.925L1122.17 608.937L1122.67 613.127L1126.08 612.718L1126.25 614.158L1122.85 614.566L1123.55 620.444C1123.59 620.755 1123.65 621.026 1123.75 621.256C1123.85 621.479 1124.01 621.648 1124.24 621.761C1124.47 621.868 1124.79 621.897 1125.21 621.847C1125.69 621.789 1126.07 621.68 1126.34 621.52C1126.61 621.36 1126.84 621.205 1127.03 621.055L1127.03 622.676C1126.78 622.847 1126.49 622.992 1126.17 623.112C1125.85 623.238 1125.41 623.334 1124.85 623.4ZM1136.51 621.864C1135.54 622.002 1134.67 621.882 1133.91 621.505C1133.16 621.127 1132.54 620.561 1132.07 619.807C1131.59 619.053 1131.28 618.187 1131.14 617.211C1130.99 616.095 1131.04 615.117 1131.31 614.278C1131.58 613.431 1132.03 612.752 1132.66 612.239C1133.3 611.725 1134.08 611.402 1135.01 611.27C1135.77 611.163 1136.49 611.236 1137.17 611.489C1137.86 611.742 1138.45 612.201 1138.93 612.866C1139.42 613.525 1139.74 614.415 1139.9 615.537C1139.91 615.663 1139.93 615.818 1139.95 616.004C1139.98 616.182 1139.99 616.389 1140 616.623L1132.5 617.685L1132.3 616.259L1138.23 615.419C1138.11 614.616 1137.87 614.013 1137.53 613.609C1137.2 613.199 1136.82 612.933 1136.4 612.81C1135.98 612.688 1135.58 612.653 1135.21 612.706C1134.18 612.852 1133.47 613.285 1133.08 614.007C1132.69 614.722 1132.58 615.624 1132.73 616.713C1132.91 617.981 1133.32 618.943 1133.96 619.6C1134.59 620.257 1135.39 620.518 1136.35 620.382C1136.75 620.325 1137.14 620.206 1137.52 620.024C1137.9 619.836 1138.26 619.563 1138.6 619.205L1139.66 620.136C1139.29 620.559 1138.83 620.93 1138.29 621.249C1137.76 621.567 1137.16 621.772 1136.51 621.864ZM1144.58 620.427L1142.9 610.345L1144.51 610.078L1144.82 611.962L1144.51 611.659C1144.61 611.265 1144.78 610.912 1145.02 610.601C1145.27 610.29 1145.58 610.029 1145.95 609.819C1146.32 609.608 1146.74 609.463 1147.22 609.383C1148.03 609.25 1148.73 609.292 1149.33 609.509C1149.94 609.725 1150.45 610.148 1150.84 610.779C1151.24 611.401 1151.53 612.258 1151.71 613.35L1152.67 619.081L1151.07 619.347L1150.07 613.31C1149.89 612.278 1149.54 611.589 1149.01 611.245C1148.49 610.899 1147.89 610.783 1147.22 610.894C1146.73 610.975 1146.31 611.133 1145.96 611.367C1145.62 611.601 1145.37 611.936 1145.22 612.373C1145.07 612.809 1145.06 613.379 1145.18 614.083L1146.19 620.159L1144.58 620.427ZM1161.86 617.638C1160.95 617.809 1160.26 617.705 1159.78 617.327C1159.31 616.948 1159 616.382 1158.86 615.629L1157.66 609.261L1155.35 609.697L1155.08 608.272L1157.39 607.836L1156.75 604.476L1158.21 603.387L1158.99 607.534L1162.36 606.898L1162.63 608.322L1159.26 608.959L1160.36 614.776C1160.42 615.084 1160.5 615.35 1160.61 615.573C1160.73 615.789 1160.9 615.946 1161.14 616.044C1161.37 616.135 1161.7 616.142 1162.11 616.064C1162.59 615.974 1162.95 615.84 1163.21 615.662C1163.47 615.484 1163.69 615.314 1163.87 615.151L1163.98 616.768C1163.75 616.956 1163.47 617.12 1163.15 617.262C1162.84 617.409 1162.41 617.534 1161.86 617.638ZM1181.23 616.079L1185.16 597.915L1186.73 597.558L1182.8 615.722L1181.23 616.079ZM1210.01 606.639C1209.1 606.88 1208.26 606.888 1207.52 606.665C1206.77 606.439 1206.12 606.047 1205.54 605.488C1204.96 604.923 1204.47 604.249 1204.07 603.466C1203.66 602.677 1203.34 601.848 1203.11 600.977C1202.88 600.081 1202.75 599.192 1202.72 598.309C1202.69 597.42 1202.8 596.59 1203.03 595.819C1203.27 595.046 1203.65 594.383 1204.19 593.828C1204.73 593.273 1205.44 592.879 1206.33 592.645C1207.03 592.462 1207.64 592.421 1208.17 592.523C1208.7 592.625 1209.16 592.816 1209.56 593.098C1209.96 593.379 1210.3 593.692 1210.59 594.036L1209.38 595.171C1209.03 594.783 1208.64 594.471 1208.22 594.237C1207.8 593.997 1207.29 593.953 1206.71 594.105C1206.09 594.27 1205.6 594.577 1205.25 595.028C1204.9 595.47 1204.67 596.001 1204.54 596.62C1204.42 597.232 1204.38 597.879 1204.43 598.562C1204.49 599.244 1204.6 599.904 1204.77 600.542C1204.95 601.238 1205.19 601.902 1205.5 602.532C1205.81 603.16 1206.17 603.7 1206.57 604.151C1206.99 604.6 1207.45 604.924 1207.96 605.121C1208.47 605.317 1209.03 605.336 1209.63 605.179C1210.23 605.019 1210.68 604.733 1210.96 604.321C1211.25 603.9 1211.45 603.403 1211.55 602.831L1213.12 602.999C1213.05 603.514 1212.89 604.016 1212.66 604.503C1212.43 604.991 1212.1 605.427 1211.66 605.811C1211.23 606.187 1210.68 606.462 1210.01 606.639ZM1217.39 604.43L1213.64 590.942L1215.38 590.459L1219.68 598.054C1219.84 598.347 1219.97 598.592 1220.07 598.786C1220.17 598.973 1220.26 599.172 1220.35 599.383C1220.31 599.158 1220.29 598.939 1220.28 598.727C1220.27 598.509 1220.26 598.232 1220.25 597.896L1220.02 589.168L1221.72 588.696L1225.47 602.184L1224 602.592L1221.61 593.978C1221.57 593.844 1221.52 593.657 1221.45 593.42C1221.39 593.18 1221.34 592.952 1221.3 592.735C1221.32 592.965 1221.33 593.19 1221.34 593.408C1221.36 593.62 1221.36 593.832 1221.37 594.045L1221.57 603.267L1221.3 603.344L1216.7 595.342C1216.6 595.156 1216.5 594.967 1216.39 594.776C1216.29 594.582 1216.18 594.386 1216.08 594.187C1216.15 594.395 1216.22 594.617 1216.3 594.853C1216.37 595.089 1216.43 595.274 1216.46 595.409L1218.86 604.022L1217.39 604.43ZM1233.53 600.104C1232.84 600.307 1232.16 600.362 1231.52 600.266C1230.87 600.17 1230.28 599.963 1229.75 599.646C1229.22 599.322 1228.79 598.918 1228.45 598.433L1229.76 597.466C1230.18 597.984 1230.69 598.356 1231.29 598.583C1231.89 598.81 1232.51 598.829 1233.16 598.64C1233.87 598.431 1234.38 598.07 1234.69 597.558C1234.99 597.044 1235.04 596.416 1234.82 595.674C1234.67 595.168 1234.42 594.771 1234.06 594.481C1233.7 594.183 1233.28 593.959 1232.79 593.81C1232.3 593.661 1231.79 593.552 1231.26 593.484C1230.8 593.427 1230.32 593.348 1229.83 593.247C1229.35 593.145 1228.89 592.991 1228.46 592.785C1228.03 592.577 1227.65 592.295 1227.31 591.941C1226.98 591.579 1226.74 591.119 1226.58 590.563C1226.4 589.974 1226.39 589.393 1226.55 588.821C1226.7 588.242 1227 587.725 1227.47 587.27C1227.93 586.815 1228.55 586.475 1229.32 586.25C1230.23 585.983 1231.07 585.978 1231.82 586.236C1232.58 586.488 1233.14 586.92 1233.52 587.534L1232.21 588.447C1231.95 588.121 1231.6 587.876 1231.16 587.712C1230.72 587.548 1230.23 587.546 1229.68 587.707C1229.07 587.887 1228.62 588.19 1228.35 588.616C1228.08 589.043 1228.02 589.525 1228.18 590.062C1228.31 590.491 1228.53 590.82 1228.87 591.05C1229.2 591.28 1229.6 591.451 1230.07 591.563C1230.54 591.669 1231.05 591.76 1231.6 591.835C1232.06 591.901 1232.53 591.995 1233.02 592.116C1233.51 592.238 1233.98 592.417 1234.43 592.653C1234.88 592.889 1235.28 593.21 1235.63 593.615C1235.97 594.014 1236.24 594.524 1236.42 595.145C1236.65 595.951 1236.68 596.687 1236.49 597.353C1236.31 598.017 1235.96 598.588 1235.45 599.064C1234.93 599.534 1234.3 599.881 1233.53 600.104ZM1253.38 596.56L1255.75 578.128L1257.28 577.638L1254.91 596.071L1253.38 596.56ZM1276.67 586.186L1272.11 572.95L1275.19 571.888C1276.18 571.547 1277.08 571.448 1277.9 571.591C1278.71 571.735 1279.43 572.053 1280.07 572.547C1280.7 573.034 1281.25 573.638 1281.71 574.361C1282.16 575.077 1282.53 575.845 1282.82 576.665C1283.08 577.427 1283.26 578.227 1283.35 579.063C1283.44 579.897 1283.4 580.712 1283.22 581.509C1283.03 582.299 1282.66 583.013 1282.09 583.652C1281.54 584.288 1280.73 584.787 1279.68 585.15L1276.67 586.186ZM1277.73 584.224L1279.24 583.706C1279.96 583.456 1280.51 583.097 1280.89 582.63C1281.26 582.154 1281.51 581.615 1281.62 581.013C1281.73 580.404 1281.73 579.774 1281.64 579.121C1281.55 578.469 1281.4 577.836 1281.19 577.225C1280.97 576.57 1280.68 575.956 1280.33 575.384C1280 574.81 1279.6 574.326 1279.15 573.932C1278.69 573.531 1278.19 573.264 1277.64 573.128C1277.09 572.986 1276.5 573.025 1275.86 573.244L1274.15 573.834L1277.73 584.224ZM1291.79 581.17C1291.12 581.409 1290.48 581.502 1289.88 581.449C1289.27 581.388 1288.74 581.171 1288.27 580.799C1287.81 580.418 1287.45 579.866 1287.2 579.144C1286.93 578.403 1286.89 577.737 1287.08 577.147C1287.26 576.551 1287.6 576.044 1288.08 575.625C1288.56 575.2 1289.11 574.875 1289.74 574.652C1290.21 574.484 1290.67 574.372 1291.13 574.317C1291.59 574.259 1292.08 574.271 1292.6 574.353L1292.33 573.6C1292.12 573.009 1291.87 572.591 1291.57 572.344C1291.27 572.09 1290.94 571.96 1290.58 571.952C1290.22 571.945 1289.86 572.007 1289.49 572.139C1288.98 572.322 1288.48 572.62 1287.99 573.033C1287.51 573.437 1287.12 573.84 1286.8 574.243L1285.9 573.11C1286.23 572.703 1286.67 572.272 1287.23 571.818C1287.8 571.362 1288.44 571.005 1289.16 570.748C1289.53 570.618 1289.92 570.531 1290.35 570.487C1290.77 570.436 1291.19 570.473 1291.62 570.597C1292.04 570.721 1292.44 570.969 1292.8 571.341C1293.17 571.707 1293.48 572.245 1293.73 572.955L1296.03 579.408L1294.59 579.921L1294.27 579.026C1294.02 579.474 1293.7 579.89 1293.29 580.276C1292.89 580.66 1292.39 580.958 1291.79 581.17ZM1291.51 579.762C1292.12 579.545 1292.6 579.216 1292.95 578.774C1293.29 578.327 1293.54 577.886 1293.71 577.453L1293.1 575.738C1292.73 575.657 1292.3 575.626 1291.81 575.644C1291.32 575.662 1290.85 575.752 1290.4 575.913C1289.75 576.143 1289.24 576.495 1288.86 576.969C1288.49 577.436 1288.41 577.99 1288.64 578.631C1288.84 579.202 1289.19 579.597 1289.7 579.815C1290.2 580.03 1290.81 580.012 1291.51 579.762ZM1304.95 576.411C1304.09 576.728 1303.39 576.739 1302.86 576.445C1302.33 576.149 1301.93 575.641 1301.67 574.921L1299.44 568.838L1297.23 569.648L1296.73 568.287L1298.94 567.477L1297.76 564.266L1299.01 562.954L1300.47 566.915L1303.69 565.733L1304.19 567.094L1300.97 568.276L1303.01 573.834C1303.11 574.128 1303.24 574.376 1303.39 574.579C1303.53 574.772 1303.73 574.898 1303.98 574.956C1304.23 575.008 1304.55 574.961 1304.94 574.816C1305.4 574.649 1305.74 574.456 1305.97 574.238C1306.19 574.021 1306.38 573.817 1306.53 573.627L1306.91 575.204C1306.7 575.427 1306.46 575.635 1306.17 575.827C1305.88 576.023 1305.48 576.218 1304.95 576.411ZM1315.08 572.616C1314.42 572.87 1313.78 572.978 1313.17 572.939C1312.57 572.891 1312.03 572.686 1311.56 572.324C1311.09 571.954 1310.72 571.411 1310.44 570.695C1310.16 569.96 1310.11 569.295 1310.28 568.701C1310.45 568.101 1310.77 567.586 1311.24 567.157C1311.71 566.721 1312.26 566.384 1312.88 566.146C1313.35 565.968 1313.81 565.846 1314.26 565.78C1314.72 565.711 1315.21 565.712 1315.74 565.783L1315.45 565.035C1315.23 564.45 1314.97 564.037 1314.66 563.797C1314.35 563.551 1314.02 563.428 1313.66 563.428C1313.31 563.429 1312.94 563.499 1312.58 563.64C1312.07 563.835 1311.57 564.144 1311.1 564.567C1310.63 564.982 1310.24 565.394 1309.93 565.804L1309.01 564.692C1309.33 564.277 1309.76 563.837 1310.31 563.37C1310.87 562.901 1311.5 562.529 1312.22 562.256C1312.58 562.118 1312.97 562.022 1313.39 561.968C1313.81 561.908 1314.24 561.935 1314.67 562.049C1315.1 562.164 1315.5 562.403 1315.87 562.767C1316.24 563.124 1316.56 563.655 1316.83 564.359L1319.28 570.758L1317.85 571.304L1317.51 570.416C1317.27 570.87 1316.96 571.294 1316.56 571.688C1316.17 572.081 1315.67 572.39 1315.08 572.616ZM1314.77 571.214C1315.38 570.984 1315.85 570.644 1316.18 570.195C1316.51 569.74 1316.76 569.293 1316.91 568.856L1316.26 567.156C1315.89 567.083 1315.46 567.062 1314.98 567.091C1314.49 567.12 1314.02 567.221 1313.57 567.392C1312.93 567.637 1312.43 568 1312.06 568.482C1311.69 568.958 1311.63 569.514 1311.87 570.149C1312.09 570.716 1312.45 571.102 1312.96 571.308C1313.47 571.512 1314.08 571.481 1314.77 571.214ZM1335.25 567.336L1336.3 548.782L1337.8 548.184L1336.75 566.738L1335.25 567.336ZM1357.74 555.346L1352.29 542.45L1356.21 540.796C1357.25 540.357 1358.15 540.201 1358.91 540.327C1359.67 540.447 1360.3 540.748 1360.81 541.228C1361.31 541.702 1361.7 542.256 1361.97 542.888C1362.15 543.33 1362.27 543.811 1362.31 544.33C1362.35 544.841 1362.28 545.354 1362.11 545.868C1361.94 546.381 1361.64 546.865 1361.21 547.321C1360.79 547.769 1360.2 548.152 1359.45 548.468L1357.06 549.481L1359.26 554.703L1357.74 555.346ZM1356.47 548.099L1358.98 547.04C1359.6 546.775 1360.05 546.442 1360.31 546.041C1360.59 545.637 1360.72 545.214 1360.72 544.772C1360.73 544.321 1360.65 543.902 1360.48 543.515C1360.34 543.165 1360.11 542.831 1359.8 542.512C1359.5 542.191 1359.11 541.977 1358.63 541.869C1358.15 541.76 1357.57 541.848 1356.9 542.13L1354.4 543.189L1356.47 548.099ZM1369.15 550.507L1363.58 537.66L1365.23 536.945L1370.54 543.878C1370.74 544.146 1370.9 544.37 1371.02 544.55C1371.15 544.721 1371.27 544.905 1371.38 545.103C1371.32 544.884 1371.26 544.671 1371.22 544.463C1371.18 544.248 1371.13 543.975 1371.08 543.644L1369.66 535.029L1371.27 534.329L1376.84 547.176L1375.44 547.78L1371.89 539.577C1371.83 539.448 1371.75 539.271 1371.66 539.045C1371.56 538.816 1371.48 538.596 1371.42 538.386C1371.46 538.613 1371.51 538.833 1371.55 539.048C1371.59 539.256 1371.62 539.465 1371.66 539.676L1373.13 548.782L1372.86 548.897L1367.22 541.6C1367.09 541.429 1366.96 541.256 1366.83 541.081C1366.7 540.904 1366.57 540.724 1366.44 540.541C1366.54 540.737 1366.64 540.947 1366.75 541.171C1366.85 541.395 1366.93 541.571 1366.99 541.699L1370.54 549.903L1369.15 550.507ZM1392.43 543.058L1392.51 524.474L1393.97 523.8L1393.89 542.384L1392.43 543.058ZM1414.3 529.875L1408.09 517.328L1411.9 515.442C1412.91 514.943 1413.8 514.733 1414.57 514.814C1415.34 514.888 1415.99 515.15 1416.52 515.599C1417.05 516.043 1417.47 516.572 1417.78 517.188C1417.99 517.618 1418.13 518.091 1418.2 518.607C1418.27 519.114 1418.24 519.63 1418.09 520.154C1417.96 520.675 1417.69 521.176 1417.29 521.658C1416.89 522.13 1416.33 522.547 1415.6 522.908L1413.27 524.061L1415.78 529.143L1414.3 529.875ZM1412.6 522.717L1415.04 521.51C1415.65 521.209 1416.07 520.849 1416.31 520.433C1416.56 520.014 1416.67 519.583 1416.65 519.142C1416.62 518.692 1416.52 518.278 1416.33 517.902C1416.16 517.561 1415.92 517.241 1415.59 516.942C1415.27 516.639 1414.87 516.449 1414.38 516.369C1413.89 516.29 1413.33 516.411 1412.67 516.734L1410.24 517.94L1412.6 522.717ZM1424.5 524.826L1423.86 523.527L1425.76 522.581L1422.51 516.023L1420.6 516.969L1419.96 515.67L1423.28 514.026L1424.29 516.078L1424.06 515.871C1424.04 515.364 1424.16 514.865 1424.4 514.374C1424.64 513.88 1424.97 513.433 1425.37 513.031C1425.78 512.621 1426.22 512.296 1426.71 512.057C1427.17 511.826 1427.59 511.67 1427.96 511.591C1428.33 511.512 1428.64 511.483 1428.9 511.505L1430.46 514.65L1429 515.374L1427.65 512.659L1428.45 513.136C1428.28 513.168 1428.1 513.218 1427.92 513.286C1427.74 513.351 1427.56 513.429 1427.38 513.521C1426.78 513.82 1426.26 514.2 1425.84 514.661C1425.42 515.116 1425.15 515.616 1425.03 516.161C1424.91 516.703 1424.99 517.255 1425.27 517.816L1427.26 521.839L1429.96 520.502L1430.6 521.801L1424.5 524.826ZM1440.25 517.289C1439.4 517.712 1438.56 517.893 1437.73 517.833C1436.91 517.774 1436.14 517.477 1435.43 516.943C1434.72 516.401 1434.12 515.625 1433.62 514.615C1433.12 513.617 1432.87 512.673 1432.87 511.781C1432.88 510.887 1433.1 510.09 1433.55 509.391C1434 508.686 1434.65 508.123 1435.5 507.7C1436.36 507.274 1437.21 507.091 1438.03 507.151C1438.86 507.208 1439.63 507.507 1440.34 508.05C1441.05 508.592 1441.65 509.365 1442.15 510.369C1442.64 511.367 1442.89 512.312 1442.89 513.203C1442.9 514.094 1442.67 514.894 1442.22 515.602C1441.77 516.301 1441.11 516.863 1440.25 517.289ZM1439.59 515.945C1440.47 515.507 1441 514.862 1441.17 514.01C1441.35 513.155 1441.18 512.19 1440.64 511.114C1440.11 510.045 1439.46 509.318 1438.69 508.933C1437.92 508.549 1437.08 508.582 1436.17 509.035C1435.26 509.482 1434.73 510.123 1434.55 510.96C1434.38 511.792 1434.56 512.763 1435.11 513.874C1435.64 514.938 1436.29 515.66 1437.07 516.042C1437.84 516.424 1438.68 516.391 1439.59 515.945ZM1451.02 511.959C1450.21 512.361 1449.41 512.515 1448.62 512.419C1447.84 512.317 1447.11 511.987 1446.44 511.426C1445.77 510.866 1445.19 510.093 1444.7 509.107C1444.2 508.104 1443.94 507.166 1443.91 506.296C1443.88 505.419 1444.06 504.648 1444.46 503.981C1444.86 503.306 1445.46 502.772 1446.25 502.378C1446.85 502.083 1447.39 501.922 1447.88 501.897C1448.37 501.873 1448.8 501.909 1449.17 502.006L1447.33 498.286L1448.44 496.855L1454.85 509.796L1453.39 510.519L1453 509.749C1452.89 510.133 1452.68 510.523 1452.38 510.918C1452.08 511.31 1451.63 511.657 1451.02 511.959ZM1450.53 510.526C1451.04 510.275 1451.43 509.942 1451.71 509.529C1451.99 509.107 1452.15 508.627 1452.18 508.091L1450.01 503.699C1449.7 503.504 1449.29 503.367 1448.79 503.288C1448.29 503.202 1447.72 503.313 1447.1 503.621C1446.26 504.038 1445.76 504.656 1445.61 505.475C1445.46 506.288 1445.65 507.251 1446.2 508.362C1446.53 509.013 1446.92 509.55 1447.39 509.972C1447.86 510.389 1448.36 510.653 1448.9 510.765C1449.44 510.875 1449.99 510.795 1450.53 510.526ZM1462.13 506.46C1461.36 506.842 1460.64 507.017 1459.99 506.984C1459.33 506.952 1458.72 506.688 1458.16 506.194C1457.59 505.691 1457.06 504.932 1456.56 503.916L1454.03 498.799L1455.51 498.067L1458.17 503.444C1458.64 504.4 1459.18 504.979 1459.77 505.181C1460.38 505.374 1460.98 505.321 1461.58 505.023C1462 504.816 1462.34 504.55 1462.6 504.226C1462.87 503.899 1463.02 503.497 1463.03 503.02C1463.05 502.544 1462.9 501.973 1462.57 501.31L1459.89 495.897L1461.37 495.165L1465.9 504.324L1464.42 505.056L1463.97 504.151C1463.86 504.711 1463.66 505.176 1463.35 505.544C1463.04 505.904 1462.63 506.209 1462.13 506.46ZM1473.59 500.784C1472.41 501.37 1471.26 501.416 1470.16 500.923C1469.06 500.426 1468.13 499.419 1467.38 497.902C1466.88 496.898 1466.61 495.959 1466.58 495.086C1466.54 494.212 1466.72 493.438 1467.12 492.762C1467.52 492.087 1468.14 491.545 1468.96 491.137C1469.73 490.756 1470.48 490.601 1471.21 490.672C1471.94 490.741 1472.61 491.051 1473.21 491.602L1472.11 492.769C1471.79 492.49 1471.42 492.31 1471 492.228C1470.58 492.146 1470.11 492.233 1469.59 492.49C1468.74 492.91 1468.28 493.529 1468.21 494.345C1468.13 495.156 1468.36 496.093 1468.88 497.157C1469.42 498.238 1470.03 498.987 1470.72 499.404C1471.41 499.816 1472.16 499.82 1472.97 499.418C1473.49 499.164 1473.86 498.827 1474.09 498.407C1474.33 497.985 1474.42 497.52 1474.36 497.013L1475.93 496.827C1476.05 497.647 1475.9 498.407 1475.5 499.106C1475.09 499.799 1474.45 500.359 1473.59 500.784ZM1485.27 495.006C1484.44 495.415 1483.75 495.501 1483.18 495.266C1482.63 495.029 1482.18 494.566 1481.84 493.879L1478.96 488.072L1476.86 489.114L1476.22 487.815L1478.32 486.772L1476.8 483.707L1477.91 482.267L1479.78 486.049L1482.86 484.527L1483.5 485.827L1480.43 487.349L1483.05 492.654C1483.19 492.935 1483.34 493.168 1483.51 493.354C1483.68 493.53 1483.89 493.634 1484.14 493.665C1484.39 493.69 1484.71 493.609 1485.08 493.422C1485.52 493.207 1485.84 492.978 1486.04 492.738C1486.24 492.497 1486.4 492.274 1486.53 492.069L1487.08 493.596C1486.9 493.84 1486.68 494.073 1486.41 494.295C1486.15 494.521 1485.77 494.758 1485.27 495.006ZM1503.32 488.702L1502.89 470.123L1504.34 469.408L1504.76 487.988L1503.32 488.702Z" fill="#0033FF"/>
</svg>
