<svg width="390" height="17" viewBox="0 0 390 17" fill="none" xmlns="http://www.w3.org/2000/svg">
<rect width="592" height="17" fill="#9AC2E4"/>
<path d="M1.002 12V3.6H3.828C4.516 3.6 5.062 3.726 5.466 3.978C5.87 4.23 6.16 4.554 6.336 4.95C6.512 5.342 6.6 5.748 6.6 6.168C6.6 6.464 6.548 6.764 6.444 7.068C6.344 7.368 6.182 7.644 5.958 7.896C5.738 8.148 5.452 8.352 5.1 8.508C4.752 8.66 4.328 8.736 3.828 8.736H2.286V12H1.002ZM2.286 7.542H3.9C4.244 7.542 4.518 7.474 4.722 7.338C4.93 7.198 5.08 7.024 5.172 6.816C5.264 6.604 5.31 6.388 5.31 6.168C5.31 5.972 5.268 5.768 5.184 5.556C5.104 5.344 4.962 5.164 4.758 5.016C4.554 4.868 4.268 4.794 3.9 4.794H2.286V7.542ZM8.00653 12V10.902H9.29653V6.966H8.00653V5.868H10.4665V7.23L10.3945 7.05C10.4865 6.79 10.6445 6.56 10.8685 6.36C11.0965 6.16 11.3665 6.004 11.6785 5.892C11.9905 5.78 12.3245 5.724 12.6805 5.724C12.9885 5.724 13.2585 5.756 13.4905 5.82C13.7225 5.88 13.9125 5.952 14.0605 6.036V8.25H12.8365V6.402L13.3285 6.96C13.2165 6.936 13.1065 6.92 12.9985 6.912C12.8945 6.9 12.7985 6.894 12.7105 6.894C12.2385 6.894 11.8425 6.966 11.5225 7.11C11.2025 7.25 10.9605 7.454 10.7965 7.722C10.6325 7.99 10.5505 8.31 10.5505 8.682V10.902H12.2965V12H8.00653ZM18.4851 12.144C17.8931 12.144 17.3791 12.016 16.9431 11.76C16.5071 11.5 16.1691 11.132 15.9291 10.656C15.6931 10.176 15.5751 9.604 15.5751 8.94C15.5751 8.284 15.6931 7.716 15.9291 7.236C16.1691 6.752 16.5071 6.38 16.9431 6.12C17.3791 5.856 17.8931 5.724 18.4851 5.724C19.0811 5.724 19.5971 5.854 20.0331 6.114C20.4731 6.37 20.8111 6.74 21.0471 7.224C21.2831 7.704 21.4011 8.274 21.4011 8.934C21.4011 9.594 21.2831 10.164 21.0471 10.644C20.8111 11.124 20.4731 11.494 20.0331 11.754C19.5971 12.014 19.0811 12.144 18.4851 12.144ZM18.4851 10.962C19.0171 10.962 19.4251 10.78 19.7091 10.416C19.9931 10.048 20.1351 9.554 20.1351 8.934C20.1351 8.314 19.9951 7.82 19.7151 7.452C19.4391 7.08 19.0291 6.894 18.4851 6.894C17.9531 6.894 17.5451 7.078 17.2611 7.446C16.9771 7.81 16.8351 8.308 16.8351 8.94C16.8351 9.556 16.9771 10.048 17.2611 10.416C17.5451 10.78 17.9531 10.962 18.4851 10.962ZM25.6756 12.144C25.1236 12.144 24.6456 12.016 24.2416 11.76C23.8416 11.504 23.5336 11.136 23.3176 10.656C23.1016 10.176 22.9936 9.6 22.9936 8.928C22.9936 8.26 23.1056 7.688 23.3296 7.212C23.5536 6.732 23.8636 6.364 24.2596 6.108C24.6596 5.852 25.1216 5.724 25.6456 5.724C26.0096 5.724 26.3236 5.782 26.5876 5.898C26.8516 6.01 27.0616 6.146 27.2176 6.306V3.918L28.4656 3.336V12H27.2176V11.514C27.0896 11.674 26.8936 11.82 26.6296 11.952C26.3656 12.08 26.0476 12.144 25.6756 12.144ZM25.8436 10.962C26.1716 10.962 26.4476 10.904 26.6716 10.788C26.8956 10.668 27.0776 10.496 27.2176 10.272V7.566C27.1136 7.414 26.9516 7.264 26.7316 7.116C26.5116 6.968 26.2096 6.894 25.8256 6.894C25.3216 6.894 24.9336 7.07 24.6616 7.422C24.3936 7.77 24.2596 8.272 24.2596 8.928C24.2596 9.324 24.3216 9.676 24.4456 9.984C24.5696 10.288 24.7476 10.528 24.9796 10.704C25.2156 10.876 25.5036 10.962 25.8436 10.962ZM32.9561 12.144C32.5041 12.144 32.1061 12.06 31.7621 11.892C31.4181 11.72 31.1481 11.44 30.9521 11.052C30.7601 10.664 30.6641 10.146 30.6641 9.498V5.868H31.9121V9.354C31.9121 9.946 32.0381 10.362 32.2901 10.602C32.5461 10.838 32.8581 10.956 33.2261 10.956C33.4781 10.956 33.7101 10.91 33.9221 10.818C34.1381 10.722 34.3101 10.56 34.4381 10.332C34.5701 10.1 34.6361 9.782 34.6361 9.378V5.868H35.8841V12H34.6361V11.406C34.4521 11.634 34.2161 11.814 33.9281 11.946C33.6401 12.078 33.3161 12.144 32.9561 12.144ZM40.7947 12.144C39.9587 12.144 39.2947 11.864 38.8027 11.304C38.3107 10.74 38.0647 9.952 38.0647 8.94C38.0647 8.272 38.1787 7.698 38.4067 7.218C38.6347 6.738 38.9547 6.37 39.3667 6.114C39.7827 5.854 40.2727 5.724 40.8367 5.724C41.4327 5.724 41.9347 5.854 42.3427 6.114C42.7507 6.37 43.0487 6.764 43.2367 7.296L42.0667 7.704C41.9747 7.468 41.8287 7.274 41.6287 7.122C41.4327 6.97 41.1687 6.894 40.8367 6.894C40.3407 6.894 39.9667 7.08 39.7147 7.452C39.4627 7.824 39.3367 8.32 39.3367 8.94C39.3367 9.568 39.4627 10.062 39.7147 10.422C39.9707 10.782 40.3367 10.962 40.8127 10.962C41.1487 10.962 41.4247 10.884 41.6407 10.728C41.8567 10.568 42.0147 10.344 42.1147 10.056L43.2847 10.434C43.1127 10.986 42.8167 11.41 42.3967 11.706C41.9767 11.998 41.4427 12.144 40.7947 12.144ZM48.6272 12.144C48.0152 12.144 47.5752 12.002 47.3072 11.718C47.0432 11.43 46.9112 11.032 46.9112 10.524V6.966H45.5852V5.868H46.9112V3.936L48.1592 3.336V5.868H50.2352V6.966H48.1592V10.236C48.1592 10.4 48.1852 10.542 48.2372 10.662C48.2892 10.778 48.3772 10.868 48.5012 10.932C48.6292 10.996 48.8052 11.028 49.0292 11.028C49.2612 11.028 49.4632 10.998 49.6352 10.938C49.8072 10.874 49.9672 10.802 50.1152 10.722L49.9652 11.868C49.7972 11.956 49.6072 12.024 49.3952 12.072C49.1832 12.12 48.9272 12.144 48.6272 12.144ZM59.8583 13.56L64.5743 3.456H65.8403L61.1243 13.56H59.8583ZM74.9473 12V3.6H77.0053C77.6853 3.6 78.2593 3.72 78.7273 3.96C79.1993 4.196 79.5813 4.516 79.8733 4.92C80.1653 5.32 80.3773 5.77 80.5093 6.27C80.6453 6.766 80.7133 7.276 80.7133 7.8C80.7133 8.28 80.6493 8.766 80.5213 9.258C80.3973 9.75 80.1913 10.204 79.9033 10.62C79.6153 11.036 79.2313 11.37 78.7513 11.622C78.2713 11.874 77.6733 12 76.9573 12H74.9473ZM76.2253 10.8H77.0653C77.5013 10.8 77.8673 10.712 78.1633 10.536C78.4633 10.356 78.7013 10.12 78.8773 9.828C79.0533 9.532 79.1793 9.208 79.2553 8.856C79.3353 8.504 79.3753 8.152 79.3753 7.8C79.3753 7.424 79.3333 7.058 79.2493 6.702C79.1693 6.346 79.0413 6.024 78.8653 5.736C78.6933 5.448 78.4693 5.22 78.1933 5.052C77.9173 4.88 77.5853 4.794 77.1973 4.794H76.2253V10.8ZM85.1678 12.144C84.5638 12.144 84.0458 12.008 83.6138 11.736C83.1858 11.46 82.8558 11.08 82.6238 10.596C82.3958 10.112 82.2818 9.556 82.2818 8.928C82.2818 8.26 82.3998 7.688 82.6358 7.212C82.8758 6.732 83.2098 6.364 83.6378 6.108C84.0698 5.852 84.5798 5.724 85.1678 5.724C85.6478 5.724 86.0858 5.828 86.4818 6.036C86.8818 6.244 87.1998 6.564 87.4358 6.996C87.6718 7.424 87.7898 7.972 87.7898 8.64C87.7898 8.74 87.7878 8.858 87.7838 8.994C87.7798 9.126 87.7678 9.268 87.7478 9.42H83.2418V8.346H86.5598C86.5398 7.974 86.4578 7.676 86.3138 7.452C86.1738 7.228 86.0018 7.068 85.7978 6.972C85.5938 6.872 85.3838 6.822 85.1678 6.822C84.5838 6.822 84.1598 7.006 83.8958 7.374C83.6318 7.738 83.4998 8.232 83.4998 8.856C83.4998 9.516 83.6478 10.044 83.9438 10.44C84.2398 10.832 84.6538 11.028 85.1858 11.028C85.4458 11.028 85.6898 10.984 85.9178 10.896C86.1458 10.804 86.3618 10.658 86.5658 10.458L87.3038 11.256C87.0478 11.516 86.7398 11.73 86.3798 11.898C86.0198 12.062 85.6158 12.144 85.1678 12.144ZM92.4424 12.144C91.9384 12.144 91.4744 12.044 91.0504 11.844C90.6264 11.64 90.2844 11.378 90.0244 11.058L90.8584 10.308C91.0304 10.488 91.2564 10.658 91.5364 10.818C91.8204 10.978 92.1464 11.058 92.5144 11.058C92.8104 11.058 93.0564 11.004 93.2524 10.896C93.4524 10.788 93.5524 10.618 93.5524 10.386C93.5524 10.222 93.4904 10.082 93.3664 9.966C93.2424 9.85 93.0684 9.744 92.8444 9.648C92.6244 9.548 92.3644 9.442 92.0644 9.33C91.6884 9.19 91.3544 9.038 91.0624 8.874C90.7704 8.71 90.5404 8.51 90.3724 8.274C90.2044 8.034 90.1204 7.734 90.1204 7.374C90.1204 7.03 90.2204 6.736 90.4204 6.492C90.6244 6.244 90.8984 6.054 91.2424 5.922C91.5904 5.79 91.9784 5.724 92.4064 5.724C92.9104 5.724 93.3484 5.816 93.7204 6C94.0924 6.18 94.4004 6.408 94.6444 6.684L93.8044 7.38C93.6444 7.236 93.4444 7.106 93.2044 6.99C92.9644 6.87 92.6704 6.81 92.3224 6.81C92.0304 6.81 91.7904 6.858 91.6024 6.954C91.4184 7.05 91.3264 7.194 91.3264 7.386C91.3264 7.53 91.3884 7.656 91.5124 7.764C91.6364 7.868 91.8004 7.964 92.0044 8.052C92.2124 8.14 92.4404 8.23 92.6884 8.322C93.0284 8.446 93.3564 8.588 93.6724 8.748C93.9924 8.908 94.2524 9.114 94.4524 9.366C94.6564 9.618 94.7584 9.95 94.7584 10.362C94.7584 10.922 94.5484 11.36 94.1284 11.676C93.7084 11.988 93.1464 12.144 92.4424 12.144ZM99.2909 11.94V5.868H100.539V11.94H99.2909ZM97.5989 12V10.902H102.231V12H97.5989ZM97.5989 6.966V5.868H100.071V6.966H97.5989ZM99.9089 4.914C99.7009 4.914 99.5229 4.84 99.3749 4.692C99.2309 4.544 99.1589 4.364 99.1589 4.152C99.1589 3.94 99.2309 3.762 99.3749 3.618C99.5229 3.47 99.7009 3.396 99.9089 3.396C100.129 3.396 100.311 3.47 100.455 3.618C100.599 3.762 100.671 3.94 100.671 4.152C100.671 4.364 100.599 4.544 100.455 4.692C100.311 4.84 100.129 4.914 99.9089 4.914ZM106.829 14.466L106.175 13.452C106.775 13.412 107.241 13.334 107.573 13.218C107.905 13.102 108.137 12.944 108.269 12.744C108.405 12.548 108.473 12.304 108.473 12.012V11.508C108.293 11.728 108.079 11.89 107.831 11.994C107.587 12.094 107.297 12.144 106.961 12.144C106.485 12.144 106.053 12.024 105.665 11.784C105.281 11.544 104.975 11.186 104.747 10.71C104.519 10.234 104.405 9.64 104.405 8.928C104.405 8.26 104.515 7.688 104.735 7.212C104.955 6.732 105.259 6.364 105.647 6.108C106.035 5.852 106.483 5.724 106.991 5.724C107.239 5.724 107.457 5.754 107.645 5.814C107.837 5.87 107.999 5.942 108.131 6.03C108.267 6.118 108.381 6.208 108.473 6.3V5.868H109.715V11.49C109.715 12.006 109.655 12.446 109.535 12.81C109.419 13.174 109.241 13.472 109.001 13.704C108.765 13.94 108.465 14.118 108.101 14.238C107.741 14.358 107.317 14.434 106.829 14.466ZM107.189 10.962C107.461 10.962 107.707 10.9 107.927 10.776C108.147 10.652 108.329 10.474 108.473 10.242V7.584C108.345 7.384 108.167 7.22 107.939 7.092C107.715 6.96 107.465 6.894 107.189 6.894C106.685 6.894 106.303 7.07 106.043 7.422C105.787 7.77 105.659 8.272 105.659 8.928C105.659 9.556 105.795 10.052 106.067 10.416C106.343 10.78 106.717 10.962 107.189 10.962ZM112.004 12V5.868H113.252V7.218L113.078 6.876C113.11 6.68 113.212 6.496 113.384 6.324C113.56 6.148 113.784 6.004 114.056 5.892C114.328 5.78 114.632 5.724 114.968 5.724C115.404 5.724 115.792 5.81 116.132 5.982C116.476 6.15 116.746 6.426 116.942 6.81C117.138 7.19 117.236 7.7 117.236 8.34V12H115.994V8.472C115.994 7.888 115.864 7.48 115.604 7.248C115.344 7.012 115.03 6.894 114.662 6.894C114.402 6.894 114.164 6.942 113.948 7.038C113.736 7.13 113.566 7.29 113.438 7.518C113.314 7.742 113.252 8.052 113.252 8.448V12H112.004ZM126.409 13.56L131.125 3.456H132.391L127.675 13.56H126.409ZM141.498 12V3.6H147.012V4.818H142.782V7.05H145.818V8.268H142.782V12H141.498ZM148.503 12V10.902H149.793V6.966H148.503V5.868H150.963V7.23L150.891 7.05C150.983 6.79 151.141 6.56 151.365 6.36C151.593 6.16 151.863 6.004 152.175 5.892C152.487 5.78 152.821 5.724 153.177 5.724C153.485 5.724 153.755 5.756 153.987 5.82C154.219 5.88 154.409 5.952 154.557 6.036V8.25H153.333V6.402L153.825 6.96C153.713 6.936 153.603 6.92 153.495 6.912C153.391 6.9 153.295 6.894 153.207 6.894C152.735 6.894 152.339 6.966 152.019 7.11C151.699 7.25 151.457 7.454 151.293 7.722C151.129 7.99 151.047 8.31 151.047 8.682V10.902H152.793V12H148.503ZM158.981 12.144C158.389 12.144 157.875 12.016 157.439 11.76C157.003 11.5 156.665 11.132 156.425 10.656C156.189 10.176 156.071 9.604 156.071 8.94C156.071 8.284 156.189 7.716 156.425 7.236C156.665 6.752 157.003 6.38 157.439 6.12C157.875 5.856 158.389 5.724 158.981 5.724C159.577 5.724 160.093 5.854 160.529 6.114C160.969 6.37 161.307 6.74 161.543 7.224C161.779 7.704 161.897 8.274 161.897 8.934C161.897 9.594 161.779 10.164 161.543 10.644C161.307 11.124 160.969 11.494 160.529 11.754C160.093 12.014 159.577 12.144 158.981 12.144ZM158.981 10.962C159.513 10.962 159.921 10.78 160.205 10.416C160.489 10.048 160.631 9.554 160.631 8.934C160.631 8.314 160.491 7.82 160.211 7.452C159.935 7.08 159.525 6.894 158.981 6.894C158.449 6.894 158.041 7.078 157.757 7.446C157.473 7.81 157.331 8.308 157.331 8.94C157.331 9.556 157.473 10.048 157.757 10.416C158.041 10.78 158.449 10.962 158.981 10.962ZM163.766 12V5.868H165.014V7.218L164.84 6.876C164.872 6.68 164.974 6.496 165.146 6.324C165.322 6.148 165.546 6.004 165.818 5.892C166.09 5.78 166.394 5.724 166.73 5.724C167.166 5.724 167.554 5.81 167.894 5.982C168.238 6.15 168.508 6.426 168.704 6.81C168.9 7.19 168.998 7.7 168.998 8.34V12H167.756V8.472C167.756 7.888 167.626 7.48 167.366 7.248C167.106 7.012 166.792 6.894 166.424 6.894C166.164 6.894 165.926 6.942 165.71 7.038C165.498 7.13 165.328 7.29 165.2 7.518C165.076 7.742 165.014 8.052 165.014 8.448V12H163.766ZM174.334 12.144C173.722 12.144 173.282 12.002 173.014 11.718C172.75 11.43 172.618 11.032 172.618 10.524V6.966H171.292V5.868H172.618V3.936L173.866 3.336V5.868H175.942V6.966H173.866V10.236C173.866 10.4 173.892 10.542 173.944 10.662C173.996 10.778 174.084 10.868 174.208 10.932C174.336 10.996 174.512 11.028 174.736 11.028C174.968 11.028 175.17 10.998 175.342 10.938C175.514 10.874 175.674 10.802 175.822 10.722L175.672 11.868C175.504 11.956 175.314 12.024 175.102 12.072C174.89 12.12 174.634 12.144 174.334 12.144ZM181.297 12.144C180.693 12.144 180.175 12.008 179.743 11.736C179.315 11.46 178.985 11.08 178.753 10.596C178.525 10.112 178.411 9.556 178.411 8.928C178.411 8.26 178.529 7.688 178.765 7.212C179.005 6.732 179.339 6.364 179.767 6.108C180.199 5.852 180.709 5.724 181.297 5.724C181.777 5.724 182.215 5.828 182.611 6.036C183.011 6.244 183.329 6.564 183.565 6.996C183.801 7.424 183.919 7.972 183.919 8.64C183.919 8.74 183.917 8.858 183.913 8.994C183.909 9.126 183.897 9.268 183.877 9.42H179.371V8.346H182.689C182.669 7.974 182.587 7.676 182.443 7.452C182.303 7.228 182.131 7.068 181.927 6.972C181.723 6.872 181.513 6.822 181.297 6.822C180.713 6.822 180.289 7.006 180.025 7.374C179.761 7.738 179.629 8.232 179.629 8.856C179.629 9.516 179.777 10.044 180.073 10.44C180.369 10.832 180.783 11.028 181.315 11.028C181.575 11.028 181.819 10.984 182.047 10.896C182.275 10.804 182.491 10.658 182.695 10.458L183.433 11.256C183.177 11.516 182.869 11.73 182.509 11.898C182.149 12.062 181.745 12.144 181.297 12.144ZM185.949 12V5.868H187.197V7.218L187.023 6.876C187.055 6.68 187.157 6.496 187.329 6.324C187.505 6.148 187.729 6.004 188.001 5.892C188.273 5.78 188.577 5.724 188.913 5.724C189.349 5.724 189.737 5.81 190.077 5.982C190.421 6.15 190.691 6.426 190.887 6.81C191.083 7.19 191.181 7.7 191.181 8.34V12H189.939V8.472C189.939 7.888 189.809 7.48 189.549 7.248C189.289 7.012 188.975 6.894 188.607 6.894C188.347 6.894 188.109 6.942 187.893 7.038C187.681 7.13 187.511 7.29 187.383 7.518C187.259 7.742 187.197 8.052 187.197 8.448V12H185.949ZM195.75 12.144C195.198 12.144 194.72 12.016 194.316 11.76C193.916 11.504 193.608 11.136 193.392 10.656C193.176 10.176 193.068 9.6 193.068 8.928C193.068 8.26 193.18 7.688 193.404 7.212C193.628 6.732 193.938 6.364 194.334 6.108C194.734 5.852 195.196 5.724 195.72 5.724C196.084 5.724 196.398 5.782 196.662 5.898C196.926 6.01 197.136 6.146 197.292 6.306V3.918L198.54 3.336V12H197.292V11.514C197.164 11.674 196.968 11.82 196.704 11.952C196.44 12.08 196.122 12.144 195.75 12.144ZM195.918 10.962C196.246 10.962 196.522 10.904 196.746 10.788C196.97 10.668 197.152 10.496 197.292 10.272V7.566C197.188 7.414 197.026 7.264 196.806 7.116C196.586 6.968 196.284 6.894 195.9 6.894C195.396 6.894 195.008 7.07 194.736 7.422C194.468 7.77 194.334 8.272 194.334 8.928C194.334 9.324 194.396 9.676 194.52 9.984C194.644 10.288 194.822 10.528 195.054 10.704C195.29 10.876 195.578 10.962 195.918 10.962ZM207.749 13.56L212.465 3.456H213.731L209.015 13.56H207.749ZM222.838 12V3.6H225.514C226.186 3.6 226.716 3.708 227.104 3.924C227.492 4.14 227.766 4.42 227.926 4.764C228.09 5.104 228.172 5.46 228.172 5.832C228.172 6.216 228.074 6.562 227.878 6.87C227.686 7.174 227.4 7.408 227.02 7.572C227.484 7.716 227.84 7.97 228.088 8.334C228.336 8.698 228.46 9.108 228.46 9.564C228.46 9.856 228.412 10.146 228.316 10.434C228.224 10.722 228.07 10.984 227.854 11.22C227.642 11.456 227.36 11.646 227.008 11.79C226.656 11.93 226.218 12 225.694 12H222.838ZM224.122 10.818H225.802C226.166 10.818 226.448 10.758 226.648 10.638C226.852 10.514 226.994 10.358 227.074 10.17C227.154 9.982 227.194 9.79 227.194 9.594C227.194 9.362 227.146 9.142 227.05 8.934C226.958 8.726 226.784 8.556 226.528 8.424C226.276 8.292 225.914 8.226 225.442 8.226H224.122V10.818ZM224.122 7.062H225.316C225.852 7.062 226.25 6.956 226.51 6.744C226.774 6.532 226.906 6.25 226.906 5.898C226.906 5.718 226.87 5.542 226.798 5.37C226.73 5.198 226.598 5.056 226.402 4.944C226.21 4.832 225.928 4.776 225.556 4.776H224.122V7.062ZM232.482 12.144C232.054 12.144 231.67 12.068 231.33 11.916C230.994 11.764 230.728 11.536 230.532 11.232C230.336 10.928 230.238 10.548 230.238 10.092C230.238 9.62 230.354 9.236 230.586 8.94C230.822 8.64 231.124 8.42 231.492 8.28C231.86 8.136 232.246 8.064 232.65 8.064C232.958 8.064 233.238 8.092 233.49 8.148C233.742 8.204 233.988 8.294 234.228 8.418V8.016C234.228 7.712 234.176 7.472 234.072 7.296C233.968 7.12 233.822 6.996 233.634 6.924C233.446 6.852 233.228 6.816 232.98 6.816C232.644 6.816 232.306 6.876 231.966 6.996C231.626 7.116 231.316 7.266 231.036 7.446L230.664 6.42C230.948 6.24 231.302 6.08 231.726 5.94C232.154 5.796 232.61 5.724 233.094 5.724C233.35 5.724 233.614 5.752 233.886 5.808C234.162 5.864 234.416 5.97 234.648 6.126C234.884 6.282 235.072 6.51 235.212 6.81C235.356 7.106 235.428 7.496 235.428 7.98V12H234.228V11.49C234.04 11.666 233.802 11.82 233.514 11.952C233.23 12.08 232.886 12.144 232.482 12.144ZM232.692 11.052C233.044 11.052 233.346 10.98 233.598 10.836C233.854 10.692 234.064 10.532 234.228 10.356V9.462C234.052 9.366 233.842 9.288 233.598 9.228C233.354 9.164 233.1 9.132 232.836 9.132C232.464 9.132 232.136 9.208 231.852 9.36C231.572 9.512 231.432 9.756 231.432 10.092C231.432 10.376 231.542 10.608 231.762 10.788C231.982 10.964 232.292 11.052 232.692 11.052ZM240.447 12.144C239.611 12.144 238.947 11.864 238.455 11.304C237.963 10.74 237.717 9.952 237.717 8.94C237.717 8.272 237.831 7.698 238.059 7.218C238.287 6.738 238.607 6.37 239.019 6.114C239.435 5.854 239.925 5.724 240.489 5.724C241.085 5.724 241.587 5.854 241.995 6.114C242.403 6.37 242.701 6.764 242.889 7.296L241.719 7.704C241.627 7.468 241.481 7.274 241.281 7.122C241.085 6.97 240.821 6.894 240.489 6.894C239.993 6.894 239.619 7.08 239.367 7.452C239.115 7.824 238.989 8.32 238.989 8.94C238.989 9.568 239.115 10.062 239.367 10.422C239.623 10.782 239.989 10.962 240.465 10.962C240.801 10.962 241.077 10.884 241.293 10.728C241.509 10.568 241.667 10.344 241.767 10.056L242.937 10.434C242.765 10.986 242.469 11.41 242.049 11.706C241.629 11.998 241.095 12.144 240.447 12.144ZM245.142 12V3.924L246.39 3.336V12H245.142ZM246.234 9.6V8.214L248.562 5.868H250.038L246.234 9.6ZM249.174 12L247.284 8.322L248.19 7.428L250.542 12H249.174ZM255.242 12.144C254.638 12.144 254.12 12.008 253.688 11.736C253.26 11.46 252.93 11.08 252.698 10.596C252.47 10.112 252.356 9.556 252.356 8.928C252.356 8.26 252.474 7.688 252.71 7.212C252.95 6.732 253.284 6.364 253.712 6.108C254.144 5.852 254.654 5.724 255.242 5.724C255.722 5.724 256.16 5.828 256.556 6.036C256.956 6.244 257.274 6.564 257.51 6.996C257.746 7.424 257.864 7.972 257.864 8.64C257.864 8.74 257.862 8.858 257.858 8.994C257.854 9.126 257.842 9.268 257.822 9.42H253.316V8.346H256.634C256.614 7.974 256.532 7.676 256.388 7.452C256.248 7.228 256.076 7.068 255.872 6.972C255.668 6.872 255.458 6.822 255.242 6.822C254.658 6.822 254.234 7.006 253.97 7.374C253.706 7.738 253.574 8.232 253.574 8.856C253.574 9.516 253.722 10.044 254.018 10.44C254.314 10.832 254.728 11.028 255.26 11.028C255.52 11.028 255.764 10.984 255.992 10.896C256.22 10.804 256.436 10.658 256.64 10.458L257.378 11.256C257.122 11.516 256.814 11.73 256.454 11.898C256.094 12.062 255.69 12.144 255.242 12.144ZM259.895 12V5.868H261.143V7.218L260.969 6.876C261.001 6.68 261.103 6.496 261.275 6.324C261.451 6.148 261.675 6.004 261.947 5.892C262.219 5.78 262.523 5.724 262.859 5.724C263.295 5.724 263.683 5.81 264.023 5.982C264.367 6.15 264.637 6.426 264.833 6.81C265.029 7.19 265.127 7.7 265.127 8.34V12H263.885V8.472C263.885 7.888 263.755 7.48 263.495 7.248C263.235 7.012 262.921 6.894 262.553 6.894C262.293 6.894 262.055 6.942 261.839 7.038C261.627 7.13 261.457 7.29 261.329 7.518C261.205 7.742 261.143 8.052 261.143 8.448V12H259.895ZM269.695 12.144C269.143 12.144 268.665 12.016 268.261 11.76C267.861 11.504 267.553 11.136 267.337 10.656C267.121 10.176 267.013 9.6 267.013 8.928C267.013 8.26 267.125 7.688 267.349 7.212C267.573 6.732 267.883 6.364 268.279 6.108C268.679 5.852 269.141 5.724 269.665 5.724C270.029 5.724 270.343 5.782 270.607 5.898C270.871 6.01 271.081 6.146 271.237 6.306V3.918L272.485 3.336V12H271.237V11.514C271.109 11.674 270.913 11.82 270.649 11.952C270.385 12.08 270.067 12.144 269.695 12.144ZM269.863 10.962C270.191 10.962 270.467 10.904 270.691 10.788C270.915 10.668 271.097 10.496 271.237 10.272V7.566C271.133 7.414 270.971 7.264 270.751 7.116C270.531 6.968 270.229 6.894 269.845 6.894C269.341 6.894 268.953 7.07 268.681 7.422C268.413 7.77 268.279 8.272 268.279 8.928C268.279 9.324 268.341 9.676 268.465 9.984C268.589 10.288 268.767 10.528 268.999 10.704C269.235 10.876 269.523 10.962 269.863 10.962ZM281.694 13.56L286.41 3.456H287.676L282.96 13.56H281.694ZM301.067 12.966L299.111 10.05L300.059 9.42L301.997 12.336L301.067 12.966ZM299.477 12.144C298.929 12.144 298.461 12.024 298.073 11.784C297.685 11.54 297.369 11.212 297.125 10.8C296.881 10.388 296.701 9.924 296.585 9.408C296.473 8.888 296.417 8.352 296.417 7.8C296.417 7.248 296.473 6.714 296.585 6.198C296.701 5.678 296.881 5.212 297.125 4.8C297.369 4.388 297.685 4.062 298.073 3.822C298.461 3.578 298.929 3.456 299.477 3.456C300.025 3.456 300.493 3.578 300.881 3.822C301.273 4.062 301.591 4.388 301.835 4.8C302.079 5.212 302.259 5.678 302.375 6.198C302.491 6.714 302.549 7.248 302.549 7.8C302.549 8.352 302.491 8.888 302.375 9.408C302.259 9.924 302.079 10.388 301.835 10.8C301.591 11.212 301.273 11.54 300.881 11.784C300.493 12.024 300.025 12.144 299.477 12.144ZM299.477 10.938C299.785 10.938 300.049 10.848 300.269 10.668C300.489 10.488 300.667 10.248 300.803 9.948C300.943 9.648 301.045 9.312 301.109 8.94C301.177 8.564 301.211 8.184 301.211 7.8C301.211 7.384 301.177 6.99 301.109 6.618C301.045 6.242 300.945 5.908 300.809 5.616C300.673 5.32 300.495 5.088 300.275 4.92C300.055 4.748 299.789 4.662 299.477 4.662C299.169 4.662 298.905 4.752 298.685 4.932C298.465 5.108 298.285 5.346 298.145 5.646C298.009 5.946 297.907 6.284 297.839 6.66C297.775 7.032 297.743 7.412 297.743 7.8C297.743 8.212 297.775 8.606 297.839 8.982C297.907 9.354 298.009 9.688 298.145 9.984C298.285 10.28 298.465 10.514 298.685 10.686C298.905 10.854 299.169 10.938 299.477 10.938ZM303.53 12L306.284 3.6H307.454L310.214 12H308.852L307.082 6.198C307.066 6.142 307.044 6.062 307.016 5.958C306.988 5.85 306.96 5.738 306.932 5.622C306.904 5.506 306.884 5.402 306.872 5.31C306.852 5.402 306.828 5.506 306.8 5.622C306.776 5.738 306.75 5.85 306.722 5.958C306.698 6.062 306.678 6.142 306.662 6.198L304.904 12H303.53ZM305.18 10.068L305.534 8.91H308.21L308.564 10.068H305.18ZM318.667 13.56L323.383 3.456H324.649L319.933 13.56H318.667ZM336.654 12.132C336.058 12.132 335.552 12.008 335.136 11.76C334.72 11.512 334.384 11.18 334.128 10.764C333.872 10.348 333.684 9.882 333.564 9.366C333.448 8.85 333.39 8.328 333.39 7.8C333.39 7.28 333.45 6.764 333.57 6.252C333.694 5.736 333.886 5.268 334.146 4.848C334.406 4.428 334.742 4.092 335.154 3.84C335.57 3.588 336.07 3.462 336.654 3.462C337.11 3.462 337.502 3.542 337.83 3.702C338.158 3.862 338.43 4.07 338.646 4.326C338.862 4.578 339.028 4.842 339.144 5.118L338.004 5.682C337.848 5.382 337.668 5.138 337.464 4.95C337.26 4.762 336.99 4.668 336.654 4.668C336.298 4.668 335.996 4.764 335.748 4.956C335.5 5.144 335.3 5.394 335.148 5.706C334.996 6.014 334.886 6.352 334.818 6.72C334.75 7.084 334.716 7.444 334.716 7.8C334.716 8.18 334.754 8.556 334.83 8.928C334.906 9.3 335.022 9.636 335.178 9.936C335.338 10.236 335.54 10.476 335.784 10.656C336.028 10.836 336.318 10.926 336.654 10.926C336.994 10.926 337.272 10.826 337.488 10.626C337.708 10.426 337.892 10.168 338.04 9.852L339.198 10.29C339.058 10.634 338.874 10.946 338.646 11.226C338.418 11.506 338.138 11.728 337.806 11.892C337.478 12.052 337.094 12.132 336.654 12.132ZM343.844 12.144C343.252 12.144 342.738 12.016 342.302 11.76C341.866 11.5 341.528 11.132 341.288 10.656C341.052 10.176 340.934 9.604 340.934 8.94C340.934 8.284 341.052 7.716 341.288 7.236C341.528 6.752 341.866 6.38 342.302 6.12C342.738 5.856 343.252 5.724 343.844 5.724C344.44 5.724 344.956 5.854 345.392 6.114C345.832 6.37 346.17 6.74 346.406 7.224C346.642 7.704 346.76 8.274 346.76 8.934C346.76 9.594 346.642 10.164 346.406 10.644C346.17 11.124 345.832 11.494 345.392 11.754C344.956 12.014 344.44 12.144 343.844 12.144ZM343.844 10.962C344.376 10.962 344.784 10.78 345.068 10.416C345.352 10.048 345.494 9.554 345.494 8.934C345.494 8.314 345.354 7.82 345.074 7.452C344.798 7.08 344.388 6.894 343.844 6.894C343.312 6.894 342.904 7.078 342.62 7.446C342.336 7.81 342.194 8.308 342.194 8.94C342.194 9.556 342.336 10.048 342.62 10.416C342.904 10.78 343.312 10.962 343.844 10.962ZM348.629 12V5.868H349.877V7.218L349.703 6.876C349.735 6.68 349.837 6.496 350.009 6.324C350.185 6.148 350.409 6.004 350.681 5.892C350.953 5.78 351.257 5.724 351.593 5.724C352.029 5.724 352.417 5.81 352.757 5.982C353.101 6.15 353.371 6.426 353.567 6.81C353.763 7.19 353.861 7.7 353.861 8.34V12H352.619V8.472C352.619 7.888 352.489 7.48 352.229 7.248C351.969 7.012 351.655 6.894 351.287 6.894C351.027 6.894 350.789 6.942 350.573 7.038C350.361 7.13 350.191 7.29 350.063 7.518C349.939 7.742 349.877 8.052 349.877 8.448V12H348.629ZM359.198 12.144C358.586 12.144 358.146 12.002 357.878 11.718C357.614 11.43 357.482 11.032 357.482 10.524V6.966H356.156V5.868H357.482V3.936L358.73 3.336V5.868H360.806V6.966H358.73V10.236C358.73 10.4 358.756 10.542 358.808 10.662C358.86 10.778 358.948 10.868 359.072 10.932C359.2 10.996 359.376 11.028 359.6 11.028C359.832 11.028 360.034 10.998 360.206 10.938C360.378 10.874 360.538 10.802 360.686 10.722L360.536 11.868C360.368 11.956 360.178 12.024 359.966 12.072C359.754 12.12 359.498 12.144 359.198 12.144ZM366.16 12.144C365.556 12.144 365.038 12.008 364.606 11.736C364.178 11.46 363.848 11.08 363.616 10.596C363.388 10.112 363.274 9.556 363.274 8.928C363.274 8.26 363.392 7.688 363.628 7.212C363.868 6.732 364.202 6.364 364.63 6.108C365.062 5.852 365.572 5.724 366.16 5.724C366.64 5.724 367.078 5.828 367.474 6.036C367.874 6.244 368.192 6.564 368.428 6.996C368.664 7.424 368.782 7.972 368.782 8.64C368.782 8.74 368.78 8.858 368.776 8.994C368.772 9.126 368.76 9.268 368.74 9.42H364.234V8.346H367.552C367.532 7.974 367.45 7.676 367.306 7.452C367.166 7.228 366.994 7.068 366.79 6.972C366.586 6.872 366.376 6.822 366.16 6.822C365.576 6.822 365.152 7.006 364.888 7.374C364.624 7.738 364.492 8.232 364.492 8.856C364.492 9.516 364.64 10.044 364.936 10.44C365.232 10.832 365.646 11.028 366.178 11.028C366.438 11.028 366.682 10.984 366.91 10.896C367.138 10.804 367.354 10.658 367.558 10.458L368.296 11.256C368.04 11.516 367.732 11.73 367.372 11.898C367.012 12.062 366.608 12.144 366.16 12.144ZM370.813 12V5.868H372.061V7.218L371.887 6.876C371.919 6.68 372.021 6.496 372.193 6.324C372.369 6.148 372.593 6.004 372.865 5.892C373.137 5.78 373.441 5.724 373.777 5.724C374.213 5.724 374.601 5.81 374.941 5.982C375.285 6.15 375.555 6.426 375.751 6.81C375.947 7.19 376.045 7.7 376.045 8.34V12H374.803V8.472C374.803 7.888 374.673 7.48 374.413 7.248C374.153 7.012 373.839 6.894 373.471 6.894C373.211 6.894 372.973 6.942 372.757 7.038C372.545 7.13 372.375 7.29 372.247 7.518C372.123 7.742 372.061 8.052 372.061 8.448V12H370.813ZM381.381 12.144C380.769 12.144 380.329 12.002 380.061 11.718C379.797 11.43 379.665 11.032 379.665 10.524V6.966H378.339V5.868H379.665V3.936L380.913 3.336V5.868H382.989V6.966H380.913V10.236C380.913 10.4 380.939 10.542 380.991 10.662C381.043 10.778 381.131 10.868 381.255 10.932C381.383 10.996 381.559 11.028 381.783 11.028C382.015 11.028 382.217 10.998 382.389 10.938C382.561 10.874 382.721 10.802 382.869 10.722L382.719 11.868C382.551 11.956 382.361 12.024 382.149 12.072C381.937 12.12 381.681 12.144 381.381 12.144ZM392.612 13.56L397.328 3.456H398.594L393.878 13.56H392.612ZM410.599 12.132C410.003 12.132 409.497 12.008 409.081 11.76C408.665 11.512 408.329 11.18 408.073 10.764C407.817 10.348 407.629 9.882 407.509 9.366C407.393 8.85 407.335 8.328 407.335 7.8C407.335 7.28 407.395 6.764 407.515 6.252C407.639 5.736 407.831 5.268 408.091 4.848C408.351 4.428 408.687 4.092 409.099 3.84C409.515 3.588 410.015 3.462 410.599 3.462C411.055 3.462 411.447 3.542 411.775 3.702C412.103 3.862 412.375 4.07 412.591 4.326C412.807 4.578 412.973 4.842 413.089 5.118L411.949 5.682C411.793 5.382 411.613 5.138 411.409 4.95C411.205 4.762 410.935 4.668 410.599 4.668C410.243 4.668 409.941 4.764 409.693 4.956C409.445 5.144 409.245 5.394 409.093 5.706C408.941 6.014 408.831 6.352 408.763 6.72C408.695 7.084 408.661 7.444 408.661 7.8C408.661 8.18 408.699 8.556 408.775 8.928C408.851 9.3 408.967 9.636 409.123 9.936C409.283 10.236 409.485 10.476 409.729 10.656C409.973 10.836 410.263 10.926 410.599 10.926C410.939 10.926 411.217 10.826 411.433 10.626C411.653 10.426 411.837 10.168 411.985 9.852L413.143 10.29C413.003 10.634 412.819 10.946 412.591 11.226C412.363 11.506 412.083 11.728 411.751 11.892C411.423 12.052 411.039 12.132 410.599 12.132ZM415.096 12V3.6H416.386L417.616 8.364C417.652 8.512 417.688 8.662 417.724 8.814C417.764 8.962 417.792 9.094 417.808 9.21C417.828 9.094 417.856 8.962 417.892 8.814C417.928 8.662 417.966 8.512 418.006 8.364L419.26 3.6H420.484V12H419.356V7.17C419.356 7.082 419.356 6.966 419.356 6.822C419.36 6.674 419.368 6.55 419.38 6.45C419.348 6.562 419.312 6.682 419.272 6.81C419.236 6.934 419.202 7.054 419.17 7.17L417.862 12H417.724L416.41 7.17C416.378 7.054 416.342 6.932 416.302 6.804C416.266 6.676 416.232 6.558 416.2 6.45C416.208 6.55 416.214 6.674 416.218 6.822C416.222 6.966 416.224 7.082 416.224 7.17V12H415.096ZM425.268 12.144C424.82 12.144 424.404 12.058 424.02 11.886C423.636 11.71 423.302 11.47 423.018 11.166C422.738 10.858 422.53 10.502 422.394 10.098L423.564 9.666C423.736 10.046 423.982 10.354 424.302 10.59C424.622 10.826 424.974 10.944 425.358 10.944C425.746 10.944 426.06 10.842 426.3 10.638C426.54 10.434 426.66 10.138 426.66 9.75C426.66 9.494 426.58 9.268 426.42 9.072C426.26 8.876 426.05 8.702 425.79 8.55C425.53 8.394 425.25 8.248 424.95 8.112C424.682 8 424.414 7.872 424.146 7.728C423.882 7.584 423.638 7.416 423.414 7.224C423.194 7.028 423.016 6.798 422.88 6.534C422.744 6.27 422.676 5.962 422.676 5.61C422.676 5.218 422.776 4.86 422.976 4.536C423.18 4.208 423.468 3.946 423.84 3.75C424.216 3.554 424.66 3.456 425.172 3.456C425.784 3.456 426.306 3.616 426.738 3.936C427.174 4.252 427.46 4.65 427.596 5.13L426.438 5.52C426.326 5.276 426.158 5.07 425.934 4.902C425.71 4.734 425.434 4.65 425.106 4.65C424.778 4.65 424.506 4.734 424.29 4.902C424.078 5.07 423.972 5.298 423.972 5.586C423.972 5.798 424.036 5.982 424.164 6.138C424.296 6.29 424.48 6.432 424.716 6.564C424.952 6.696 425.234 6.838 425.562 6.99C425.826 7.114 426.098 7.254 426.378 7.41C426.658 7.566 426.918 7.75 427.158 7.962C427.398 8.17 427.59 8.416 427.734 8.7C427.882 8.984 427.956 9.314 427.956 9.69C427.956 10.214 427.834 10.658 427.59 11.022C427.346 11.386 427.02 11.664 426.612 11.856C426.204 12.048 425.756 12.144 425.268 12.144ZM436.979 13.56L441.695 3.456H442.961L438.245 13.56H436.979ZM452.068 12V3.6H454.126C454.806 3.6 455.38 3.72 455.848 3.96C456.32 4.196 456.702 4.516 456.994 4.92C457.286 5.32 457.498 5.77 457.63 6.27C457.766 6.766 457.834 7.276 457.834 7.8C457.834 8.28 457.77 8.766 457.642 9.258C457.518 9.75 457.312 10.204 457.024 10.62C456.736 11.036 456.352 11.37 455.872 11.622C455.392 11.874 454.794 12 454.078 12H452.068ZM453.346 10.8H454.186C454.622 10.8 454.988 10.712 455.284 10.536C455.584 10.356 455.822 10.12 455.998 9.828C456.174 9.532 456.3 9.208 456.376 8.856C456.456 8.504 456.496 8.152 456.496 7.8C456.496 7.424 456.454 7.058 456.37 6.702C456.29 6.346 456.162 6.024 455.986 5.736C455.814 5.448 455.59 5.22 455.314 5.052C455.038 4.88 454.706 4.794 454.318 4.794H453.346V10.8ZM461.713 12.144C461.285 12.144 460.901 12.068 460.561 11.916C460.225 11.764 459.959 11.536 459.763 11.232C459.567 10.928 459.469 10.548 459.469 10.092C459.469 9.62 459.585 9.236 459.817 8.94C460.053 8.64 460.355 8.42 460.723 8.28C461.091 8.136 461.477 8.064 461.881 8.064C462.189 8.064 462.469 8.092 462.721 8.148C462.973 8.204 463.219 8.294 463.459 8.418V8.016C463.459 7.712 463.407 7.472 463.303 7.296C463.199 7.12 463.053 6.996 462.865 6.924C462.677 6.852 462.459 6.816 462.211 6.816C461.875 6.816 461.537 6.876 461.197 6.996C460.857 7.116 460.547 7.266 460.267 7.446L459.895 6.42C460.179 6.24 460.533 6.08 460.957 5.94C461.385 5.796 461.841 5.724 462.325 5.724C462.581 5.724 462.845 5.752 463.117 5.808C463.393 5.864 463.647 5.97 463.879 6.126C464.115 6.282 464.303 6.51 464.443 6.81C464.587 7.106 464.659 7.496 464.659 7.98V12H463.459V11.49C463.271 11.666 463.033 11.82 462.745 11.952C462.461 12.08 462.117 12.144 461.713 12.144ZM461.923 11.052C462.275 11.052 462.577 10.98 462.829 10.836C463.085 10.692 463.295 10.532 463.459 10.356V9.462C463.283 9.366 463.073 9.288 462.829 9.228C462.585 9.164 462.331 9.132 462.067 9.132C461.695 9.132 461.367 9.208 461.083 9.36C460.803 9.512 460.663 9.756 460.663 10.092C460.663 10.376 460.773 10.608 460.993 10.788C461.213 10.964 461.523 11.052 461.923 11.052ZM470.115 12.144C469.503 12.144 469.063 12.002 468.795 11.718C468.531 11.43 468.399 11.032 468.399 10.524V6.966H467.073V5.868H468.399V3.936L469.647 3.336V5.868H471.723V6.966H469.647V10.236C469.647 10.4 469.673 10.542 469.725 10.662C469.777 10.778 469.865 10.868 469.989 10.932C470.117 10.996 470.293 11.028 470.517 11.028C470.749 11.028 470.951 10.998 471.123 10.938C471.295 10.874 471.455 10.802 471.603 10.722L471.453 11.868C471.285 11.956 471.095 12.024 470.883 12.072C470.671 12.12 470.415 12.144 470.115 12.144ZM476.502 12.144C476.074 12.144 475.69 12.068 475.35 11.916C475.014 11.764 474.748 11.536 474.552 11.232C474.356 10.928 474.258 10.548 474.258 10.092C474.258 9.62 474.374 9.236 474.606 8.94C474.842 8.64 475.144 8.42 475.512 8.28C475.88 8.136 476.266 8.064 476.67 8.064C476.978 8.064 477.258 8.092 477.51 8.148C477.762 8.204 478.008 8.294 478.248 8.418V8.016C478.248 7.712 478.196 7.472 478.092 7.296C477.988 7.12 477.842 6.996 477.654 6.924C477.466 6.852 477.248 6.816 477 6.816C476.664 6.816 476.326 6.876 475.986 6.996C475.646 7.116 475.336 7.266 475.056 7.446L474.684 6.42C474.968 6.24 475.322 6.08 475.746 5.94C476.174 5.796 476.63 5.724 477.114 5.724C477.37 5.724 477.634 5.752 477.906 5.808C478.182 5.864 478.436 5.97 478.668 6.126C478.904 6.282 479.092 6.51 479.232 6.81C479.376 7.106 479.448 7.496 479.448 7.98V12H478.248V11.49C478.06 11.666 477.822 11.82 477.534 11.952C477.25 12.08 476.906 12.144 476.502 12.144ZM476.712 11.052C477.064 11.052 477.366 10.98 477.618 10.836C477.874 10.692 478.084 10.532 478.248 10.356V9.462C478.072 9.366 477.862 9.288 477.618 9.228C477.374 9.164 477.12 9.132 476.856 9.132C476.484 9.132 476.156 9.208 475.872 9.36C475.592 9.512 475.452 9.756 475.452 10.092C475.452 10.376 475.562 10.608 475.782 10.788C476.002 10.964 476.312 11.052 476.712 11.052ZM488.741 13.56L493.457 3.456H494.723L490.007 13.56H488.741ZM503.83 12V3.6H506.656C507.344 3.6 507.89 3.726 508.294 3.978C508.698 4.23 508.988 4.554 509.164 4.95C509.34 5.342 509.428 5.748 509.428 6.168C509.428 6.464 509.376 6.764 509.272 7.068C509.172 7.368 509.01 7.644 508.786 7.896C508.566 8.148 508.28 8.352 507.928 8.508C507.58 8.66 507.156 8.736 506.656 8.736H505.114V12H503.83ZM505.114 7.542H506.728C507.072 7.542 507.346 7.474 507.55 7.338C507.758 7.198 507.908 7.024 508 6.816C508.092 6.604 508.138 6.388 508.138 6.168C508.138 5.972 508.096 5.768 508.012 5.556C507.932 5.344 507.79 5.164 507.586 5.016C507.382 4.868 507.096 4.794 506.728 4.794H505.114V7.542ZM511.225 12V3.6H512.515L513.745 8.364C513.781 8.512 513.817 8.662 513.853 8.814C513.893 8.962 513.921 9.094 513.937 9.21C513.957 9.094 513.985 8.962 514.021 8.814C514.057 8.662 514.095 8.512 514.135 8.364L515.389 3.6H516.613V12H515.485V7.17C515.485 7.082 515.485 6.966 515.485 6.822C515.489 6.674 515.497 6.55 515.509 6.45C515.477 6.562 515.441 6.682 515.401 6.81C515.365 6.934 515.331 7.054 515.299 7.17L513.991 12H513.853L512.539 7.17C512.507 7.054 512.471 6.932 512.431 6.804C512.395 6.676 512.361 6.558 512.329 6.45C512.337 6.55 512.343 6.674 512.347 6.822C512.351 6.966 512.353 7.082 512.353 7.17V12H511.225ZM525.714 13.56L530.43 3.456H531.696L526.98 13.56H525.714ZM540.803 12V3.6H543.629C544.317 3.6 544.863 3.726 545.267 3.978C545.671 4.23 545.961 4.554 546.137 4.95C546.313 5.342 546.401 5.748 546.401 6.168C546.401 6.464 546.349 6.764 546.245 7.068C546.145 7.368 545.983 7.644 545.759 7.896C545.539 8.148 545.253 8.352 544.901 8.508C544.553 8.66 544.129 8.736 543.629 8.736H542.087V12H540.803ZM542.087 7.542H543.701C544.045 7.542 544.319 7.474 544.523 7.338C544.731 7.198 544.881 7.024 544.973 6.816C545.065 6.604 545.111 6.388 545.111 6.168C545.111 5.972 545.069 5.768 544.985 5.556C544.905 5.344 544.763 5.164 544.559 5.016C544.355 4.868 544.069 4.794 543.701 4.794H542.087V7.542ZM547.807 12V10.902H549.097V6.966H547.807V5.868H550.267V7.23L550.195 7.05C550.287 6.79 550.445 6.56 550.669 6.36C550.897 6.16 551.167 6.004 551.479 5.892C551.791 5.78 552.125 5.724 552.481 5.724C552.789 5.724 553.059 5.756 553.291 5.82C553.523 5.88 553.713 5.952 553.861 6.036V8.25H552.637V6.402L553.129 6.96C553.017 6.936 552.907 6.92 552.799 6.912C552.695 6.9 552.599 6.894 552.511 6.894C552.039 6.894 551.643 6.966 551.323 7.11C551.003 7.25 550.761 7.454 550.597 7.722C550.433 7.99 550.351 8.31 550.351 8.682V10.902H552.097V12H547.807ZM558.286 12.144C557.694 12.144 557.18 12.016 556.744 11.76C556.308 11.5 555.97 11.132 555.73 10.656C555.494 10.176 555.376 9.604 555.376 8.94C555.376 8.284 555.494 7.716 555.73 7.236C555.97 6.752 556.308 6.38 556.744 6.12C557.18 5.856 557.694 5.724 558.286 5.724C558.882 5.724 559.398 5.854 559.834 6.114C560.274 6.37 560.612 6.74 560.848 7.224C561.084 7.704 561.202 8.274 561.202 8.934C561.202 9.594 561.084 10.164 560.848 10.644C560.612 11.124 560.274 11.494 559.834 11.754C559.398 12.014 558.882 12.144 558.286 12.144ZM558.286 10.962C558.818 10.962 559.226 10.78 559.51 10.416C559.794 10.048 559.936 9.554 559.936 8.934C559.936 8.314 559.796 7.82 559.516 7.452C559.24 7.08 558.83 6.894 558.286 6.894C557.754 6.894 557.346 7.078 557.062 7.446C556.778 7.81 556.636 8.308 556.636 8.94C556.636 9.556 556.778 10.048 557.062 10.416C557.346 10.78 557.754 10.962 558.286 10.962ZM565.476 12.144C564.924 12.144 564.446 12.016 564.042 11.76C563.642 11.504 563.334 11.136 563.118 10.656C562.902 10.176 562.794 9.6 562.794 8.928C562.794 8.26 562.906 7.688 563.13 7.212C563.354 6.732 563.664 6.364 564.06 6.108C564.46 5.852 564.922 5.724 565.446 5.724C565.81 5.724 566.124 5.782 566.388 5.898C566.652 6.01 566.862 6.146 567.018 6.306V3.918L568.266 3.336V12H567.018V11.514C566.89 11.674 566.694 11.82 566.43 11.952C566.166 12.08 565.848 12.144 565.476 12.144ZM565.644 10.962C565.972 10.962 566.248 10.904 566.472 10.788C566.696 10.668 566.878 10.496 567.018 10.272V7.566C566.914 7.414 566.752 7.264 566.532 7.116C566.312 6.968 566.01 6.894 565.626 6.894C565.122 6.894 564.734 7.07 564.462 7.422C564.194 7.77 564.06 8.272 564.06 8.928C564.06 9.324 564.122 9.676 564.246 9.984C564.37 10.288 564.548 10.528 564.78 10.704C565.016 10.876 565.304 10.962 565.644 10.962ZM572.757 12.144C572.305 12.144 571.907 12.06 571.563 11.892C571.219 11.72 570.949 11.44 570.753 11.052C570.561 10.664 570.465 10.146 570.465 9.498V5.868H571.713V9.354C571.713 9.946 571.839 10.362 572.091 10.602C572.347 10.838 572.659 10.956 573.027 10.956C573.279 10.956 573.511 10.91 573.723 10.818C573.939 10.722 574.111 10.56 574.239 10.332C574.371 10.1 574.437 9.782 574.437 9.378V5.868H575.685V12H574.437V11.406C574.253 11.634 574.017 11.814 573.729 11.946C573.441 12.078 573.117 12.144 572.757 12.144ZM580.595 12.144C579.759 12.144 579.095 11.864 578.603 11.304C578.111 10.74 577.865 9.952 577.865 8.94C577.865 8.272 577.979 7.698 578.207 7.218C578.435 6.738 578.755 6.37 579.167 6.114C579.583 5.854 580.073 5.724 580.637 5.724C581.233 5.724 581.735 5.854 582.143 6.114C582.551 6.37 582.849 6.764 583.037 7.296L581.867 7.704C581.775 7.468 581.629 7.274 581.429 7.122C581.233 6.97 580.969 6.894 580.637 6.894C580.141 6.894 579.767 7.08 579.515 7.452C579.263 7.824 579.137 8.32 579.137 8.94C579.137 9.568 579.263 10.062 579.515 10.422C579.771 10.782 580.137 10.962 580.613 10.962C580.949 10.962 581.225 10.884 581.441 10.728C581.657 10.568 581.815 10.344 581.915 10.056L583.085 10.434C582.913 10.986 582.617 11.41 582.197 11.706C581.777 11.998 581.243 12.144 580.595 12.144ZM588.428 12.144C587.816 12.144 587.376 12.002 587.108 11.718C586.844 11.43 586.712 11.032 586.712 10.524V6.966H585.386V5.868H586.712V3.936L587.96 3.336V5.868H590.036V6.966H587.96V10.236C587.96 10.4 587.986 10.542 588.038 10.662C588.09 10.778 588.178 10.868 588.302 10.932C588.43 10.996 588.606 11.028 588.83 11.028C589.062 11.028 589.264 10.998 589.436 10.938C589.608 10.874 589.768 10.802 589.916 10.722L589.766 11.868C589.598 11.956 589.408 12.024 589.196 12.072C588.984 12.12 588.728 12.144 588.428 12.144Z" fill="#0033FF"/>
</svg>
